ply
format ascii 1.0
element vertex 455
property float x
property float y
property float z
element face 334
property list uchar int vertex_indices
end_header
-37.491001 -15.159745 -7.650965
-37.491000 -15.083096 -7.650965
-37.490999 -15.003866 -7.650965
-37.490910 -5.867145 -7.650941
-37.490828 -15.161343 1.648543
-37.490828 -15.082825 1.648543
-37.490825 -14.817911 1.648541
-37.490806 4.716551 -7.650913
-37.490704 15.205621 -7.650886
-37.490634 4.718281 1.648419
-37.490532 15.208130 1.648354
-36.711018 -17.942301 1.648546
-36.710600 -17.942806 -7.650987
-36.599238 18.236559 1.648318
-36.598820 18.236055 -7.650895
-34.922549 -20.602234 1.648530
-34.922132 -20.602738 -7.651027
-34.653129 20.871846 1.648266
-34.652711 20.871341 -7.650924
-34.240005 -12.714271 1.648468
-34.155171 -12.845216 -7.651021
-33.040160 -14.568245 1.648457
-33.039743 -14.568749 -7.651046
-32.919424 14.218283 1.648275
-32.919006 14.217778 -7.650973
-32.320208 -22.491132 1.648494
-32.319790 -22.491637 -7.651080
-32.186163 22.562119 1.648210
-32.185745 22.561614 -7.650965
-31.807515 -11.326023 -7.651060
-31.714675 -11.080103 1.648411
-31.582494 10.902433 1.648271
-31.582077 10.901928 -7.651007
-31.333521 17.514145 1.648225
-31.333103 17.513640 -7.650994
-31.056840 -17.632826 1.648440
-31.056423 -17.633331 -7.651091
-29.922208 20.447170 1.648181
-29.921790 20.446665 -7.651013
-29.421165 -9.595948 1.648359
-29.333883 9.706481 1.648237
-29.306269 -23.443968 1.648444
-29.301863 -23.445734 -7.651138
-29.258803 23.444149 -7.651017
-29.255039 23.445915 1.648150
-29.170863 9.619495 -7.651055
-29.150849 -9.606865 -7.651105
-28.884982 18.555521 1.648173
-28.884564 18.555016 -7.651037
-28.528369 -18.634943 1.648399
-28.527952 -18.635448 -7.651140
-28.479465 23.444142 -7.651031
-28.479276 23.445907 1.648135
-27.975088 -8.660176 1.648327
-27.842056 -8.759931 -7.651127
-27.725619 19.048604 1.648149
-27.725201 19.048099 -7.651057
-27.511133 23.445898 1.648117
-27.370917 23.445896 1.648115
-27.369955 23.444131 -7.651052
-27.310357 -19.117682 1.648380
-27.309939 -19.118186 -7.651164
-27.141669 9.600612 -7.651092
-26.980721 9.684583 1.648194
-26.822066 -23.445758 -7.651184
-26.822028 -23.443993 1.648398
-26.699890 18.395524 1.648134
-26.699472 18.395019 -7.651078
-26.672506 18.378089 1.648134
-26.578192 -9.705631 1.648307
-26.577774 -9.706135 -7.651153
-26.195548 -18.191195 1.648353
-26.195130 -18.191700 -7.651182
-25.793384 9.588065 -7.651117
-25.737275 9.673012 1.648171
-25.516285 -19.828731 1.648351
-25.515867 -19.829236 -7.651199
-25.371627 10.516892 1.648159
-25.332134 10.278235 1.648159
-25.231201 9.668303 1.648161
-25.066841 10.674543 1.648152
-25.066424 10.674038 -7.651128
-24.898020 23.445872 1.648069
-24.842191 7.317520 1.648169
-24.820843 -5.867269 -7.651175
-24.615133 17.068161 1.648104
-24.614715 17.067656 -7.651120
-24.580626 -6.463584 1.648250
-24.521031 -6.610861 -7.651183
-24.437126 7.102081 1.648163
-24.436708 7.101576 -7.651149
-24.393592 -11.340613 1.648277
-24.393174 -11.341117 -7.651197
-24.379839 -16.682210 1.648310
-24.379421 -16.682715 -7.651212
-24.162395 9.572887 -7.651147
-24.153391 9.658273 1.648142
-23.836590 12.512362 1.648118
-23.836172 12.511857 -7.651146
-23.593376 14.703501 1.648100
-23.592958 14.702996 -7.651145
-23.494701 -0.825345 1.648195
-23.457971 -14.129800 1.648277
-23.457553 -14.130305 -7.651222
-23.424600 1.472945 1.648179
-23.371957 -5.867283 -7.651202
-23.332280 4.499671 1.648159
-23.271808 6.482292 1.648145
-23.162510 -2.832773 1.648201
-23.116441 2.937353 1.648164
-23.058786 13.466294 1.648097
-23.024781 3.372934 1.648160
-22.956438 -4.078063 1.648205
-22.877858 19.398062 1.648057
-22.864036 -12.485351 1.648256
-22.863619 -12.485856 -7.651229
-22.773784 3.936146 1.648152
-22.756965 -5.283474 1.648209
-22.619619 5.298310 1.648140
-22.344890 -5.016815 1.648200
-22.317157 -4.998869 1.648199
-22.258249 -5.149811 1.648199
-22.241361 5.130850 1.648134
-22.113051 5.865992 1.648127
-21.973302 -10.019141 1.648224
-21.951933 5.780300 1.648125
-21.876713 5.740293 1.648124
-21.714900 6.312177 1.648117
-21.534056 -12.673498 1.648233
-21.483345 6.397736 1.648112
-21.354800 7.120207 1.648106
-21.167491 6.925627 1.648103
-20.951086 -7.156361 1.648187
-20.943527 -7.167965 1.648187
-20.942696 -7.165665 1.648187
-20.827720 8.302921 1.648088
-20.700278 7.706488 1.648090
-20.670904 7.482124 1.648091
-20.606356 7.790617 1.648088
-20.545425 7.649604 1.648087
-20.473163 -5.867311 -7.651256
-20.099875 8.244293 1.648075
-19.751731 -23.444062 1.648267
-19.588997 -3.419289 -7.651266
-19.556310 8.731185 1.648062
-19.444389 -8.827145 1.648170
-19.182732 11.994114 1.648035
-19.076592 4.250731 -7.651255
-18.949590 9.411102 1.648047
-18.272372 10.170020 1.648029
-18.208000 9.938920 1.648030
-18.172780 9.970467 1.648029
-18.170394 9.965685 1.648029
-18.066784 -10.354778 1.648154
-17.930334 -10.155673 1.648150
-17.157743 -10.833594 1.648140
-16.967168 -13.271843 1.648152
-16.598578 -1.484156 -7.651316
-16.460733 11.182517 1.647990
-16.030379 -11.427407 1.648123
-15.725769 11.705619 1.647973
-15.231080 -13.499303 1.648121
-14.804704 12.361177 1.647952
-14.681553 12.178865 1.647950
-13.812850 -12.595440 1.648089
-12.898113 13.718171 1.647908
-12.637060 13.105443 1.647907
-12.376175 -13.873347 1.648071
-11.354995 14.816468 1.647872
-11.349805 -13.567818 1.648050
-11.080726 -13.640921 1.648045
-11.059118 -14.045906 1.648047
-11.031291 15.046860 1.647865
-10.225940 13.933307 1.647857
-9.681665 -14.226377 1.648023
-9.316015 14.245732 1.647838
-8.620931 14.348102 1.647825
-8.221672 -14.417663 1.647997
-5.845926 -14.728929 1.647955
-4.613823 14.938256 1.647747
-4.161767 -14.949585 1.647925
-3.129129 23.445660 1.647666
-0.798310 0.324499 13.493682
-0.695357 -1.511922 13.390466
-0.596241 2.061864 13.291732
-0.234244 -3.360964 12.928935
-0.202862 3.405410 12.898342
0.308888 4.530589 12.386504
0.710362 -5.206842 11.983702
0.769054 23.445622 1.647594
1.140010 5.752448 11.555169
1.390868 15.046739 1.647635
1.938098 -6.438718 10.755290
2.532949 6.871159 10.161760
2.592021 -6.821613 10.101038
2.600942 -14.729931 10.091176
3.433988 -14.948214 9.257744
3.733123 7.250224 8.961114
3.779387 -7.287298 8.913104
3.855625 7.288916 8.838563
4.495738 7.250072 8.198169
5.099228 7.249951 7.594418
5.216014 7.206364 7.477577
5.389434 -7.168943 7.302377
6.118796 6.869418 6.574364
6.674361 -6.535448 6.016970
6.946176 6.331638 5.746564
7.030769 -0.828965 32.160485
7.065949 1.469330 32.125563
7.196671 -2.836373 31.994273
7.220056 2.933756 31.971562
7.391376 3.932569 31.800287
7.533357 -5.730578 5.157697
7.648470 -5.153358 31.542005
7.657552 5.127304 31.534138
7.928239 5.296700 4.763953
8.036483 6.394235 31.155194
8.301656 -7.159830 30.888298
8.435365 -4.537627 4.255442
8.442603 7.478672 30.749027
8.659829 15.046668 1.647501
8.728047 8.240875 30.463550
8.740364 3.904324 3.951312
8.999748 8.727799 30.191790
9.054589 -8.830525 30.134842
9.191288 -2.639714 3.499417
9.347876 2.038154 3.343316
9.547812 -0.381064 3.143007
9.673699 9.935614 29.517690
9.692496 9.962381 29.498888
9.811220 -10.158963 29.377726
10.367928 7.253930 28.822843
10.420381 -14.949609 2.268333
10.547049 11.179314 28.644110
10.751831 -14.949675 1.936740
10.760726 -11.430584 28.427659
10.852125 5.312323 28.338207
11.040802 -14.949733 1.647644
11.351303 3.310641 27.838576
11.436334 12.175768 27.754560
11.868959 -12.598486 27.318809
12.243711 4.027361 26.945867
12.451389 0.322928 26.737660
12.458216 13.102467 26.732346
12.554342 -1.513493 26.634444
12.653458 2.060293 26.535710
12.813124 3.433089 26.376137
12.948034 4.593024 26.241308
13.015455 -3.362535 26.172913
13.046837 3.403839 26.142320
13.099911 -13.570717 26.087209
13.234391 -13.643804 25.952663
13.238502 4.058451 25.950650
13.314162 -4.560335 25.873935
13.368893 13.728173 25.821350
13.558588 4.529018 25.630482
13.960061 -5.208413 25.227680
14.389709 5.750877 24.799147
14.663278 -14.420377 24.523066
14.678253 14.408073 24.511505
15.187797 -6.440289 23.999268
15.394654 -6.647844 23.792297
15.782648 6.869588 23.405738
15.841721 -6.823184 23.345016
15.850641 -14.731502 23.335154
16.101484 -7.357058 23.085077
16.238556 -14.949784 1.647548
16.240336 15.046594 1.647360
16.240627 19.952283 1.647330
16.240834 23.445471 1.647308
16.468290 14.935756 22.720757
16.668577 -14.945826 22.516839
16.995340 7.252607 22.192569
17.029086 -7.288870 22.157082
17.105324 7.287344 22.082541
17.680027 7.252470 21.507585
17.722365 7.482232 21.465256
18.194054 7.631211 20.993381
18.338322 7.252338 20.849006
18.465713 7.204792 20.721555
18.639133 -7.170514 20.546355
18.777087 7.252251 20.410051
18.784305 7.817637 20.402897
19.368495 6.867847 19.818342
19.563164 8.063633 19.623731
19.617430 15.049964 19.570271
19.924060 -6.537019 19.260948
20.195875 6.330067 18.990542
20.535553 8.370753 18.650959
20.783056 -5.732149 18.401675
21.125214 -5.944826 18.059345
21.177938 5.295129 18.007931
21.464073 -5.094045 17.720440
21.638676 23.445418 1.647208
21.685064 -4.539198 17.499420
21.762296 -6.940930 17.421869
21.923121 23.443650 -7.651964
21.986561 -5.520164 17.197676
21.990063 3.902753 17.195290
22.034951 8.844326 17.150969
22.440987 -2.641285 16.743395
22.597575 2.036583 16.587294
22.797511 -0.382635 16.386985
22.877885 -14.948589 8.284010
22.882089 10.378429 8.286552
22.882865 15.047790 8.287021
23.329995 -6.825687 15.853507
23.666137 -14.947223 15.516257
24.001203 -14.947290 15.181046
26.869228 -14.949374 4.351403
26.873640 11.629547 4.354071
26.874208 15.047004 4.354414
26.888304 -14.947867 12.292697
26.890636 10.377954 12.293368
26.891066 15.048511 12.293492
28.091760 -19.219604 -30.644442
28.091769 -15.668958 -32.044335
28.091773 -20.634546 -29.243911
28.091784 -21.941532 -27.950235
28.091788 -13.762532 -32.044439
28.091807 -11.801025 -32.044545
28.091809 -14.690268 -30.431807
28.091811 -11.756366 -31.860949
28.091827 -23.166452 -24.972392
28.091850 -16.544196 -27.209228
28.091863 -17.102738 -26.238344
28.091867 -23.449146 -22.673585
28.091869 -14.700681 -27.151420
28.091887 -12.968796 -27.097113
28.091898 -11.929672 -27.064529
28.091901 -18.826884 -23.241358
28.091921 -11.212042 -26.189190
28.091960 -10.024385 -24.740528
28.091968 -17.895817 -20.149642
28.092007 -9.468606 -22.455641
28.092014 -16.075979 -18.601521
28.092040 -14.261498 -18.146225
28.092046 -10.313785 -19.920552
28.092053 -12.324104 -18.500742
28.092055 -13.202362 -17.880462
28.092059 -14.309334 -17.098651
28.092061 -8.837074 -19.859325
28.092097 -8.419979 -18.144585
28.092100 17.122536 -31.495506
28.092120 -11.929530 -15.074172
28.092123 18.537580 -30.971099
28.092131 9.660414 -25.883933
28.092137 11.318200 -26.423871
28.092145 -23.446294 -7.652200
28.092146 13.882285 -27.258991
28.092164 9.660761 -24.056370
28.092171 20.542967 -29.428366
28.092179 16.194676 -26.717046
28.092181 20.953458 -29.112578
28.092215 9.661276 -21.343588
28.092223 17.851346 -25.213226
28.092236 -14.132220 -7.652176
28.092255 22.888563 -26.155857
28.092257 -6.562580 -10.508554
28.092265 10.958675 -19.319946
28.092269 18.583844 -23.118748
28.092272 9.661866 -18.233865
28.092276 23.093826 -25.100123
28.092291 11.648694 -18.243675
28.092303 18.341374 -21.147041
28.092305 13.027989 -18.250485
28.092313 23.440615 -23.316471
28.092316 -5.867785 -7.652155
28.092325 17.150802 -19.335141
28.092326 15.210331 -18.261261
28.092338 16.449191 -18.267378
28.092353 17.988184 -18.274976
28.092372 23.441219 -20.139096
28.092375 20.273901 -18.286262
28.092406 23.441567 -18.301903
28.092603 23.443589 -7.652079
28.312122 -11.801027 -32.044549
28.732120 15.637003 -32.046046
29.613718 -14.949915 1.647300
29.621944 15.046463 1.647113
30.401250 15.047639 7.879933
30.402279 11.629128 7.881186
30.410280 -14.948737 7.890926
31.077484 -14.948702 8.111489
31.085204 11.701228 8.106927
31.086174 15.047675 8.106354
37.486101 -19.219696 -30.644616
37.486109 -15.669050 -32.044509
37.486113 -20.634637 -29.244085
37.486124 -21.941624 -27.950409
37.486128 -13.762624 -32.044613
37.486147 -11.801116 -32.044719
37.486149 -14.690360 -30.431980
37.486167 -23.166543 -24.972565
37.486190 -16.544287 -27.209401
37.486203 -17.102830 -26.238518
37.486207 -23.449238 -22.673759
37.486209 -14.700773 -27.151594
37.486227 -12.968887 -27.097287
37.486238 -11.929764 -27.064703
37.486241 -18.826976 -23.241531
37.486261 -11.212134 -26.189364
37.486300 -10.024477 -24.740702
37.486308 -17.895909 -20.149816
37.486347 -9.468698 -22.455815
37.486354 -16.076071 -18.601695
37.486380 -14.261590 -18.146399
37.486386 -10.313876 -19.920726
37.486393 -12.324195 -18.500916
37.486396 -13.202454 -17.880636
37.486399 -14.309426 -17.098825
37.486402 -8.837166 -19.859499
37.486415 15.636917 -32.046208
37.486437 -8.420071 -18.144759
37.486460 -11.929622 -15.074346
37.486463 18.537488 -30.971273
37.486471 9.660322 -25.884107
37.486477 11.318108 -26.424045
37.486485 -23.446386 -7.652374
37.486486 13.882193 -27.259164
37.486505 9.660669 -24.056544
37.486511 20.542875 -29.428540
37.486519 16.194584 -26.717220
37.486521 20.953366 -29.112752
37.486555 9.661184 -21.343762
37.486563 17.851255 -25.213400
37.486576 -14.132312 -7.652350
37.486595 22.888471 -26.156031
37.486597 -6.562671 -10.508727
37.486605 10.958583 -19.320120
37.486609 18.583752 -23.118922
37.486612 9.661775 -18.234039
37.486616 23.093734 -25.100297
37.486632 11.648602 -18.243849
37.486643 18.341283 -21.147215
37.486645 13.027897 -18.250659
37.486653 23.440524 -23.316644
37.486656 -5.867877 -7.652329
37.486657 -23.444620 1.647208
37.486665 17.150711 -19.335315
37.486666 15.210240 -18.261435
37.486678 16.449100 -18.267551
37.486687 -20.406292 1.647189
37.486693 17.988092 -18.275150
37.486712 23.441127 -20.139270
37.486715 20.273809 -18.286436
37.486740 -14.949991 1.647154
37.486741 -14.949981 1.699463
37.486746 23.441476 -18.302077
37.486943 23.443498 -7.652252
37.487020 13.731974 1.646975
37.487021 13.723189 1.702585
37.487033 15.046387 1.646967
37.487034 15.046397 1.702729
37.487115 23.445263 1.646915
10 391 412 415 421 419 417 416 411 404 402
12 413 431 433 435 440 441 443 445 448 449 437 428
6 416 420 424 431 413 411
3 416 417 420
6 421 423 427 432 422 419
4 424 429 433 431
5 425 422 432 436 444
5 430 425 444 448 445
3 429 435 433
4 434 430 445 443
4 439 434 443 441
3 439 441 440
7 403 405 410 414 428 437 426
8 388 386 387 390 392 394 395 400
6 407 404 411 413 428 414
5 409 408 407 414 410
4 405 406 409 410
3 408 409 406
6 392 390 391 402 401 399
5 392 399 398 397 394
3 398 399 401
3 394 397 395
8 396 393 389 388 400 403 426 418
10 418 426 437 449 454 452 450 446 442 438
4 446 450 451 447
4 450 452 453 451
4 375 449 448 374
4 372 444 436 366
4 374 448 444 372
5 293 454 449 375 296
4 44 52 51 43
8 58 82 181 189 269 293 296 59
5 52 57 58 59 51
4 4 5 1 0
4 5 6 2 1
4 9 10 8 7
5 6 9 7 3 2
4 316 387 386 315
4 357 427 423 353
4 315 386 388 317
4 317 388 389 318
4 16 26 25 15
4 15 11 12 16
4 13 17 18 14
4 351 421 415 345
4 353 423 421 351
4 26 42 41 25
4 27 44 43 28
4 10 13 14 8
4 362 432 427 357
4 366 436 432 362
4 17 27 28 18
5 343 345 415 412 377
4 11 4 0 12
10 332 334 341 346 347 349 351 345 343 322
4 343 377 376 322
4 377 412 391 376
4 347 417 419 349
4 332 402 404 334
3 322 376 320
12 358 367 375 374 373 371 370 369 365 363 361 342
6 341 342 361 354 350 346
3 350 347 346
6 349 352 362 357 353 351
4 361 363 359 354
5 372 366 362 352 355
5 373 374 372 355 360
3 363 365 359
4 371 373 360 364
4 370 371 364 368
3 369 370 368
6 296 375 367 140 143 157
3 143 140 105
10 14 18 28 43 51 38 34 24 7 8
5 7 24 32 84 3
6 100 86 59 296 157 147
6 38 51 59 86 67 56
8 32 45 90 147 157 143 105 84
5 98 100 147 90 95
4 38 56 48 34
5 45 62 73 95 90
3 56 67 48
3 81 73 62
4 81 98 95 73
4 369 440 435 365
4 354 424 420 350
4 350 420 417 347
4 349 419 422 352
4 359 429 424 354
4 352 422 425 355
4 355 425 430 360
4 365 435 429 359
4 360 430 434 364
4 364 434 439 368
4 368 439 440 369
7 356 367 358 344 340 335 333
8 330 325 324 321 319 316 315 317
6 344 358 342 341 334 337
5 340 344 337 338 339
4 340 339 336 335
3 336 339 338
7 329 331 332 322 320 319 321
5 324 327 328 329 321
3 331 329 328
3 325 327 324
8 348 356 333 330 317 318 323 326
9 103 115 140 367 356 348 64 76 94
7 88 105 140 115 92 70 54
3 92 115 103
3 54 70 46
11 12 0 1 36 50 61 76 64 42 26 16
5 2 20 22 36 1
4 72 94 76 61
3 20 29 22
3 50 72 61
8 3 84 88 54 46 29 20 2
3 84 105 88
4 319 390 387 316
5 320 376 391 390 319
4 335 405 403 333
4 330 400 395 325
4 334 404 407 337
4 337 407 408 338
4 336 406 405 335
4 338 408 406 336
4 331 401 402 332
4 327 397 398 328
4 328 398 401 331
4 325 395 397 327
4 333 403 400 330
4 326 396 418 348
4 323 393 396 326
4 318 389 393 323
6 64 348 418 438 142 65
4 42 64 65 41
4 93 102 103 94
8 93 75 65 142 128 124 114 102
12 142 438 442 180 178 177 174 171 167 161 156 128
6 442 446 378 266 237 180
4 128 156 133 124
6 156 161 153 145 134 133
4 171 174 169 164
4 174 177 170 169
3 155 159 154
4 153 155 154 145
5 161 167 159 155 153
4 167 171 164 159
6 267 379 452 454 293 268
3 220 267 268
4 70 92 91 69
7 69 91 114 124 117 87 53
6 124 133 132 121 119 117
3 121 120 119
3 133 134 132
4 102 91 92 103
3 102 114 91
4 46 70 69 39
3 39 69 53
4 35 49 50 36
11 15 25 41 65 75 60 49 35 5 4 11
4 36 22 21 35
5 5 35 21 19 6
4 71 93 94 72
4 60 75 93 71
4 22 29 30 21
3 21 30 19
4 49 71 72 50
4 29 46 39 30
3 60 71 49
4 24 34 33 23
10 10 9 23 33 37 52 44 27 17 13
4 32 24 23 31
9 6 19 30 39 53 87 31 23 9
4 99 85 86 100
6 85 99 110 113 82 58
4 135 146 113 110
7 135 138 141 144 148 149 146
3 138 139 141
5 148 150 152 151 149
3 144 150 148
6 146 149 151 181 82 113
10 151 152 158 160 162 165 168 172 189 181
3 268 293 269
4 168 179 191 172
5 162 166 173 175 165
3 173 176 175
3 158 163 160
4 160 163 166 162
5 165 175 176 179 168
6 172 191 220 268 269 189
5 67 86 85 68 66
4 68 85 58 57
6 37 55 66 68 57 52
4 31 40 45 32
8 87 117 112 108 101 83 40 31
6 101 104 106 107 89 83
3 117 119 112
4 119 120 108 112
4 106 118 123 107
5 104 109 111 118 106
6 111 116 122 125 123 118
3 111 109 116
3 122 126 125
4 97 99 100 98
6 96 89 107 110 99 97
6 107 123 127 130 135 110
4 130 136 138 135
4 127 131 136 130
5 131 137 139 138 136
3 123 125 127
5 125 126 129 131 127
3 131 129 137
4 34 48 47 33
4 33 47 55 37
4 40 63 62 45
5 83 79 74 63 40
4 83 89 96 79
4 48 67 66 47
3 47 66 55
5 63 77 80 81 62
4 80 97 98 81
3 78 80 77
4 63 74 78 77
5 78 79 96 97 80
3 74 79 78
4 108 209 207 101
5 177 178 195 264 258
4 178 180 196 195
4 195 196 271 264
5 180 237 234 232 196
4 266 378 309 303
6 378 446 447 383 382 309
6 234 237 266 303 312 308
4 196 232 307 271
4 232 234 308 307
3 223 221 219
6 258 264 253 248 244 251
23 230 235 240 250 251 244 238 236 231 229 228 223 219 216 214 211 210 208 207 209 213 217 224
4 101 207 208 104
4 132 217 213 121
5 120 121 213 209 108
4 221 223 144 141
5 139 137 219 221 141
4 228 229 152 150
4 223 228 150 144
5 145 224 217 132 134
4 164 169 250 240
4 170 177 258 251
4 169 170 251 250
4 183 244 248 185
4 104 208 210 109
4 116 211 214 122
4 109 210 211 116
5 126 122 214 216 129
4 129 216 219 137
4 154 159 235 230
4 145 154 230 224
4 159 164 240 235
4 229 233 158 152
3 202 201 200
26 203 205 212 218 225 227 226 222 215 206 204 202 200 197 193 190 187 186 184 182 183 185 188 192 194 198
3 200 199 197
4 303 309 310 304
4 309 382 381 310
4 304 313 312 303
4 382 383 384 381
4 447 451 384 383
7 312 313 299 301 302 306 308
6 247 257 262 236 238 241
8 271 307 265 261 260 256 253 264
3 256 248 253
4 244 242 241 238
4 298 301 299 288
5 245 246 247 241 242
5 255 257 247 246 252
4 249 252 246 245
3 255 252 249
7 307 308 306 295 280 273 265
4 265 273 263 261
3 263 260 261
4 291 298 288 284
4 287 291 284 282
5 283 287 282 277 281
4 283 281 278 279
3 292 294 289
4 278 281 277 276
4 278 276 274 275
4 290 292 289 286
5 297 300 294 292 290
5 295 297 290 286 280
5 306 302 300 297 295
4 227 302 301 226
4 190 193 262 257
4 256 260 192 188
4 248 256 188 185
4 182 242 244 183
4 226 301 298 222
4 184 245 242 182
4 187 190 257 255
4 186 249 245 184
4 187 255 249 186
4 273 280 203 198
4 263 273 198 194
4 260 263 194 192
4 215 222 298 291
4 206 215 291 287
4 204 206 287 283
4 201 202 279 278
4 202 204 283 279
4 200 201 278 275
4 289 294 218 212
4 218 294 300 225
4 280 286 205 203
4 225 300 302 227
4 193 197 272 262
4 286 289 212 205
4 199 200 275 274
4 197 199 274 272
4 305 311 379 267
6 311 380 385 453 452 379
4 451 453 385 384
4 304 310 311 305
4 310 381 380 311
4 305 314 313 304
4 381 384 385 380
4 262 272 231 236
19 274 276 277 282 284 288 299 313 314 285 270 259 254 243 239 233 229 231 272
4 270 285 191 179
4 243 254 173 166
4 254 259 176 173
4 233 239 163 158
4 239 243 166 163
6 285 314 305 267 220 191
4 259 270 179 176
