ply
format ascii 1.0
element vertex 254
property float x
property float y
property float z
element face 520
property list uchar int vertex_indices
property uchar red
property uchar green
property uchar blue
end_header
-37.491001 -15.159745 -7.650965
-37.490828 -15.161343 1.648543
-37.490704 15.205621 -7.650886
-37.490532 15.208130 1.648354
-36.711018 -17.942301 1.648546
-36.710600 -17.942806 -7.650987
-36.599238 18.236559 1.648318
-36.598820 18.236055 -7.650895
-34.922549 -20.602234 1.648530
-34.922132 -20.602738 -7.651027
-34.653129 20.871846 1.648266
-34.652711 20.871341 -7.650924
-33.040160 -14.568245 1.648457
-33.039743 -14.568749 -7.651046
-32.919424 14.218283 1.648275
-32.919006 14.217778 -7.650973
-32.320208 -22.491132 1.648494
-32.319790 -22.491637 -7.651080
-32.186163 22.562119 1.648210
-32.185745 22.561614 -7.650965
-31.807515 -11.326023 -7.651060
-31.714675 -11.080103 1.648411
-31.582494 10.902433 1.648271
-31.582077 10.901928 -7.651007
-31.333521 17.514145 1.648225
-31.333103 17.513640 -7.650994
-31.056840 -17.632826 1.648440
-31.056423 -17.633331 -7.651091
-29.421165 -9.595948 1.648359
-29.333883 9.706481 1.648237
-29.306269 -23.443968 1.648444
-29.301863 -23.445734 -7.651138
-29.258803 23.444149 -7.651017
-29.255039 23.445915 1.648150
-29.170863 9.619495 -7.651055
-29.150849 -9.606865 -7.651105
-28.884982 18.555521 1.648173
-28.884564 18.555016 -7.651037
-28.528369 -18.634943 1.648399
-28.527952 -18.635448 -7.651140
-27.141669 9.600612 -7.651092
-26.980721 9.684583 1.648194
-26.699890 18.395524 1.648134
-26.699472 18.395019 -7.651078
-26.578192 -9.705631 1.648307
-26.577774 -9.706135 -7.651153
-26.195548 -18.191195 1.648353
-26.195130 -18.191700 -7.651182
-25.066841 10.674543 1.648152
-25.066424 10.674038 -7.651128
-24.615133 17.068161 1.648104
-24.614715 17.067656 -7.651120
-24.393592 -11.340613 1.648277
-24.393174 -11.341117 -7.651197
-24.379839 -16.682210 1.648310
-24.379421 -16.682715 -7.651212
-23.836590 12.512362 1.648118
-23.836172 12.511857 -7.651146
-23.593376 14.703501 1.648100
-23.592958 14.702996 -7.651145
-23.494701 -0.825345 1.648195
-23.457971 -14.129800 1.648277
-23.457553 -14.130305 -7.651222
-23.424600 1.472945 1.648179
-23.162510 -2.832773 1.648201
-23.116441 2.937353 1.648164
-22.773784 3.936146 1.648152
-22.258249 -5.149811 1.648199
-22.241361 5.130850 1.648134
-21.483345 6.397736 1.648112
-20.951086 -7.156361 1.648187
-20.099875 8.244293 1.648075
-19.444389 -8.827145 1.648170
-18.208000 9.938920 1.648030
-17.930334 -10.155673 1.648150
-16.460733 11.182517 1.647990
-16.030379 -11.427407 1.648123
-14.681553 12.178865 1.647950
-13.812850 -12.595440 1.648089
-12.637060 13.105443 1.647907
-11.349805 -13.567818 1.648050
-10.225940 13.933307 1.647857
-8.620931 14.348102 1.647825
-8.221672 -14.417663 1.647997
-4.613823 14.938256 1.647747
-4.161767 -14.949585 1.647925
-0.798310 0.324499 13.493682
-0.695357 -1.511922 13.390466
-0.596241 2.061864 13.291732
-0.234244 -3.360964 12.928935
-0.202862 3.405410 12.898342
0.308888 4.530589 12.386504
0.710362 -5.206842 11.983702
1.140010 5.752448 11.555169
1.390868 15.046739 1.647635
1.938098 -6.438718 10.755290
2.532949 6.871159 10.161760
2.592021 -6.821613 10.101038
3.779387 -7.287298 8.913104
3.855625 7.288916 8.838563
4.495738 7.250072 8.198169
5.099228 7.249951 7.594418
5.389434 -7.168943 7.302377
6.118796 6.869418 6.574364
6.674361 -6.535448 6.016970
6.946176 6.331638 5.746564
7.030769 -0.828965 32.160485
7.065949 1.469330 32.125563
7.196671 -2.836373 31.994273
7.220056 2.933756 31.971562
7.391376 3.932569 31.800287
7.533357 -5.730578 5.157697
7.648470 -5.153358 31.542005
7.657552 5.127304 31.534138
7.928239 5.296700 4.763953
8.036483 6.394235 31.155194
8.301656 -7.159830 30.888298
8.435365 -4.537627 4.255442
8.728047 8.240875 30.463550
8.740364 3.904324 3.951312
9.054589 -8.830525 30.134842
9.191288 -2.639714 3.499417
9.347876 2.038154 3.343316
9.547812 -0.381064 3.143007
9.673699 9.935614 29.517690
9.811220 -10.158963 29.377726
10.547049 11.179314 28.644110
10.760726 -11.430584 28.427659
11.436334 12.175768 27.754560
11.868959 -12.598486 27.318809
12.451389 0.322928 26.737660
12.458216 13.102467 26.732346
12.554342 -1.513493 26.634444
12.653458 2.060293 26.535710
13.015455 -3.362535 26.172913
13.046837 3.403839 26.142320
13.099911 -13.570717 26.087209
13.368893 13.728173 25.821350
13.558588 4.529018 25.630482
13.960061 -5.208413 25.227680
14.389709 5.750877 24.799147
14.663278 -14.420377 24.523066
14.678253 14.408073 24.511505
15.187797 -6.440289 23.999268
15.782648 6.869588 23.405738
15.841721 -6.823184 23.345016
16.468290 14.935756 22.720757
16.668577 -14.945826 22.516839
17.029086 -7.288870 22.157082
17.105324 7.287344 22.082541
17.680027 7.252470 21.507585
18.338322 7.252338 20.849006
18.639133 -7.170514 20.546355
19.368495 6.867847 19.818342
19.617430 15.049964 19.570271
19.924060 -6.537019 19.260948
20.195875 6.330067 18.990542
20.783056 -5.732149 18.401675
21.177938 5.295129 18.007931
21.685064 -4.539198 17.499420
21.990063 3.902753 17.195290
22.440987 -2.641285 16.743395
22.597575 2.036583 16.587294
22.797511 -0.382635 16.386985
22.877885 -14.948589 8.284010
22.882865 15.047790 8.287021
26.869228 -14.949374 4.351403
26.874208 15.047004 4.354414
26.888304 -14.947867 12.292697
26.891066 15.048511 12.293492
28.091760 -19.219604 -30.644442
28.091769 -15.668958 -32.044335
28.091784 -21.941532 -27.950235
28.091807 -11.801025 -32.044545
28.091811 -11.756366 -31.860949
28.091827 -23.166452 -24.972392
28.091863 -17.102738 -26.238344
28.091867 -23.449146 -22.673585
28.091869 -14.700681 -27.151420
28.091887 -12.968796 -27.097113
28.091901 -18.826884 -23.241358
28.091921 -11.212042 -26.189190
28.091960 -10.024385 -24.740528
28.091968 -17.895817 -20.149642
28.092007 -9.468606 -22.455641
28.092014 -16.075979 -18.601521
28.092040 -14.261498 -18.146225
28.092046 -10.313785 -19.920552
28.092053 -12.324104 -18.500742
28.092100 17.122536 -31.495506
28.092123 18.537580 -30.971099
28.092137 11.318200 -26.423871
28.092145 -23.446294 -7.652200
28.092146 13.882285 -27.258991
28.092164 9.660761 -24.056370
28.092179 16.194676 -26.717046
28.092181 20.953458 -29.112578
28.092215 9.661276 -21.343588
28.092223 17.851346 -25.213226
28.092255 22.888563 -26.155857
28.092265 10.958675 -19.319946
28.092269 18.583844 -23.118748
28.092303 18.341374 -21.147041
28.092305 13.027989 -18.250485
28.092313 23.440615 -23.316471
28.092325 17.150802 -19.335141
28.092326 15.210331 -18.261261
28.092603 23.443589 -7.652079
28.312122 -11.801027 -32.044549
28.732120 15.637003 -32.046046
30.401250 15.047639 7.879933
30.410280 -14.948737 7.890926
31.077484 -14.948702 8.111489
31.086174 15.047675 8.106354
37.486101 -19.219696 -30.644616
37.486109 -15.669050 -32.044509
37.486124 -21.941624 -27.950409
37.486167 -23.166543 -24.972565
37.486203 -17.102830 -26.238518
37.486207 -23.449238 -22.673759
37.486209 -14.700773 -27.151594
37.486227 -12.968887 -27.097287
37.486241 -18.826976 -23.241531
37.486261 -11.212134 -26.189364
37.486300 -10.024477 -24.740702
37.486308 -17.895909 -20.149816
37.486347 -9.468698 -22.455815
37.486354 -16.076071 -18.601695
37.486380 -14.261590 -18.146399
37.486386 -10.313876 -19.920726
37.486393 -12.324195 -18.500916
37.486415 15.636917 -32.046208
37.486463 18.537488 -30.971273
37.486477 11.318108 -26.424045
37.486486 13.882193 -27.259164
37.486505 9.660669 -24.056544
37.486519 16.194584 -26.717220
37.486521 20.953366 -29.112752
37.486555 9.661184 -21.343762
37.486563 17.851255 -25.213400
37.486595 22.888471 -26.156031
37.486605 10.958583 -19.320120
37.486609 18.583752 -23.118922
37.486643 18.341283 -21.147215
37.486645 13.027897 -18.250659
37.486653 23.440524 -23.316644
37.486657 -23.444620 1.647208
37.486665 17.150711 -19.335315
37.486666 15.210240 -18.261435
37.486740 -14.949991 1.647154
37.486741 -14.949981 1.699463
37.487033 15.046387 1.646967
37.487034 15.046397 1.702729
37.487115 23.445263 1.646915
3 248 251 244 157 167 127
3 224 233 235 157 167 127
3 245 243 242 157 167 127
3 240 245 242 157 167 127
3 247 243 245 157 167 127
3 225 246 219 157 167 127
3 251 250 249 157 167 127
3 250 251 252 157 167 127
3 231 233 215 157 167 127
3 229 241 249 157 167 127
3 215 223 221 157 167 127
3 239 236 237 157 167 127
3 223 215 233 157 167 127
3 223 233 224 157 167 127
3 234 231 236 157 167 127
3 230 229 249 157 167 127
3 246 227 249 157 167 127
3 230 249 228 157 167 127
3 225 227 246 157 167 127
3 228 249 227 157 167 127
3 217 222 219 157 167 127
3 217 216 222 157 167 127
3 219 222 225 157 167 127
3 216 214 218 157 167 127
3 216 218 222 157 167 127
3 214 215 220 157 167 127
3 214 220 218 157 167 127
3 215 221 220 157 167 127
3 253 247 245 157 167 127
3 235 238 226 157 167 127
3 237 240 239 157 167 127
3 239 240 242 157 167 127
3 232 237 236 157 167 127
3 232 236 231 157 167 127
3 233 231 234 157 167 127
3 226 224 235 157 167 127
3 238 229 226 157 167 127
3 241 229 238 157 167 127
3 249 241 251 157 167 127
3 241 244 251 157 167 127
3 251 248 253 157 167 127
3 248 247 253 157 167 127
3 207 253 245 157 167 127
3 204 207 245 157 167 127
3 33 253 207 157 167 127
3 32 33 207 157 167 127
3 2 0 1 157 167 127
3 3 2 1 157 167 127
3 170 215 214 157 167 127
3 170 171 215 157 167 127
3 199 240 237 157 167 127
3 196 199 237 157 167 127
3 214 172 170 157 167 127
3 214 216 172 157 167 127
3 17 16 9 140 224 162
3 16 8 9 140 224 162
3 8 4 5 140 224 162
3 9 8 5 140 224 162
3 6 10 11 140 224 162
3 7 6 11 140 224 162
3 196 237 232 157 167 127
3 190 196 232 157 167 127
3 31 30 17 140 224 162
3 30 16 17 140 224 162
3 18 33 32 140 224 162
3 19 18 32 140 224 162
3 3 6 7 140 224 162
3 2 3 7 140 224 162
3 204 245 240 157 167 127
3 199 204 240 157 167 127
3 11 18 19 140 224 162
3 11 10 18 140 224 162
3 209 190 232 157 167 127
3 231 209 232 157 167 127
3 209 189 190 157 167 127
3 5 1 0 140 224 162
3 5 4 1 140 224 162
3 188 203 200 157 167 127
3 201 202 204 157 167 127
3 201 204 199 157 167 127
3 204 202 205 157 167 127
3 174 179 181 157 167 127
3 173 171 174 157 167 127
3 178 179 174 157 167 127
3 195 189 193 157 167 127
3 198 196 195 157 167 127
3 181 182 174 157 167 127
3 191 189 174 157 167 127
3 177 192 183 157 167 127
3 188 192 207 157 167 127
3 200 197 187 157 167 127
3 186 192 188 157 167 127
3 192 185 183 157 167 127
3 185 192 186 157 167 127
3 177 180 175 157 167 127
3 180 172 175 157 167 127
3 183 180 177 157 167 127
3 176 170 172 157 167 127
3 180 176 172 157 167 127
3 178 171 170 157 167 127
3 176 178 170 157 167 127
3 178 174 171 157 167 127
3 174 182 194 157 167 127
3 205 207 204 157 167 127
3 198 199 196 157 167 127
3 201 199 198 157 167 127
3 196 190 195 157 167 127
3 191 174 194 157 167 127
3 195 190 189 157 167 127
3 193 189 191 157 167 127
3 194 182 184 157 167 127
3 197 194 184 157 167 127
3 187 197 184 157 167 127
3 188 200 187 157 167 127
3 207 203 188 157 167 127
3 207 206 203 157 167 127
3 207 205 206 157 167 127
3 174 209 208 179 107 175
3 174 189 209 179 107 175
3 231 208 209 157 167 127
3 231 215 208 157 167 127
3 215 171 208 157 167 127
3 173 208 171 157 167 127
3 233 234 191 157 167 127
3 234 193 191 157 167 127
3 173 208 174 157 167 127
3 184 224 226 157 167 127
3 224 184 182 157 167 127
3 5 13 27 157 167 127
3 20 13 0 157 167 127
3 39 17 27 157 167 127
3 47 55 31 157 167 127
3 55 62 192 157 167 127
3 62 53 192 157 167 127
3 57 207 192 157 167 127
3 45 49 53 157 167 127
3 2 7 15 157 167 127
3 7 11 25 157 167 127
3 0 13 5 157 167 127
3 5 27 9 157 167 127
3 9 27 17 157 167 127
3 17 39 31 157 167 127
3 31 39 47 157 167 127
3 192 31 55 157 167 127
3 207 57 59 157 167 127
3 15 23 2 157 167 127
3 45 40 49 157 167 127
3 35 40 45 157 167 127
3 35 34 40 157 167 127
3 23 20 0 157 167 127
3 43 37 32 157 167 127
3 11 19 25 157 167 127
3 34 35 23 157 167 127
3 2 23 0 157 167 127
3 23 35 20 157 167 127
3 15 7 25 157 167 127
3 37 25 19 157 167 127
3 32 37 19 157 167 127
3 51 43 32 157 167 127
3 207 51 32 157 167 127
3 207 59 51 157 167 127
3 53 57 192 157 167 127
3 53 49 57 157 167 127
3 203 248 244 157 167 127
3 203 206 248 157 167 127
3 197 238 235 157 167 127
3 194 197 235 157 167 127
3 191 235 233 157 167 127
3 191 194 235 157 167 127
3 234 236 195 157 167 127
3 234 195 193 157 167 127
3 200 241 238 157 167 127
3 197 200 238 157 167 127
3 236 239 198 157 167 127
3 236 198 195 157 167 127
3 239 242 201 157 167 127
3 239 201 198 157 167 127
3 203 244 241 157 167 127
3 200 203 241 157 167 127
3 242 243 201 157 167 127
3 243 202 201 157 167 127
3 243 247 202 157 167 127
3 247 205 202 157 167 127
3 206 247 248 157 167 127
3 206 205 247 157 167 127
3 185 227 225 157 167 127
3 183 185 225 157 167 127
3 176 222 218 157 167 127
3 176 180 222 157 167 127
3 226 229 184 157 167 127
3 229 187 184 157 167 127
3 188 229 230 157 167 127
3 188 187 229 157 167 127
3 186 228 227 157 167 127
3 185 186 227 157 167 127
3 186 230 228 157 167 127
3 186 188 230 157 167 127
3 223 224 182 157 167 127
3 223 182 181 157 167 127
3 220 221 179 157 167 127
3 220 179 178 157 167 127
3 221 223 181 157 167 127
3 221 181 179 157 167 127
3 218 220 176 157 167 127
3 220 178 176 157 167 127
3 183 225 222 157 167 127
3 180 183 222 157 167 127
3 219 246 192 157 167 127
3 219 192 177 157 167 127
3 192 246 30 157 167 127
3 192 30 31 157 167 127
3 217 219 175 157 167 127
3 219 177 175 157 167 127
3 216 217 172 157 167 127
3 217 175 172 157 167 127
3 54 61 62 140 224 162
3 55 54 62 140 224 162
3 69 48 41 157 167 127
3 58 77 50 157 167 127
3 18 10 24 157 167 127
3 6 3 14 157 167 127
3 36 18 24 157 167 127
3 54 30 80 157 167 127
3 66 68 41 157 167 127
3 22 28 29 157 167 127
3 68 69 41 157 167 127
3 29 65 41 157 167 127
3 65 66 41 157 167 127
3 63 65 29 157 167 127
3 60 63 29 157 167 127
3 28 44 64 157 167 127
3 14 3 22 157 167 127
3 28 60 29 157 167 127
3 28 64 60 157 167 127
3 52 72 70 157 167 127
3 61 74 72 157 167 127
3 78 54 80 157 167 127
3 30 246 85 157 167 127
3 246 249 85 157 167 127
3 33 18 36 157 167 127
3 83 30 85 157 167 127
3 80 30 83 157 167 127
3 38 16 30 157 167 127
3 26 8 16 157 167 127
3 26 4 8 157 167 127
3 3 1 22 157 167 127
3 24 6 14 157 167 127
3 10 6 24 157 167 127
3 42 33 36 157 167 127
3 50 33 42 157 167 127
3 81 33 50 157 167 127
3 94 253 33 157 167 127
3 84 94 33 157 167 127
3 251 253 94 157 167 127
3 56 73 58 157 167 127
3 33 82 84 157 167 127
3 33 81 82 157 167 127
3 50 79 81 157 167 127
3 50 77 79 157 167 127
3 58 75 77 157 167 127
3 58 73 75 157 167 127
3 56 48 71 157 167 127
3 73 56 71 157 167 127
3 71 48 69 157 167 127
3 1 4 12 157 167 127
3 12 4 26 157 167 127
3 26 16 38 157 167 127
3 76 54 78 157 167 127
3 38 30 46 157 167 127
3 30 54 46 157 167 127
3 76 74 61 157 167 127
3 67 44 70 157 167 127
3 54 76 61 157 167 127
3 72 52 61 157 167 127
3 67 64 44 157 167 127
3 52 70 44 157 167 127
3 21 28 22 157 167 127
3 1 21 22 157 167 127
3 1 12 21 157 167 127
3 53 52 45 140 224 162
3 52 44 45 140 224 162
3 61 52 53 140 224 162
3 62 61 53 140 224 162
3 45 44 35 140 224 162
3 44 28 35 140 224 162
3 27 38 39 140 224 162
3 27 26 38 140 224 162
3 13 12 26 140 224 162
3 13 26 27 140 224 162
3 47 54 55 140 224 162
3 47 46 54 140 224 162
3 20 21 12 140 224 162
3 20 12 13 140 224 162
3 39 46 47 140 224 162
3 39 38 46 140 224 162
3 35 28 20 185 214 131
3 28 21 20 185 214 131
3 25 24 14 140 224 162
3 25 14 15 140 224 162
3 15 14 22 140 224 162
3 15 22 23 140 224 162
3 58 50 51 140 224 162
3 59 58 51 140 224 162
3 51 50 43 140 224 162
3 50 42 43 140 224 162
3 23 29 34 140 224 162
3 23 22 29 140 224 162
3 56 58 59 140 224 162
3 57 56 59 140 224 162
3 37 36 25 140 224 162
3 36 24 25 140 224 162
3 34 41 40 100 116 195
3 34 29 41 100 116 195
3 43 42 37 140 224 162
3 42 36 37 140 224 162
3 41 48 49 140 224 162
3 40 41 49 140 224 162
3 48 56 57 140 224 162
3 49 48 57 140 224 162
3 108 106 64 100 116 195
3 106 60 64 100 116 195
3 83 85 141 100 116 195
3 85 147 141 100 116 195
3 164 168 147 157 167 127
3 250 212 211 157 167 127
3 166 250 211 157 167 127
3 249 250 166 157 167 127
3 85 249 166 157 167 127
3 164 85 166 157 167 127
3 85 164 147 157 167 127
3 131 128 144 100 116 195
3 131 144 137 100 116 195
3 137 144 149 100 116 195
3 128 126 144 100 116 195
3 138 140 118 100 116 195
3 134 132 108 100 116 195
3 132 130 106 100 116 195
3 145 129 136 100 116 195
3 133 135 110 100 116 195
3 130 107 106 100 116 195
3 133 109 107 100 116 195
3 133 110 109 100 116 195
3 135 113 110 100 116 195
3 135 115 113 100 116 195
3 138 118 115 100 116 195
3 140 124 118 100 116 195
3 140 126 124 100 116 195
3 149 146 142 100 116 195
3 108 132 106 100 116 195
3 144 126 140 100 116 195
3 112 134 108 100 116 195
3 139 116 120 100 116 195
3 115 135 138 100 116 195
3 112 116 134 100 116 195
3 125 139 120 100 116 195
3 125 127 143 100 116 195
3 107 130 133 100 116 195
3 127 129 145 100 116 195
3 141 148 136 100 116 195
3 147 148 141 100 116 195
3 116 139 134 100 116 195
3 163 168 169 100 116 195
3 125 143 139 100 116 195
3 147 168 152 100 116 195
3 143 127 145 100 116 195
3 145 136 148 100 116 195
3 148 147 152 100 116 195
3 152 168 155 100 116 195
3 155 168 157 100 116 195
3 157 168 159 100 116 195
3 163 161 168 100 116 195
3 159 168 161 100 116 195
3 162 163 169 100 116 195
3 154 156 169 100 116 195
3 169 160 162 100 116 195
3 169 158 160 100 116 195
3 169 156 158 100 116 195
3 154 153 156 100 116 195
3 154 146 151 100 116 195
3 153 154 151 100 116 195
3 146 150 151 100 116 195
3 146 149 150 100 116 195
3 142 137 149 100 116 195
3 106 107 63 100 116 195
3 106 63 60 100 116 195
3 116 112 70 100 116 195
3 112 67 70 100 116 195
3 112 108 67 100 116 195
3 108 64 67 100 116 195
3 118 73 71 100 116 195
3 118 124 73 100 116 195
3 71 69 115 100 116 195
3 71 115 118 100 116 195
3 124 75 73 100 116 195
3 124 126 75 100 116 195
3 116 70 72 100 116 195
3 116 72 120 100 116 195
3 80 136 129 100 116 195
3 80 129 78 100 116 195
3 83 141 136 100 116 195
3 83 136 80 100 116 195
3 89 132 134 100 116 195
3 89 87 132 100 116 195
3 107 109 65 100 116 195
3 107 65 63 100 116 195
3 110 113 68 100 116 195
3 110 68 66 100 116 195
3 109 110 66 100 116 195
3 109 66 65 100 116 195
3 113 115 69 100 116 195
3 113 69 68 100 116 195
3 76 127 125 100 116 195
3 76 125 74 100 116 195
3 74 125 120 100 116 195
3 74 120 72 100 116 195
3 78 129 127 100 116 195
3 78 127 76 100 116 195
3 101 100 103 100 116 195
3 100 105 103 100 116 195
3 100 93 105 100 116 195
3 105 93 114 100 116 195
3 114 91 119 100 116 195
3 119 90 122 100 116 195
3 122 86 123 100 116 195
3 123 87 121 100 116 195
3 121 89 117 100 116 195
3 117 92 111 100 116 195
3 111 97 104 100 116 195
3 104 97 102 100 116 195
3 102 97 98 100 116 195
3 111 95 97 100 116 195
3 111 92 95 100 116 195
3 117 89 92 100 116 195
3 121 87 89 100 116 195
3 123 86 87 100 116 195
3 122 88 86 100 116 195
3 122 90 88 100 116 195
3 119 91 90 100 116 195
3 114 93 91 100 116 195
3 100 96 93 100 116 195
3 100 99 96 100 116 195
3 166 167 164 100 173 165
3 167 165 164 100 173 165
3 211 210 167 100 116 195
3 211 167 166 100 116 195
3 165 169 168 100 116 195
3 164 165 168 100 116 195
3 212 213 210 129 138 144
3 212 210 211 129 138 144
3 250 252 212 100 116 195
3 252 213 212 100 116 195
3 163 162 123 100 116 195
3 162 122 123 100 116 195
3 96 144 140 100 116 195
3 96 140 93 100 116 195
3 92 143 95 100 116 195
3 92 139 143 100 116 195
3 89 139 92 100 116 195
3 89 134 139 100 116 195
3 87 130 132 100 116 195
3 87 86 130 100 116 195
3 162 160 122 100 116 195
3 160 119 122 100 116 195
3 88 133 130 100 116 195
3 86 88 130 100 116 195
3 93 140 138 100 116 195
3 93 138 91 100 116 195
3 90 135 133 100 116 195
3 88 90 133 100 116 195
3 91 138 135 100 116 195
3 90 91 135 100 116 195
3 148 152 102 100 116 195
3 98 148 102 100 116 195
3 97 148 98 100 116 195
3 97 145 148 100 116 195
3 95 145 97 100 116 195
3 95 143 145 100 116 195
3 119 160 114 100 116 195
3 160 158 114 100 116 195
3 114 158 105 100 116 195
3 158 156 105 100 116 195
3 105 156 103 100 116 195
3 156 153 103 100 116 195
3 101 103 153 100 116 195
3 101 153 151 100 116 195
3 101 151 100 157 167 127
3 151 150 100 157 167 127
3 157 159 117 100 116 195
3 111 157 117 100 116 195
3 159 161 121 100 116 195
3 159 121 117 100 116 195
3 152 155 104 100 116 195
3 102 152 104 100 116 195
3 161 163 123 100 116 195
3 161 123 121 100 116 195
3 96 99 144 100 116 195
3 99 149 144 100 116 195
3 155 157 111 100 116 195
3 104 155 111 100 116 195
3 100 150 99 100 116 195
3 150 149 99 100 116 195
3 154 169 165 157 167 127
3 210 213 252 157 167 127
3 210 252 167 157 167 127
3 167 252 251 157 167 127
3 167 251 94 157 167 127
3 167 94 165 157 167 127
3 154 165 94 157 167 127
3 146 154 94 100 116 195
3 84 146 94 100 116 195
3 131 137 81 100 116 195
3 79 131 81 100 116 195
3 137 142 82 156 159 148
3 81 137 82 156 159 148
3 126 128 77 100 116 195
3 75 126 77 100 116 195
3 128 131 79 100 116 195
3 77 128 79 100 116 195
3 142 146 84 100 116 195
3 82 142 84 100 116 195
