ply
format ascii 1.0
comment : in_cells:65
element vertex 512
property float x
property float y
property float z
property uchar red
property uchar green
property uchar blue
element face 386
property list uchar int vertex_indices
end_header
37.1438 -7.03273 -32.0413 177 140 167
37.1438 15.9356 -32.0413 177 140 167
37.4858 20.2152 -29.7671 177 140 167
37.4858 16.9801 -31.5529 177 140 167
37.4858 13.6815 -27.2591 177 140 167
37.4858 19.8331 -30.2226 177 140 167
37.4858 -4.91707 -31.5529 177 140 167
28.0932 19.7804 -30.2854 177 140 167
28.0932 13.6815 -27.2591 177 140 167
28.0932 20.2152 -29.7671 177 140 167
28.0932 -6.06674 -31.8183 177 140 167
28.0932 17.198 -31.4895 177 140 167
28.3518 -7.03273 -32.0413 177 140 167
28.754 16.0088 -32.0413 177 140 167
28.0932 13.6815 -27.2591 107 101 204
28.0932 -7.03273 -32.0413 107 101 204
37.4858 -4.91707 -31.5529 107 101 204
37.4858 13.6815 -27.2591 107 101 204
37.1438 -7.03273 -32.0413 107 101 204
37.4858 -16.9401 -31.5529 107 101 204
37.1438 -15.3939 -32.0413 107 101 204
37.4858 -18.1045 -31.1858 107 101 204
37.4858 0.0880781 -22.0411 107 101 204
28.0932 0.209414 -22.0876 107 101 204
28.0932 -20.1491 -29.6968 107 101 204
37.4858 -20.2882 -29.6568 107 101 204
28.0932 -18.1177 -31.1191 107 101 204
30.7797 -17.9501 -31.2529 107 101 204
28.0932 -15.1793 -32.0413 107 101 204
30.8889 -15.4485 -32.0413 107 101 204
37.4858 23.1155 -25.0811 224 209 185
37.4858 22.3251 -27.2527 224 209 185
37.4858 20.2152 -29.7671 224 209 185
37.4858 13.6815 -27.2591 224 209 185
28.0932 13.6815 -27.2591 224 209 185
28.0932 23.1155 -25.0811 224 209 185
28.0932 22.3251 -27.2527 224 209 185
28.0932 20.2152 -29.7671 224 209 185
28.0932 19.1373 -25.9995 219 226 115
28.0932 23.1155 -25.0811 219 226 115
37.4858 23.1155 -25.0811 219 226 115
37.4858 19.1373 -25.9995 219 226 115
37.4858 23.4414 -24.1858 219 226 115
28.0932 23.4414 -24.1858 219 226 115
28.0932 23.4414 -13.4045 219 226 115
37.4858 23.4414 -13.3126 219 226 115
28.0932 17.233 -15.725 219 226 115
37.4858 17.217 -15.639 219 226 115
28.0932 11.2276 -26.3171 161 212 111
37.4858 11.2276 -26.3171 161 212 111
37.4858 0.0880781 -22.0411 161 212 111
37.4858 6.74941 -19.5513 161 212 111
28.0932 6.79818 -19.625 161 212 111
28.0932 0.209414 -22.0876 161 212 111
28.0932 17.6682 -18.0731 134 110 163
37.4858 17.6636 -18.0483 134 110 163
37.4858 17.217 -15.639 134 110 163
37.4858 9.42373 -18.5518 134 110 163
28.0932 9.6376 -18.5638 134 110 163
28.0932 17.233 -15.725 134 110 163
37.4858 18.0397 -20.0774 149 248 168
28.0932 18.0172 -19.9564 149 248 168
28.0932 17.6682 -18.0731 149 248 168
28.0932 15.3362 -18.2156 149 248 168
37.4858 17.6636 -18.0483 149 248 168
37.4858 15.1511 -18.2018 149 248 168
37.4858 9.59742 -23.8542 147 119 200
28.0932 9.59742 -23.8542 147 119 200
28.0932 6.79818 -19.625 147 119 200
37.4858 6.74941 -19.5513 147 119 200
37.4858 9.42373 -18.5518 147 119 200
28.0932 9.6376 -18.5638 147 119 200
37.4858 9.92359 -18.5212 147 119 200
28.0932 9.92206 -18.5464 147 119 200
37.4858 16.4823 -26.6125 236 167 134
37.4858 19.1373 -25.9995 236 167 134
37.4858 18.7643 -23.9873 236 167 134
28.0932 18.7643 -23.9873 236 167 134
28.0932 16.4823 -26.6125 236 167 134
28.0932 19.1373 -25.9995 236 167 134
28.0932 9.81543 -20.2897 164 107 144
37.4858 9.81543 -20.2897 164 107 144
37.4858 9.92359 -18.5212 164 107 144
37.4858 12.5169 -18.3628 164 107 144
28.0932 9.92206 -18.5464 164 107 144
28.0932 12.4785 -18.3902 164 107 144
37.4858 9.81543 -20.2897 186 175 175
37.4858 10.6431 -19.6994 186 175 175
37.4858 9.7556 -21.268 186 175 175
28.0932 9.7556 -21.268 186 175 175
28.0932 9.81543 -20.2897 186 175 175
28.0932 10.6431 -19.6994 186 175 175
37.4858 18.5959 -23.0784 146 114 204
37.4858 18.7643 -23.9873 146 114 204
37.4858 18.0237 -24.8392 146 114 204
28.0932 18.0237 -24.8392 146 114 204
28.0932 18.5959 -23.0784 146 114 204
28.0932 18.7643 -23.9873 146 114 204
37.4858 -4.88349 -7.65107 246 125 151
37.4858 -10.4919 -25.9954 246 125 151
37.4858 23.4414 -13.3126 246 125 151
37.4858 23.4414 -7.65107 246 125 151
28.0932 23.4414 -7.65107 246 125 151
28.0932 23.4414 -13.4045 246 125 151
28.0932 -10.5236 -26.0992 246 125 151
28.0932 -4.88349 -7.65107 246 125 151
37.4858 -20.9414 -29.1994 192 249 120
37.4858 -20.2882 -29.6568 192 249 120
28.0932 -20.1491 -29.6968 192 249 120
28.0932 -21.0052 -29.0974 192 249 120
37.4858 -22.6642 -26.4424 192 249 120
28.0932 -22.6642 -26.4424 192 249 120
28.0932 -23.4068 -23.9354 192 249 120
37.4858 -23.4365 -23.8351 192 249 120
28.0932 -13.9451 -27.378 192 249 120
37.4858 -13.9484 -27.2873 192 249 120
37.4858 -23.4441 -16.4736 150 137 119
37.4858 -8.43135 -19.2556 150 137 119
37.4858 -4.88349 -7.65107 150 137 119
37.4858 -23.4441 -7.65107 150 137 119
28.0932 -23.4441 -7.65107 150 137 119
28.0932 -4.88349 -7.65107 150 137 119
28.0932 -8.44014 -19.2843 150 137 119
28.0932 -23.4441 -16.5039 150 137 119
37.4858 -22.9538 -24.0108 231 154 191
28.0932 -23.0885 -24.0512 231 154 191
28.0932 -23.4441 -23.8097 231 154 191
37.4858 -23.4441 -23.8097 231 154 191
37.4858 -23.4365 -23.8351 231 154 191
28.0932 -23.4068 -23.9354 231 154 191
37.4858 -23.4441 -16.4736 231 154 191
28.0932 -23.4441 -16.5039 231 154 191
28.0932 -15.2349 -18.0252 231 154 191
37.4858 -15.137 -18.013 231 154 191
28.0932 -23.0885 -24.0512 127 103 249
37.4858 -22.9538 -24.0108 127 103 249
37.4858 -18.9129 -25.481 127 103 249
37.4858 -18.0888 -20.2779 127 103 249
28.0932 -18.1708 -20.2779 127 103 249
28.0932 -19.0038 -25.5374 127 103 249
28.0932 -9.37512 -22.3425 175 166 185
37.4858 -9.34354 -22.2392 175 166 185
37.4858 -8.43135 -19.2556 175 166 185
37.4858 -11.0341 -18.7733 175 166 185
28.0932 -8.44014 -19.2843 175 166 185
28.0932 -11.1079 -18.79 175 166 185
37.4858 -18.9129 -25.481 190 204 100
37.4858 -18.6144 -23.5963 190 204 100
37.4858 -17.1576 -26.1197 190 204 100
28.0932 -17.0922 -26.2329 190 204 100
28.0932 -18.6787 -23.4849 190 204 100
28.0932 -19.0038 -25.5374 190 204 100
28.0932 -10.6842 -19.6586 171 186 105
37.4858 -10.5546 -19.7563 171 186 105
37.4858 -12.1281 -18.5705 171 186 105
37.4858 -11.0341 -18.7733 171 186 105
28.0932 -12.0747 -18.6108 171 186 105
28.0932 -11.1079 -18.79 171 186 105
37.4858 -10.208 -25.0669 252 244 160
37.4858 -11.4174 -26.3413 252 244 160
37.4858 -10.4919 -25.9954 252 244 160
28.0932 -10.5236 -26.0992 252 244 160
28.0932 -11.5526 -26.4838 252 244 160
28.0932 -10.208 -25.0669 252 244 160
28.0932 -15.2349 -18.0252 111 105 126
37.4858 -15.137 -18.013 111 105 126
37.4858 -15.7982 -18.5203 111 105 126
37.4858 -14.3173 -18.1649 111 105 126
28.0932 -14.4812 -18.1649 111 105 126
28.0932 -15.8429 -18.4917 111 105 126
-27.4645 -23.4441 -7.65107 235 223 205
-37.4852 -15.6021 1.64746 235 223 205
-37.4852 -6.76672 -7.65107 235 223 205
-37.4852 -7.08186 1.64746 235 223 205
-37.4852 -15.6021 -7.65107 235 223 205
-36.0369 -19.4757 1.64746 235 223 205
-36.0369 -19.4757 -7.65107 235 223 205
-27.6415 -23.4441 1.04018 235 223 205
-28.8037 -23.4441 -7.65107 235 223 205
-27.6619 -23.4307 1.64746 235 223 205
-31.0366 -22.9864 1.64746 235 223 205
-30.1143 -23.2715 -7.65107 235 223 205
-32.8335 -22.2604 1.64746 235 223 205
-33.0216 -22.0969 -7.65107 235 223 205
-29.5884 23.3668 1.64746 192 208 198
-29.4928 23.3951 -7.65107 192 208 198
-37.4852 0.432713 1.64746 192 208 198
-37.4852 0.183465 -7.65107 192 208 198
-34.6792 20.9267 -7.65107 192 208 198
-34.6792 20.9267 1.64746 192 208 198
-31.735 22.7309 1.64746 192 208 198
-31.735 22.7309 -7.65107 192 208 198
-36.7593 17.8429 1.64746 192 208 198
-36.7593 17.8429 -7.65107 192 208 198
-37.4852 15.2252 1.64746 192 208 198
-37.4852 15.2252 -7.65107 192 208 198
-1.4447 -23.4441 -7.65107 241 134 183
-1.4447 -23.4441 1.64746 241 134 183
-27.5602 -23.4441 1.64746 241 134 183
-27.6415 -23.4441 1.04018 241 134 183
-27.6619 -23.4307 1.64746 241 134 183
-30.9383 -17.9777 1.64746 241 134 183
-30.7252 -18.0172 -7.65107 241 134 183
-27.4645 -23.4441 -7.65107 241 134 183
-13.5207 23.4414 -7.65107 155 240 148
37.4858 23.4414 -7.65107 155 240 148
37.4858 23.4414 1.64746 155 240 148
-13.5207 23.4414 1.64746 155 240 148
-30.677 -9.51553 1.64746 155 240 148
37.4858 -14.2819 1.64746 155 240 148
37.4858 -14.2006 -7.65107 155 240 148
-30.6361 -9.43704 -7.65107 155 240 148
-28.992 -9.55201 -7.65107 145 212 235
-29.1297 -9.62372 1.64746 145 212 235
-30.677 -9.51553 1.64746 145 212 235
-31.3294 -10.7688 1.64746 145 212 235
-30.6361 -9.43704 -7.65107 145 212 235
-31.3294 -10.7688 -7.65107 145 212 235
37.4858 -14.2006 -7.65107 142 247 223
37.4858 -23.4441 -7.65107 142 247 223
37.4858 -14.2819 1.64746 142 247 223
37.4858 -23.4441 1.64746 142 247 223
-1.4447 -23.4441 1.64746 142 247 223
-1.4447 -23.4441 -7.65107 142 247 223
-27.5134 -18.6125 -7.65107 142 247 223
-27.5134 -18.6125 1.64746 142 247 223
-10.2841 -10.9415 1.64746 142 247 223
-10.1262 -10.8712 -7.65107 142 247 223
-10.1262 -10.8712 -7.65107 196 189 138
-10.2841 -10.9415 1.64746 196 189 138
-19.75 -10.2796 1.64746 196 189 138
-25.28 -17.6182 1.64746 196 189 138
-25.28 -17.6182 -7.65107 196 189 138
-19.6918 -10.2023 -7.65107 196 189 138
-19.6918 -10.2023 -7.65107 184 161 205
-19.75 -10.2796 1.64746 184 161 205
-22.9764 -10.054 1.64746 184 161 205
-23.946 -15.8478 1.64746 184 161 205
-22.963 -9.9736 -7.65107 184 161 205
-23.946 -15.8478 -7.65107 184 161 205
-22.963 -9.9736 -7.65107 206 153 225
-22.9764 -10.054 1.64746 206 153 225
-26.4228 -9.81301 1.64746 206 153 225
-23.272 -11.8203 1.64746 206 153 225
-26.9056 -9.6979 -7.65107 206 153 225
-23.3011 -11.9942 -7.65107 206 153 225
-23.3011 -11.9942 -7.65107 108 187 136
-23.272 -11.8203 1.64746 108 187 136
-23.551 -13.4877 1.64746 108 187 136
-24.8567 -10.8107 1.64746 108 187 136
-24.7205 -11.0899 -7.65107 108 187 136
-23.551 -13.4877 -7.65107 108 187 136
-13.5207 23.4414 -7.65107 148 140 116
-13.5207 23.4414 1.64746 148 140 116
-18.4195 14.031 -7.65107 148 140 116
-18.4195 14.031 1.64746 148 140 116
-29.3365 23.4414 1.64746 148 140 116
-29.3365 23.4414 -7.65107 148 140 116
-29.4928 23.3951 -7.65107 148 140 116
-29.5884 23.3668 1.64746 148 140 116
-30.5831 20.2287 -7.65107 148 140 116
-30.6561 20.2659 1.64746 148 140 116
-28.006 18.9156 -7.65107 187 120 150
-28.006 18.9156 1.64746 187 120 150
-30.6561 20.2659 1.64746 187 120 150
-31.6851 17.2776 1.64746 187 120 150
-30.5831 20.2287 -7.65107 187 120 150
-31.5837 17.3227 -7.65107 187 120 150
-18.4195 14.031 -7.65107 158 140 138
-18.4195 14.031 1.64746 158 140 138
-23.9051 3.49324 1.64746 158 140 138
-23.6744 16.7085 1.64746 158 140 138
-23.9051 3.49324 -7.65107 158 140 138
-23.6744 16.7085 -7.65107 158 140 138
-37.4852 0.183465 -7.65107 240 110 246
-26.7805 -2.03041 -7.65107 240 110 246
-32.75 13.9357 -7.65107 240 110 246
-26.7805 -2.03041 1.64746 240 110 246
-32.7946 14.0551 1.64746 240 110 246
-37.4852 0.432713 1.64746 240 110 246
-37.4852 -7.08186 1.64746 240 110 246
-33.1586 -14.2826 1.64746 240 110 246
-37.4852 -6.76672 -7.65107 240 110 246
-33.0707 -14.1137 -7.65107 240 110 246
-23.8554 6.33828 -7.65107 238 176 226
-23.9051 3.49324 -7.65107 238 176 226
-23.857 6.24412 1.64746 238 176 226
-23.9051 3.49324 1.64746 238 176 226
-26.7805 -2.03041 1.64746 238 176 226
-31.6626 11.0274 1.64746 238 176 226
-26.7805 -2.03041 -7.65107 238 176 226
-31.7088 11.1508 -7.65107 238 176 226
-23.769 11.291 1.64746 145 144 100
-23.7705 11.2007 -7.65107 145 144 100
-23.8554 6.33828 -7.65107 145 144 100
-28.3247 9.07708 -7.65107 145 144 100
-23.857 6.24412 1.64746 145 144 100
-28.4959 9.0868 1.64746 145 144 100
-23.6744 16.7085 -7.65107 207 118 175
-23.6744 16.7085 1.64746 207 118 175
-24.8838 17.3248 1.64746 207 118 175
-23.7002 15.2327 1.64746 207 118 175
-23.7002 15.2327 -7.65107 207 118 175
-24.8838 17.3248 -7.65107 207 118 175
-23.7705 11.2007 -7.65107 171 208 111
-23.769 11.291 1.64746 171 208 111
-24.9315 10.7489 1.64746 171 208 111
-23.7484 12.4703 1.64746 171 208 111
-25.3118 10.482 -7.65107 171 208 111
-23.7432 12.7643 -7.65107 171 208 111
-27.3648 9.52469 -7.65107 144 189 202
-27.3797 9.60726 1.64746 144 189 202
-29.6348 9.78474 1.64746 144 189 202
-28.4959 9.0868 1.64746 144 189 202
-29.3042 9.67732 -7.65107 144 189 202
-28.3247 9.07708 -7.65107 144 189 202
37.4858 -14.9429 1.64746 107 252 190
37.4858 -14.9429 1.69584 107 252 190
37.4858 15.046 1.64746 107 252 190
37.4858 15.046 1.69584 107 252 190
24.0216 -14.9429 1.64746 107 252 190
24.0216 15.046 1.64746 107 252 190
29.8782 15.046 7.30308 107 252 190
29.8782 -14.9429 7.30308 107 252 190
30.9747 -14.9429 8.20696 107 252 190
30.9747 15.046 8.20696 107 252 190
24.0216 -14.9429 1.64746 186 183 181
26.8487 -14.9429 4.37756 186 183 181
24.0216 15.046 1.64746 186 183 181
26.8487 15.046 4.37756 186 183 181
22.8766 15.046 8.28093 186 183 181
16.2432 15.046 1.64746 186 183 181
16.2432 -14.9429 1.64746 186 183 181
22.8766 -14.9429 8.28093 186 183 181
16.2432 -14.9429 1.64746 245 167 226
26.8887 -14.9429 12.293 245 167 226
16.2432 15.046 1.64746 245 167 226
26.8887 15.046 12.293 245 167 226
25.3616 15.046 13.8201 245 167 226
13.1808 15.046 1.64746 245 167 226
20.3462 -14.9429 18.8354 245 167 226
3.14664 -14.9429 1.64746 245 167 226
25.3616 15.046 13.8201 181 246 183
13.1808 15.046 1.64746 181 246 183
-3.56559 15.046 1.64746 181 246 183
17.0978 15.046 22.0839 181 246 183
14.7686 14.3459 24.4131 181 246 183
-8.31125 14.3368 1.64746 181 246 183
8.84814 2.09709 1.64746 181 246 183
23.2149 2.20997 15.9668 181 246 183
8.84814 2.09709 1.64746 212 175 221
9.94936 2.10574 2.74504 212 175 221
1.43418 14.3406 11.2602 212 175 221
-8.31125 14.3368 1.64746 212 175 221
-8.55653 14.3001 1.64746 212 175 221
1.29276 14.2981 11.4016 212 175 221
-1.31504 -2.84505 14.0094 212 175 221
-13.741 -2.65765 1.64746 212 175 221
4.02895 -12.306 1.64746 212 175 221
7.53281 -12.3438 5.16159 212 175 221
21.4342 -8.43767 17.7475 242 140 101
20.757 -12.4865 18.4246 242 140 101
15.3973 -6.73248 23.7843 242 140 101
2.38353 -6.81569 10.3109 242 140 101
8.18335 -8.45393 4.51105 242 140 101
7.53281 -12.3438 5.16159 242 140 101
23.2149 2.20997 15.9668 128 204 150
22.3425 3.46342 16.8391 128 204 150
22.8659 0.122975 16.3158 128 204 150
9.57742 -0.11824 3.11698 128 204 150
9.01974 3.44146 3.67466 128 204 150
9.94936 2.10574 2.74504 128 204 150
12.4018 -0.159546 26.7799 174 109 241
11.9628 -3.04529 27.2189 174 109 241
12.7883 -3.9315 26.3934 174 109 241
-0.365295 -3.86466 13.0597 174 109 241
-1.31504 -2.84505 14.0094 174 109 241
-0.809988 0.475061 13.5044 174 109 241
13.6091 -4.81275 25.5725 150 217 220
12.6064 -2.15678 26.5752 150 217 220
12.7883 -3.9315 26.3934 150 217 220
-0.365295 -3.86466 13.0597 150 217 220
0.306398 -4.58576 12.388 150 217 220
-0.514105 -2.41244 13.2085 150 217 220
16.4616 7.2834 22.7201 138 127 102
18.5561 8.90394 20.6256 138 127 102
14.7686 14.3459 24.4131 138 127 102
14.6007 14.2955 24.581 138 127 102
13.5104 7.12868 25.6712 138 127 102
0.024091 5.95813 12.6703 138 127 102
1.29276 14.2981 11.4016 138 127 102
1.43418 14.3406 11.2602 138 127 102
1.50262 6.03565 11.1918 138 127 102
5.21509 8.9081 7.47931 138 127 102
19.5705 7.4464 19.6112 183 254 216
17.626 7.34445 21.5557 183 254 216
12.9612 6.85595 12.2795 183 254 216
16.7492 7.5059 22.4325 183 254 216
18.5561 8.90394 20.6256 183 254 216
5.21509 8.9081 7.47931 183 254 216
3.29582 7.4231 9.39858 183 254 216
6.68268 6.79943 6.01173 183 254 216
17.1311 7.29263 20.5717 101 192 230
17.626 7.34445 21.5557 101 192 230
16.4616 7.2834 22.7201 101 192 230
16.7492 7.5059 22.4325 101 192 230
13.6739 7.05087 20.5717 101 192 230
2.94946 7.15511 9.74495 101 192 230
3.94587 7.3034 8.74853 101 192 230
3.29582 7.4231 9.39858 101 192 230
13.1434 4.71603 26.0382 243 193 139
16.4616 7.2834 22.7201 243 193 139
13.5104 7.12868 25.6712 243 193 139
0.024091 5.95813 12.6703 243 193 139
-0.159779 4.7494 12.8542 243 193 139
1.50262 6.03565 11.1918 243 193 139
20.4551 6.17533 18.7266 101 180 111
19.5705 7.4464 19.6112 101 180 111
18.3897 7.38449 20.7919 101 180 111
7.92944 6.40642 6.69766 101 180 111
21.4342 -8.43767 17.7475 164 154 144
5.28641 -7.63565 7.40799 164 154 144
6.05209 -6.76637 6.64231 164 154 144
19.0043 -7.75133 20.1773 164 154 144
19.9247 -6.70645 19.257 164 154 144
8.60557 -5.92931 4.08883 164 154 144
8.18335 -8.45393 4.51105 164 154 144
21.8281 -6.0825 17.3536 164 154 144
22.1453 -4.18534 17.0363 200 161 148
21.0352 -5.44574 18.1465 200 161 148
19.1897 -4.00476 14.0223 200 161 148
21.8281 -6.0825 17.3536 200 161 148
6.80814 -6.51853 5.88626 200 161 148
8.9499 -3.87045 3.7445 200 161 148
8.60557 -5.92931 4.08883 200 161 148
20.0483 -6.66595 19.1334 200 161 148
22.1453 -4.18534 17.0363 226 252 122
22.3383 -3.03167 16.8434 226 252 122
21.4493 -4.97561 17.7324 226 252 122
8.77783 -3.67183 3.91658 226 252 122
9.03123 -3.38414 3.66317 226 252 122
9.10147 -2.96415 3.59293 226 252 122
17.7866 -7.40735 21.3951 251 137 127
5.28641 -7.63565 7.40799 251 137 127
6.05209 -6.76637 6.64231 251 137 127
4.2733 -7.34948 8.42111 251 137 127
19.0043 -7.75133 20.1773 251 137 127
19.9247 -6.70645 19.257 251 137 127
17.7866 -7.40735 21.3951 120 206 245
18.047 -7.32199 21.1347 120 206 245
17.7064 -7.38471 21.4753 120 206 245
4.16334 -7.31842 8.53106 120 206 245
4.63042 -7.23241 8.06398 120 206 245
4.2733 -7.34948 8.42111 120 206 245
5.44336 3.12646 18.8942 198 218 172
12.932 3.32598 26.2497 198 218 172
12.9475 3.42812 26.2341 198 218 172
13.9166 5.31427 25.265 198 218 172
14.0665 5.43021 25.1152 198 218 172
1.02181 5.66363 11.6726 198 218 172
0.956581 5.61316 11.7378 198 218 172
0.185882 4.11316 12.5085 198 218 172
13.9166 5.31427 25.265 221 129 207
-0.159779 4.7494 12.8542 221 129 207
-0.442652 2.88985 13.1371 221 129 207
13.1434 4.71603 26.0382 221 129 207
12.9475 3.42812 26.2341 221 129 207
0.956581 5.61316 11.7378 221 129 207
20.757 -12.4865 18.4246 197 131 178
4.02895 -12.306 1.64746 197 131 178
-13.741 -2.65765 1.64746 197 131 178
11.9628 -3.04529 27.2189 197 131 178
3.14664 -14.9429 1.64746 197 131 178
20.3462 -14.9429 18.8354 197 131 178
12.1642 -12.8508 27.0175 197 131 178
-12.845 -13.1356 1.64746 197 131 178
-10.4927 -13.8999 1.64746 197 131 178
13.7593 -13.8979 25.4224 197 131 178
-16.3504 -11.1925 1.64746 197 131 178
10.7161 -11.2406 28.4655 197 131 178
16.2655 -14.9281 22.9162 197 131 178
-6.19121 -14.7751 1.64746 197 131 178
-5.28557 -14.9429 1.64746 197 131 178
16.3051 -14.9429 22.8766 197 131 178
-10.4927 -13.8999 1.64746 140 162 122
13.7593 -13.8979 25.4224 140 162 122
16.2655 -14.9281 22.9162 140 162 122
14.0895 -14.1147 25.0922 140 162 122
-9.93448 -14.0813 1.64746 140 162 122
-6.19121 -14.7751 1.64746 140 162 122
14.6007 14.2955 24.581 203 174 147
10.7161 -11.2406 28.4655 203 174 147
-16.3504 -11.1925 1.64746 203 174 147
-5.51387 7.36497 16.9659 203 174 147
-10.3954 9.14167 10.434 203 174 147
-8.55653 14.3001 1.64746 203 174 147
-10.2666 14.0445 1.64746 203 174 147
9.6064 9.83431 29.5753 203 174 147
8.40019 7.32368 30.7815 203 174 147
13.6165 13.9997 25.5651 203 174 147
-18.1563 -10.1915 1.64746 203 174 147
9.56927 -9.96536 29.6124 203 174 147
11.0203 11.8456 28.1613 203 174 147
-15.0151 12.0776 1.64746 203 174 147
-18.9827 9.24761 1.64746 203 174 147
-21.6061 6.28235 1.64746 203 174 147
7.64678 -5.5456 31.5349 203 174 147
-22.605 -5.07383 1.64746 203 174 147
-23.7397 -0.159051 1.64746 203 174 147
6.98141 0.24311 32.2003 203 174 147
7.32986 3.6734 31.8518 203 174 147
-22.8634 4.14794 1.64746 203 174 147
4 6 0 1 3 
6 11 7 5 3 1 13 
5 2 4 6 3 5 
4 9 2 5 7 
4 8 4 2 9 
4 12 10 11 13 
4 13 1 0 12 
6 12 0 6 4 8 10 
5 10 8 9 7 11 
5 29 20 19 21 27 
4 20 18 16 19 
6 25 21 19 16 17 22 
5 16 18 15 14 17 
4 22 17 14 23 
4 29 27 26 28 
5 28 15 18 20 29 
6 26 24 23 14 15 28 
4 25 22 23 24 
5 27 21 25 24 26 
4 32 31 30 33 
4 36 31 32 37 
4 35 30 31 36 
4 37 34 35 36 
4 34 33 30 35 
4 37 32 33 34 
5 47 41 40 42 45 
4 42 40 39 43 
4 41 38 39 40 
4 45 42 43 44 
4 47 45 44 46 
5 44 43 39 38 46 
4 46 38 41 47 
3 50 49 51 
4 53 50 51 52 
4 51 49 48 52 
3 52 48 53 
4 53 48 49 50 
4 58 54 55 57 
3 57 55 56 
4 56 55 54 59 
4 58 57 56 59 
3 59 54 58 
3 65 60 64 
4 64 60 61 62 
4 64 62 63 65 
4 63 61 60 65 
3 62 61 63 
4 73 71 70 72 
4 70 69 66 72 
4 72 66 67 73 
4 71 68 69 70 
4 73 67 68 71 
4 68 67 66 69 
3 78 77 79 
3 76 74 75 
4 77 76 75 79 
4 79 75 74 78 
4 78 74 76 77 
4 84 82 83 85 
3 82 81 83 
3 85 80 84 
4 83 81 80 85 
4 84 80 81 82 
3 91 89 90 
3 87 86 88 
4 89 88 86 90 
4 91 87 88 89 
4 90 86 87 91 
3 97 95 96 
3 93 92 94 
4 96 92 93 97 
4 95 94 92 96 
4 97 93 94 95 
4 103 100 99 104 
4 101 98 99 100 
4 102 101 100 103 
4 105 98 101 102 
4 105 102 103 104 
4 104 99 98 105 
4 115 107 108 114 
5 113 110 106 107 115 
4 114 112 113 115 
4 108 107 106 109 
5 114 108 109 111 112 
4 112 111 110 113 
4 111 109 106 110 
4 123 120 121 122 
4 122 117 116 123 
4 123 116 119 120 
4 119 116 117 118 
4 121 118 117 122 
4 120 119 118 121 
4 129 125 124 128 
4 132 131 130 133 
5 130 127 128 124 133 
4 133 124 125 132 
5 132 125 129 126 131 
4 131 126 127 130 
4 128 127 126 129 
4 136 135 134 139 
4 138 134 135 137 
4 138 137 136 139 
3 137 135 136 
3 139 134 138 
4 145 143 142 144 
3 144 140 145 
4 145 140 141 143 
4 142 141 140 144 
3 143 141 142 
4 149 148 146 151 
4 151 146 147 150 
3 150 149 151 
4 150 147 148 149 
3 147 146 148 
4 156 154 155 157 
4 155 153 152 157 
3 157 152 156 
4 156 152 153 154 
3 154 153 155 
3 163 161 162 
4 162 159 158 163 
4 163 158 160 161 
4 161 160 159 162 
3 160 158 159 
4 168 167 166 169 
4 168 164 165 167 
4 166 165 164 169 
3 169 164 168 
3 167 165 166 
5 177 170 172 173 179 
4 183 181 180 182 
5 181 178 177 179 180 
6 180 179 173 171 175 182 
4 175 171 174 176 
7 183 176 174 172 170 178 181 
3 178 170 177 
4 172 174 171 173 
4 182 175 176 183 
4 187 185 184 186 
4 194 192 193 195 
4 190 184 185 191 
6 194 186 184 190 189 192 
4 192 189 188 193 
6 193 188 191 185 187 195 
4 191 188 189 190 
4 195 187 186 194 
4 201 197 196 202 
5 203 199 200 201 202 
3 199 198 200 
4 200 198 197 201 
5 203 196 197 198 199 
3 202 196 203 
4 210 205 206 209 
4 206 205 204 207 
4 209 206 207 208 
4 210 209 208 211 
4 211 204 205 210 
4 208 207 204 211 
4 214 213 212 216 
4 217 212 213 215 
4 217 215 214 216 
3 215 213 214 
3 216 212 217 
4 226 220 218 227 
4 221 219 218 220 
5 225 222 221 220 226 
4 227 224 225 226 
5 227 218 219 223 224 
4 223 219 221 222 
4 224 223 222 225 
4 232 228 229 231 
4 230 229 228 233 
3 231 229 230 
4 232 231 230 233 
3 233 228 232 
4 239 234 235 237 
4 239 237 236 238 
4 236 235 234 238 
3 237 235 236 
3 238 234 239 
4 245 243 242 244 
3 244 240 245 
4 242 241 240 244 
4 245 240 241 243 
3 243 241 242 
4 249 247 246 250 
4 251 248 249 250 
3 250 246 251 
3 248 247 249 
4 251 246 247 248 
4 254 252 253 255 
4 256 253 252 257 
5 261 255 253 256 259 
4 261 259 258 260 
5 258 257 252 254 260 
4 259 256 257 258 
4 260 254 255 261 
4 267 262 263 265 
4 267 265 264 266 
4 264 263 262 266 
3 265 263 264 
3 266 262 267 
4 272 268 269 270 
4 271 269 268 273 
3 270 269 271 
4 272 270 271 273 
3 273 268 272 
4 283 281 280 282 
4 277 275 276 278 
4 283 275 277 281 
4 278 276 274 279 
5 281 277 278 279 280 
4 280 279 274 282 
5 282 274 276 275 283 
4 287 285 284 286 
4 289 286 284 291 
4 290 285 287 288 
4 290 288 289 291 
4 288 287 286 289 
4 291 284 285 290 
4 294 293 292 296 
4 297 295 294 296 
3 296 292 297 
4 297 292 293 295 
3 295 293 294 
4 302 298 299 301 
4 302 301 300 303 
4 300 299 298 303 
3 301 299 300 
3 303 298 302 
4 307 305 304 309 
4 308 304 305 306 
4 308 306 307 309 
3 309 304 308 
3 306 305 307 
4 315 313 312 314 
3 314 310 315 
4 315 310 311 313 
3 313 311 312 
4 312 311 310 314 
4 324 317 319 325 
4 319 317 316 318 
5 325 319 318 321 322 
4 325 322 323 324 
4 321 318 316 320 
4 322 321 320 323 
5 323 320 316 317 324 
4 333 327 329 330 
4 329 327 326 328 
4 333 330 331 332 
4 330 329 328 331 
4 332 326 327 333 
4 331 328 326 332 
4 340 335 337 338 
4 337 335 334 336 
4 338 337 336 339 
4 340 338 339 341 
4 339 336 334 341 
4 341 334 335 340 
4 349 342 345 346 
4 348 343 342 349 
4 345 342 343 344 
4 349 346 347 348 
4 347 344 343 348 
4 346 345 344 347 
5 359 351 352 355 356 
4 359 356 357 358 
4 358 350 351 359 
4 352 351 350 353 
4 355 352 353 354 
5 357 354 353 350 358 
4 356 355 354 357 
3 361 360 362 
4 364 360 361 365 
3 365 363 364 
4 363 362 360 364 
4 365 361 362 363 
3 368 366 367 
4 371 366 368 369 
4 370 367 366 371 
3 371 369 370 
4 369 368 367 370 
3 374 372 373 
4 377 372 374 375 
3 377 375 376 
4 375 374 373 376 
4 376 373 372 377 
3 380 378 379 
3 382 381 383 
4 381 380 379 383 
4 383 379 378 382 
4 382 378 380 381 
5 388 384 385 386 387 
4 391 386 385 393 
4 392 384 388 389 
4 393 385 384 392 
5 392 389 390 391 393 
4 389 388 387 390 
4 390 387 386 391 
4 397 395 394 398 
5 399 398 394 396 401 
3 396 394 395 
3 400 399 401 
5 401 396 395 397 400 
4 400 397 398 399 
3 404 403 405 
3 408 407 409 
4 406 402 403 404 
5 409 405 403 402 408 
4 408 402 406 407 
5 407 406 404 405 409 
3 412 410 411 
3 414 413 415 
4 413 412 411 415 
4 414 410 412 413 
4 415 411 410 414 
3 418 416 417 
3 418 417 419 
3 419 416 418 
3 417 416 419 
4 425 427 420 426 
4 424 423 420 427 
4 421 426 420 423 
4 426 421 422 425 
4 425 422 424 427 
4 424 422 421 423 
4 431 428 429 435 
5 433 430 428 431 434 
3 429 428 430 
5 432 435 429 430 433 
3 434 432 433 
4 434 431 435 432 
3 438 436 437 
4 441 437 436 440 
3 440 439 441 
4 439 438 437 441 
4 440 436 438 439 
3 447 442 446 
4 445 442 447 444 
4 443 446 442 445 
3 444 443 445 
4 446 443 444 447 
3 450 448 449 
3 453 451 452 
4 451 450 449 452 
4 453 448 450 451 
4 452 449 448 453 
4 457 456 455 458 
3 460 459 461 
4 460 457 458 459 
3 456 454 455 
5 459 458 455 454 461 
5 461 454 456 457 460 
4 464 467 462 466 
4 465 462 467 463 
3 464 463 467 
4 465 463 464 466 
3 466 462 465 
8 483 473 468 471 479 474 477 480 
4 472 469 468 473 
4 471 468 469 470 
4 483 480 481 482 
8 481 476 475 478 470 469 472 482 
4 482 472 473 483 
4 477 474 475 476 
4 478 475 474 479 
4 480 477 476 481 
4 479 471 470 478 
3 486 485 487 
4 489 484 485 486 
4 489 486 487 488 
3 488 484 489 
4 487 485 484 488 
10 509 506 501 491 490 499 502 497 498 510 
4 495 490 491 492 
4 511 508 509 510 
10 511 505 504 503 496 495 492 500 507 508 
5 504 494 497 502 503 
4 500 492 491 501 
4 499 490 495 496 
4 497 494 493 498 
5 510 498 493 505 511 
4 508 507 506 509 
4 502 499 496 503 
4 505 493 494 504 
4 507 500 501 506 
