ply
format ascii 1.0
comment : in_cells:66
element vertex 526
property float x
property float y
property float z
property uchar red
property uchar green
property uchar blue
element face 395
property list uchar int vertex_indices
end_header
22.6158 -2.01608 16.5711 157 226 155
7.69628 -2.01584 1.64893 157 226 155
-1.61303 -14.9491 1.64804 157 226 155
6.13986 -14.9503 1.64882 157 226 155
17.9607 -14.9494 21.2252 157 226 155
21.8374 -14.9505 17.3491 157 226 155
16.9248 7.23757 22.2612 190 123 235
-3.68508 7.2379 1.64775 190 123 235
7.32835 3.48346 31.8559 190 123 235
-22.8764 3.48395 1.64583 190 123 235
-22.3266 5.13942 1.64588 190 123 235
7.60329 5.13893 31.5811 190 123 235
8.35958 7.2401 30.8249 190 123 235
-20.8142 7.24058 1.64603 190 123 235
9.11098 9.74089 1.64902 165 116 199
9.74933 15.0459 1.64907 165 116 199
23.6426 15.0457 15.5448 165 116 199
23.3233 9.74066 15.8639 165 116 199
8.57711 7.84447 30.6075 165 116 199
-20.3792 7.84494 1.64607 165 116 199
19.1847 15.0471 20.0018 165 116 199
0.112573 15.0476 1.6481 165 116 199
-9.22408 14.2273 1.64716 165 116 199
14.1369 14.2148 25.0488 165 116 199
12.0193 12.8068 27.166 165 116 199
-13.4955 12.8072 1.64674 165 116 199
-17.6548 10.4614 1.64633 165 116 199
9.93942 10.4609 29.2454 165 116 199
16.3022 14.9007 22.8838 165 116 199
-4.81651 14.9249 1.6476 165 116 199
-20.8142 7.24058 1.64603 165 116 199
8.35958 7.2401 30.8249 165 116 199
-3.68508 7.2379 1.64775 165 116 199
16.9248 7.23757 22.2612 165 116 199
-10.8969 5.82723 1.64703 211 254 180
13.3186 5.82683 25.8668 211 254 180
-22.8764 3.48395 1.64583 211 254 180
7.32835 3.48346 31.8559 211 254 180
-16.5339 -11.1459 1.64653 211 254 180
10.4997 -11.1463 28.6849 211 254 180
10.3988 -11.0412 28.7858 211 254 180
-16.7357 -11.0408 1.64651 211 254 180
-19.6562 -8.68287 1.6462 211 254 180
8.93846 -8.68334 30.2459 211 254 180
7.77512 -5.72579 31.4091 211 254 180
-21.9828 -5.7253 1.64596 211 254 180
-23.4214 -2.09926 1.6458 211 254 180
7.05577 -2.09976 32.1284 211 254 180
-23.422 1.84115 1.64579 211 254 180
7.05552 1.84065 32.1287 211 254 180
-9.41261 6.11756 1.64718 253 134 149
14.0608 6.11718 25.1247 253 134 149
12.7723 2.53734 26.4129 253 134 149
13.3186 5.82683 25.8668 253 134 149
-11.9894 2.53774 1.64693 253 134 149
-10.8969 5.82723 1.64703 253 134 149
-12.6946 0.414227 1.64687 203 138 205
12.4196 0.413815 26.7655 203 138 205
13.6494 -13.8595 25.5357 203 138 205
-10.2349 -13.8591 1.64717 203 138 205
-12.795 -13.0924 1.64691 203 138 205
12.3693 -13.0928 26.8156 203 138 205
-16.5339 -11.1459 1.64653 203 138 205
10.4997 -11.1463 28.6849 203 138 205
9.11098 9.74089 1.64902 199 190 236
10.0787 9.74088 2.61689 199 190 236
7.69628 -2.01584 1.64893 199 190 236
9.37115 -2.01587 3.32409 199 190 236
0.816142 6.11739 11.8777 199 190 236
-9.41261 6.11756 1.64718 199 190 236
-11.9894 2.53774 1.64693 199 190 236
-0.472365 2.53755 13.166 199 190 236
-0.825038 0.414032 13.5185 199 190 236
-12.6946 0.414227 1.64687 199 190 236
-8.69788 -14.3194 1.64733 199 190 236
1.17333 -14.3196 11.5203 199 190 236
0.404757 -13.8593 12.2887 199 190 236
-10.2349 -13.8591 1.64717 199 190 236
3.31466 -14.9487 9.3793 199 190 236
-4.41552 -14.9486 1.64776 199 190 236
-1.61303 -14.9491 1.64804 199 190 236
4.71601 -14.9492 7.9782 199 190 236
1.17333 -14.3196 11.5203 168 229 218
14.418 -14.3198 24.7672 168 229 218
12.6507 -2.26836 26.5344 168 229 218
13.6494 -13.8595 25.5357 168 229 218
0.404757 -13.8593 12.2887 168 229 218
-0.593941 -2.26815 13.2874 168 229 218
4.39405 -14.9491 8.30011 168 229 218
17.6387 -14.9493 21.5471 168 229 218
3.31466 -14.9487 9.3793 168 229 218
16.5593 -14.949 22.6263 168 229 218
21.166 8.89671 18.0208 209 206 161
23.3233 9.74066 15.8639 209 206 161
22.7822 0.749574 16.4047 209 206 161
9.53759 0.749789 3.15773 209 206 161
10.0787 9.74088 2.61689 209 206 161
7.92133 8.89693 4.77383 209 206 161
15.236 6.57693 23.9497 225 246 122
13.5361 4.65957 25.6492 225 246 122
14.0608 6.11718 25.1247 225 246 122
0.816142 6.11739 11.8777 225 246 122
0.291497 4.65978 12.4023 225 246 122
1.99138 6.57715 10.7027 225 246 122
15.2802 -6.53766 23.9053 111 220 174
19.4323 -10.8607 19.7538 111 220 174
6.18768 -10.8604 6.50685 111 220 174
14.1235 -6.01257 25.0618 111 220 174
0.878828 -6.01236 11.8149 111 220 174
2.03559 -6.53744 10.6583 111 220 174
4.39405 -14.9491 8.30011 111 220 174
17.6387 -14.9493 21.5471 111 220 174
17.9607 -14.9494 21.2252 111 220 174
4.71601 -14.9492 7.9782 111 220 174
15.2802 -6.53766 23.9053 204 238 228
13.671 -4.86214 25.5143 204 238 228
14.1235 -6.01257 25.0618 204 238 228
0.878828 -6.01236 11.8149 204 238 228
2.03559 -6.53744 10.6583 204 238 228
0.42631 -4.86192 12.2673 204 238 228
20.1867 -8.76484 18.9996 108 112 226
15.2802 -6.53766 23.9053 108 112 226
19.4323 -10.8607 19.7538 108 112 226
6.18768 -10.8604 6.50685 108 112 226
2.03559 -6.53744 10.6583 108 112 226
6.94204 -8.76462 5.75266 108 112 226
21.0142 5.46376 18.1725 250 229 124
19.3323 8.17939 19.8541 250 229 124
18.659 7.91597 20.5274 250 229 124
5.41431 7.91619 7.2804 250 229 124
6.08768 8.17961 6.60716 250 229 124
7.76957 5.46397 4.92551 250 229 124
18.659 7.91597 20.5274 137 180 169
17.748 7.55959 21.4382 137 180 169
19.97 6.55094 19.2165 137 180 169
6.72537 6.55116 5.96955 137 180 169
5.41431 7.91619 7.2804 137 180 169
4.50332 7.55981 8.19122 137 180 169
4.50332 7.55981 8.19122 168 144 126
17.748 7.55959 21.4382 168 144 126
16.9248 7.23757 22.2612 168 144 126
18.4584 7.23711 20.7279 168 144 126
5.21375 7.23733 7.48091 168 144 126
3.68014 7.23778 9.01426 168 144 126
17.4896 -7.54054 21.6963 197 208 147
18.2737 -7.23379 20.9123 197 208 147
16.8129 -7.23336 22.3729 197 208 147
3.56821 -7.23314 9.12593 197 208 147
5.02906 -7.23358 7.66533 197 208 147
4.24493 -7.54033 8.44932 197 208 147
21.6663 -4.65419 17.5204 107 245 249
21.1416 -6.11189 18.045 107 245 249
19.9663 -6.57166 19.2201 107 245 249
6.72162 -6.57145 5.97308 107 245 249
7.89693 -6.11167 4.79799 107 245 249
8.4216 -4.65398 4.27343 107 245 249
20.7375 -7.23452 18.449 142 133 163
18.2737 -7.23379 20.9123 142 133 163
20.1867 -8.76484 18.9996 142 133 163
17.4896 -7.54054 21.6963 142 133 163
4.24493 -7.54033 8.44932 142 133 163
6.94204 -8.76462 5.75266 142 133 163
7.49286 -7.23431 5.20197 142 133 163
5.02906 -7.23358 7.66533 142 133 163
6.72162 -6.57145 5.97308 225 224 124
19.9663 -6.57166 19.2201 225 224 124
18.2737 -7.23379 20.9123 225 224 124
19.379 -7.23412 19.8073 225 224 124
6.13431 -7.2339 6.56028 225 224 124
5.02906 -7.23358 7.66533 225 224 124
6.72162 -6.57145 5.97308 207 202 145
7.89693 -6.11167 4.79799 207 202 145
19.9663 -6.57166 19.2201 207 202 145
21.1416 -6.11189 18.045 207 202 145
20.7375 -7.23452 18.449 207 202 145
19.379 -7.23412 19.8073 207 202 145
6.13431 -7.2339 6.56028 207 202 145
7.49286 -7.23431 5.20197 207 202 145
22.0638 4.37096 17.1231 141 138 121
22.2395 3.4854 16.9474 141 138 121
21.0142 5.46376 18.1725 141 138 121
7.76957 5.46397 4.92551 141 138 121
8.81916 4.37118 3.87609 141 138 121
8.99484 3.48562 3.70042 141 138 121
21.166 8.89671 18.0208 121 135 201
22.0638 4.37096 17.1231 121 135 201
19.3323 8.17939 19.8541 121 135 201
21.0142 5.46376 18.1725 121 135 201
7.76957 5.46397 4.92551 121 135 201
6.08768 8.17961 6.60716 121 135 201
7.92133 8.89693 4.77383 121 135 201
8.81916 4.37118 3.87609 121 135 201
37.4843 15.0411 1.65185 167 234 111
37.4843 15.0411 1.70549 167 234 111
24.1636 15.0434 1.65051 167 234 111
30.393 15.0433 7.88103 167 234 111
31.0832 15.0432 8.10545 167 234 111
31.0787 -14.9533 8.1095 167 234 111
30.4077 -14.9532 7.89134 167 234 111
24.1681 -14.9531 1.65063 167 234 111
37.4843 -14.9552 1.705 167 234 111
37.4843 -14.9552 1.65197 167 234 111
26.8534 15.0433 4.34076 126 210 181
24.1636 15.0434 1.65051 126 210 181
9.74933 15.0459 1.64907 126 210 181
19.6457 15.0457 11.5472 126 210 181
17.8405 -14.9505 13.3515 126 210 181
6.13986 -14.9503 1.64882 126 210 181
24.1681 -14.9531 1.65063 126 210 181
26.8553 -14.9531 4.33831 126 210 181
22.8936 15.0446 8.2998 102 191 136
19.6457 15.0457 11.5472 102 191 136
26.8905 15.0446 12.2974 102 191 136
23.6426 15.0457 15.5448 102 191 136
21.8374 -14.9505 17.3491 102 191 136
26.8925 -14.952 12.2949 102 191 136
17.8405 -14.9505 13.3515 102 191 136
22.8956 -14.952 8.29734 102 191 136
-35.2658 -20.1327 -7.65438 166 212 125
-20.1306 17.9535 -7.65256 166 212 125
-20.1302 17.9535 1.64605 166 212 125
-36.1346 -19.3585 -7.65446 166 212 125
-36.1342 -19.3585 1.64459 166 212 125
-35.2654 -20.1328 1.64468 166 212 125
-37.4892 -15.4038 1.64444 166 212 125
-37.4883 -15.4076 -7.65457 166 212 125
-37.4883 -7.34116 -7.6545 166 212 125
-37.4892 -7.34317 1.64441 166 212 125
-20.1306 17.9535 -7.65256 105 164 134
-17.9478 23.4462 -7.6523 105 164 134
-21.5224 15.9253 -7.65272 105 164 134
-33.8493 21.4263 -7.65391 105 164 134
-29.5421 23.448 -7.65346 105 164 134
-32.379 22.4222 -7.65376 105 164 134
-32.3786 22.4221 1.64481 105 164 134
-29.5379 23.4493 1.64509 105 164 134
-33.8489 21.4263 1.64466 105 164 134
-21.522 15.9252 1.64592 105 164 134
-17.9469 23.4475 1.64625 105 164 134
-20.1302 17.9535 1.64605 105 164 134
-30.5043 19.9337 1.645 227 165 206
-30.5047 19.9338 -7.65359 227 165 206
-33.8493 21.4263 -7.65391 227 165 206
-34.7705 20.8023 -7.65401 227 165 206
-33.8489 21.4263 1.64466 227 165 206
-36.5784 18.1678 -7.65421 227 165 206
-36.578 18.1677 1.6444 227 165 206
-34.7701 20.8023 1.64457 227 165 206
-37.4892 15.3373 1.64432 227 165 206
-37.4883 15.3415 -7.65432 227 165 206
-37.4883 2.36024 -7.65443 227 165 206
-37.4892 2.35681 1.64437 227 165 206
-25.0699 10.755 1.64559 211 228 205
-25.0703 10.7551 -7.65311 211 228 205
-37.0828 3.38065 -7.65438 211 228 205
-37.0824 3.38057 1.64441 211 228 205
-37.4892 2.35681 1.64437 211 228 205
-37.4883 2.36024 -7.65443 211 228 205
-37.4892 -7.34317 1.64441 211 228 205
-37.4883 -7.34116 -7.6545 211 228 205
-37.0828 3.38065 -7.65438 173 207 203
-28.0747 8.91071 -7.65343 173 207 203
-33.5766 12.2037 -7.65396 173 207 203
-33.5762 12.2036 1.64473 173 207 203
-28.0743 8.91063 1.64529 173 207 203
-37.0824 3.38057 1.64441 173 207 203
-27.9359 18.7874 -7.65334 200 160 105
-30.5047 19.9338 -7.65359 200 160 105
-31.4678 17.5102 -7.6537 200 160 105
-31.4674 17.5102 1.64492 200 160 105
-30.5043 19.9337 1.645 200 160 105
-27.9355 18.7873 1.64527 200 160 105
-21.522 15.9252 1.64592 160 201 196
-21.5224 15.9253 -7.65272 160 201 196
-23.7096 12.738 -7.65296 160 201 196
-23.7096 16.9014 -7.65293 160 201 196
-23.7106 12.7359 1.64571 160 201 196
-23.7106 16.9019 1.6457 160 201 196
-23.7096 16.9014 -7.65293 118 167 230
-23.7096 15.3016 -7.65294 118 167 230
-25.0522 17.5005 -7.65306 118 167 230
-25.0518 17.5005 1.64556 118 167 230
-23.7106 16.9019 1.6457 118 167 230
-23.7106 15.3038 1.6457 118 167 230
-32.8115 14.1289 -7.65386 162 252 211
-33.5766 12.2037 -7.65396 162 252 211
-31.6544 11.0532 -7.65377 162 252 211
-31.654 11.0532 1.64492 162 252 211
-33.5762 12.2036 1.64473 162 252 211
-32.8111 14.1288 1.6448 162 252 211
-26.8274 9.67643 -7.6533 145 188 214
-29.3547 9.67682 -7.65355 145 188 214
-28.0747 8.91071 -7.65343 145 188 214
-28.0743 8.91063 1.64529 145 188 214
-29.3566 9.67812 1.64516 145 188 214
-26.8247 9.67773 1.64541 145 188 214
-33.1526 -22.0158 -7.65419 198 135 191
-30.6829 -23.1179 -7.65395 198 135 191
-34.0338 -17.0326 -7.65423 198 135 191
-35.2658 -20.1327 -7.65438 198 135 191
-28.465 -23.439 -7.65373 198 135 191
-10.1446 -23.4419 -7.65189 198 135 191
-10.1493 -23.4406 1.64722 198 135 191
-28.4741 -23.4377 1.64538 198 135 191
-35.2654 -20.1328 1.64468 198 135 191
-34.0334 -17.0327 1.64479 198 135 191
-33.1522 -22.0158 1.6449 198 135 191
-30.6825 -23.118 1.64515 198 135 191
24.5842 23.4396 -7.64803 124 209 222
-17.9478 23.4462 -7.6523 124 209 222
-31.6756 -11.0982 -7.65395 124 209 222
-31.6752 -11.0983 1.64501 124 209 222
-17.9469 23.4475 1.64625 124 209 222
24.5868 23.4409 1.65052 124 209 222
37.4852 23.4376 -7.64673 239 135 170
24.5842 23.4396 -7.64803 239 135 170
-20.998 -20.53 -7.65295 239 135 170
-10.1446 -23.4419 -7.65189 239 135 170
-25.8838 -7.5427 -7.65334 239 135 170
37.4852 -23.4493 -7.6471 239 135 170
37.4843 -23.448 1.652 239 135 170
-25.8834 -7.54277 1.64557 239 135 170
-10.1493 -23.4406 1.64722 239 135 170
-20.9976 -20.5301 1.64611 239 135 170
37.4843 23.4389 1.65182 239 135 170
24.5868 23.4409 1.65052 239 135 170
-25.8838 -7.5427 -7.65334 132 227 199
-25.088 -9.65801 -7.65328 132 227 199
-29.3284 -9.65735 -7.6537 132 227 199
-29.3258 -9.65604 1.64524 132 227 199
-25.8834 -7.54277 1.64557 132 227 199
-25.0882 -9.65671 1.64566 132 227 199
-34.0338 -17.0326 -7.65423 160 131 148
-32.9866 -14.3973 -7.65411 160 131 148
-30.8963 -17.8743 -7.65393 160 131 148
-30.8959 -17.8744 1.64511 160 131 148
-32.9862 -14.3974 1.64489 160 131 148
-34.0334 -17.0327 1.64479 160 131 148
-22.4434 -16.6878 -7.65307 122 181 136
-20.998 -20.53 -7.65295 122 181 136
-27.9274 -18.6709 -7.65363 122 181 136
-27.927 -18.671 1.64541 122 181 136
-20.9976 -20.5301 1.64611 122 181 136
-22.443 -16.6879 1.64595 122 181 136
-22.4434 -16.6878 -7.65307 132 124 112
-23.0841 -14.9848 -7.65312 132 124 112
-25.5534 -17.8125 -7.65339 132 124 112
-25.553 -17.8125 1.64565 132 124 112
-22.443 -16.6879 1.64595 132 124 112
-23.0837 -14.9849 1.64588 132 124 112
-25.088 -9.65801 -7.65328 159 229 153
-24.5148 -11.1816 -7.65323 159 229 153
-26.8069 -9.65774 -7.65345 159 229 153
-26.8086 -9.65644 1.64549 159 229 153
-24.5144 -11.1817 1.64573 159 229 153
-25.0882 -9.65671 1.64566 159 229 153
-24.021 -16.0577 -7.65322 218 146 238
-23.5708 -13.691 -7.65316 218 146 238
-23.0841 -14.9848 -7.65312 218 146 238
-23.0837 -14.9849 1.64588 218 146 238
-23.5704 -13.691 1.64583 218 146 238
-24.0206 -16.0578 1.64579 218 146 238
37.487 -22.9373 -25.471 165 127 248
37.4852 -5.4503 -7.64696 165 127 248
37.4852 -23.4493 -7.6471 165 127 248
37.4868 -23.4516 -23.8124 165 127 248
28.0937 -23.4501 -23.8181 165 127 248
28.0921 -23.4479 -7.64805 165 127 248
28.0939 -22.9373 -25.472 165 127 248
28.0921 -5.4503 -7.6479 165 127 248
37.4874 -20.5516 -29.4559 174 158 112
37.4865 -17.9793 -20.4174 174 158 112
37.4871 -22.5409 -26.7493 174 158 112
37.4874 -20.8362 -29.2519 174 158 112
37.487 -22.9373 -25.471 174 158 112
28.0939 -22.9373 -25.472 174 158 112
28.0943 -20.8362 -29.2528 174 158 112
28.094 -22.5409 -26.7502 174 158 112
28.0943 -20.5516 -29.4568 174 158 112
28.0934 -17.9793 -20.4184 174 158 112
37.138 -12.1408 -32.0438 200 254 100
37.4852 -5.19758 -7.64696 200 254 100
37.4876 -11.9977 -31.541 200 254 100
37.4856 23.437 -11.7495 200 254 100
37.1437 -9.45308 -32.0437 200 254 100
37.4852 23.4376 -7.64673 200 254 100
37.4876 -8.65484 -31.5512 200 254 100
28.0921 23.439 -7.64767 200 254 100
28.0945 -9.45309 -32.0446 200 254 100
28.0925 23.4385 -11.7495 200 254 100
28.0921 -5.19758 -7.6479 200 254 100
28.0945 -12.1408 -32.0447 200 254 100
37.4852 -5.19758 -7.64696 225 242 242
37.4852 -5.4503 -7.64696 225 242 242
37.4867 -9.46975 -22.6583 225 242 242
37.4859 -12.0413 -14.365 225 242 242
28.0928 -12.0413 -14.366 225 242 242
28.0936 -9.46975 -22.6593 225 242 242
28.0921 -5.4503 -7.6479 225 242 242
28.0921 -5.19758 -7.6479 225 242 242
37.487 -19.3695 -25.3025 245 254 176
37.4873 -11.1265 -28.48 245 254 176
37.4874 -20.5516 -29.4559 245 254 176
37.4876 -16.9768 -31.526 245 254 176
37.138 -12.1408 -32.0438 245 254 176
37.1306 -15.6334 -32.0439 245 254 176
37.4876 -18.463 -30.9531 245 254 176
37.4876 -11.9977 -31.541 245 254 176
28.0944 -18.463 -30.954 245 254 176
28.0945 -15.6334 -32.0448 245 254 176
28.0945 -12.1408 -32.0447 245 254 176
28.0943 -20.5516 -29.4568 245 254 176
28.0942 -11.1265 -28.4809 245 254 176
28.0939 -19.3695 -25.3034 245 254 176
37.4871 -17.2679 -26.1126 212 204 113
37.487 -19.3695 -25.3025 212 204 113
37.4868 -18.721 -23.0238 212 204 113
28.0936 -18.721 -23.0247 212 204 113
28.0939 -17.2679 -26.1136 212 204 113
28.0939 -19.3695 -25.3034 212 204 113
37.4872 -12.9107 -27.7922 116 106 147
37.487 -10.1218 -24.9496 116 106 147
37.4873 -11.1265 -28.48 116 106 147
28.0942 -11.1265 -28.4809 116 106 147
28.0938 -10.1218 -24.9506 116 106 147
28.0941 -12.9107 -27.7932 116 106 147
37.4872 -12.9107 -27.7922 191 180 129
37.4871 -11.7933 -26.6533 191 180 129
37.4872 -14.2259 -27.2852 191 180 129
28.0941 -14.2259 -27.2862 191 180 129
28.0941 -12.9107 -27.7932 191 180 129
28.094 -11.7933 -26.6542 191 180 129
37.4865 -10.2924 -20.0054 186 153 177
37.4862 -14.568 -16.9404 186 153 177
37.4859 -12.0413 -14.365 186 153 177
28.0928 -12.0413 -14.366 186 153 177
28.093 -14.568 -16.9413 186 153 177
28.0933 -10.2924 -20.0063 186 153 177
37.4863 -12.8404 -18.1788 171 131 165
37.4862 -14.568 -16.9404 171 131 165
37.4863 -16.043 -18.4438 171 131 165
28.0932 -16.043 -18.4447 171 131 165
28.093 -14.568 -16.9413 171 131 165
28.0931 -12.8404 -18.1797 171 131 165
37.4863 23.4361 -18.5021 154 128 162
37.4856 23.437 -11.7495 154 128 162
37.4863 12.9292 -18.2331 154 128 162
28.0931 12.9292 -18.2341 154 128 162
28.0925 23.4385 -11.7495 154 128 162
28.0932 23.4375 -18.5031 154 128 162
37.4875 -7.42591 -30.7929 197 210 237
37.4866 7.84697 -21.369 197 210 237
37.4872 12.0204 -27.4956 197 210 237
28.0941 12.0204 -27.4966 197 210 237
28.0935 7.84696 -21.37 197 210 237
28.0944 -7.42592 -30.7938 197 210 237
37.4869 23.4352 -24.3637 167 225 245
37.487 22.898 -25.6512 167 225 245
37.4871 19.7381 -26.187 167 225 245
37.4863 23.4361 -18.5021 167 225 245
37.4863 17.3066 -18.3452 167 225 245
28.0932 17.3066 -18.3461 167 225 245
28.0932 23.4375 -18.5031 167 225 245
28.0939 19.7381 -26.1879 167 225 245
28.0939 22.898 -25.6522 167 225 245
28.0938 23.4367 -24.3611 167 225 245
37.4869 9.66408 -24.0366 170 158 107
37.4865 9.66461 -20.2475 170 158 107
37.4866 7.84697 -21.369 170 158 107
28.0935 7.84696 -21.37 170 158 107
28.0934 9.66608 -20.2475 170 158 107
28.0937 9.66555 -24.0397 170 158 107
37.4865 17.8169 -19.9908 194 157 213
37.4863 15.4551 -18.2978 194 157 213
37.4863 17.3066 -18.3452 194 157 213
28.0932 17.3066 -18.3461 194 157 213
28.0932 15.4551 -18.2987 194 157 213
28.0933 17.8169 -19.9918 194 157 213
37.4864 10.5173 -19.7213 127 125 200
37.4866 9.6644 -21.7656 127 125 200
37.4865 9.66461 -20.2475 127 125 200
28.0934 9.66608 -20.2475 127 125 200
28.0933 10.5173 -19.7223 127 125 200
28.0935 9.66586 -21.763 127 125 200
37.4872 12.0204 -27.4956 154 137 158
37.4871 11.1944 -26.2831 154 137 158
37.4872 13.6312 -27.2225 154 137 158
28.0941 13.6312 -27.2234 154 137 158
28.094 11.1944 -26.2841 154 137 158
28.0941 12.0204 -27.4966 154 137 158
37.4867 18.6377 -22.6381 120 220 189
37.4871 19.7381 -26.187 120 220 189
37.4871 17.5207 -26.563 120 220 189
28.094 17.5207 -26.5639 120 220 189
28.0939 19.7381 -26.1879 120 220 189
28.0936 18.6377 -22.6391 120 220 189
37.487 17.9683 -24.9904 168 159 235
37.4871 17.5207 -26.563 168 159 235
37.4871 16.2069 -26.7857 168 159 235
28.094 16.2069 -26.7867 168 159 235
28.094 17.5207 -26.5639 168 159 235
28.0938 17.9683 -24.9914 168 159 235
28.4308 15.9351 -32.044 242 254 136
30.2565 -9.45309 -32.0444 242 254 136
28.6869 -7.42592 -30.7938 242 254 136
28.0944 -7.42592 -30.7938 242 254 136
28.0944 -5.18895 -30.4145 242 254 136
28.0945 -9.45309 -32.0446 242 254 136
28.0945 16.5018 -31.7845 242 254 136
28.0945 15.9351 -32.0441 242 254 136
37.4875 19.4484 -30.4335 132 130 199
37.4872 21.9789 -27.8542 132 130 199
37.4876 16.8406 -31.6283 132 130 199
37.1974 15.9351 -32.0432 132 130 199
37.1437 -9.45308 -32.0437 132 130 199
37.4876 -8.65484 -31.5512 132 130 199
37.4875 -7.42591 -30.7929 132 130 199
37.487 22.898 -25.6512 132 130 199
28.4308 15.9351 -32.044 132 130 199
28.6869 -7.42592 -30.7938 132 130 199
30.2565 -9.45309 -32.0444 132 130 199
28.0944 -5.18895 -30.4145 132 130 199
28.0945 16.5018 -31.7845 132 130 199
28.0939 22.898 -25.6522 132 130 199
28.0944 19.4484 -30.4344 132 130 199
28.0941 21.9789 -27.8551 132 130 199
3 2 1 3 
4 4 2 3 5 
3 5 0 4 
4 3 1 0 5 
4 4 0 1 2 
4 13 7 9 10 
4 12 6 7 13 
4 13 10 11 12 
4 11 8 6 12 
4 10 9 8 11 
4 9 7 6 8 
4 20 16 15 21 
10 30 19 26 25 22 29 21 15 14 32 
10 33 17 16 20 28 23 24 27 18 31 
4 17 14 15 16 
4 32 14 17 33 
4 33 31 30 32 
4 29 22 23 28 
4 31 18 19 30 
4 24 23 22 25 
4 27 24 25 26 
4 26 19 18 27 
4 28 20 21 29 
8 48 36 34 38 41 42 45 46 
8 47 44 43 40 39 35 37 49 
4 48 46 47 49 
4 46 45 44 47 
4 38 34 35 39 
4 45 42 43 44 
4 37 35 34 36 
4 49 37 36 48 
4 42 41 40 43 
4 41 38 39 40 
3 55 50 54 
3 52 51 53 
4 54 52 53 55 
4 54 50 51 52 
4 53 51 50 55 
4 62 56 59 60 
4 61 58 57 63 
4 59 56 57 58 
4 62 60 61 63 
4 60 59 58 61 
4 63 57 56 62 
9 79 74 77 73 70 69 64 66 80 
9 81 67 65 68 71 72 76 75 78 
4 81 78 79 80 
4 66 64 65 67 
4 80 66 67 81 
4 76 72 73 77 
4 68 65 64 69 
4 72 71 70 73 
4 71 68 69 70 
4 77 74 75 76 
4 78 75 74 79 
5 89 84 85 83 91 
4 90 88 89 91 
4 88 87 84 89 
5 90 82 86 87 88 
4 86 85 84 87 
4 91 83 82 90 
4 86 82 83 85 
3 93 92 94 
4 96 93 94 95 
3 96 95 97 
4 95 94 92 97 
4 97 92 93 96 
3 99 98 100 
3 102 101 103 
4 102 99 100 101 
4 103 98 99 102 
4 101 100 98 103 
5 112 105 104 107 111 
4 108 107 104 109 
4 109 104 105 106 
4 113 106 105 112 
4 112 111 110 113 
4 111 107 108 110 
5 110 108 109 106 113 
3 116 114 115 
4 119 115 114 118 
3 118 117 119 
4 117 116 115 119 
4 118 114 116 117 
3 122 120 121 
3 125 123 124 
4 123 122 121 124 
4 124 121 120 125 
4 125 120 122 123 
3 128 126 127 
3 131 129 130 
4 131 126 128 129 
4 130 127 126 131 
4 129 128 127 130 
3 134 132 133 
3 136 135 137 
4 135 134 133 137 
4 137 133 132 136 
4 136 132 134 135 
3 141 139 140 
4 142 141 140 143 
3 143 138 142 
4 140 139 138 143 
4 142 138 139 141 
4 147 146 145 148 
3 149 147 148 
3 146 144 145 
4 149 144 146 147 
4 148 145 144 149 
3 154 153 155 
3 151 150 152 
4 153 152 150 155 
4 154 151 152 153 
4 155 150 151 154 
4 163 157 156 162 
4 158 156 157 159 
4 162 156 158 161 
4 162 161 160 163 
4 160 159 157 163 
4 161 158 159 160 
3 167 165 166 
4 168 164 165 167 
4 168 167 166 169 
3 169 164 168 
4 166 165 164 169 
4 174 173 172 175 
4 177 171 173 174 
4 177 174 175 176 
4 173 171 170 172 
4 175 172 170 176 
4 176 170 171 177 
3 179 178 180 
4 182 178 179 183 
4 181 180 178 182 
3 183 181 182 
4 183 179 180 181 
4 187 185 184 186 
4 190 184 185 191 
4 191 188 189 190 
4 189 186 184 190 
4 191 185 187 188 
4 188 187 186 189 
4 201 192 193 200 
5 196 193 192 194 195 
4 199 194 192 201 
4 200 193 196 197 
5 200 197 198 199 201 
4 198 195 194 199 
4 197 196 195 198 
4 209 206 207 208 
4 205 202 203 204 
4 207 204 203 208 
4 209 202 205 206 
4 208 203 202 209 
4 206 205 204 207 
4 217 215 214 216 
4 212 210 211 213 
4 215 212 213 214 
4 217 210 212 215 
4 216 211 210 217 
4 214 213 211 216 
4 226 225 224 227 
5 226 219 218 221 225 
4 223 218 219 220 
5 224 222 223 220 227 
4 222 221 218 223 
4 227 220 219 226 
4 225 221 222 224 
4 238 229 232 235 
6 232 229 228 230 231 233 
4 237 230 228 239 
4 239 228 229 238 
6 238 235 234 236 237 239 
4 234 233 231 236 
4 236 231 230 237 
4 235 232 233 234 
6 249 245 243 242 241 250 
4 244 240 241 242 
4 251 248 249 250 
4 250 241 240 251 
6 251 240 244 247 246 248 
4 244 242 243 247 
4 248 246 245 249 
4 247 243 245 246 
4 257 254 253 259 
4 258 256 257 259 
4 259 253 252 258 
4 258 252 255 256 
4 256 255 254 257 
4 255 252 253 254 
3 261 260 262 
4 265 260 261 264 
3 264 263 265 
4 264 261 262 263 
4 263 262 260 265 
3 267 266 268 
3 270 269 271 
4 271 266 267 270 
4 270 267 268 269 
4 269 268 266 271 
3 275 273 274 
4 277 275 274 276 
4 277 272 273 275 
4 274 273 272 276 
3 276 272 277 
4 283 279 278 282 
3 280 278 279 
3 282 281 283 
4 282 278 280 281 
4 281 280 279 283 
3 288 287 289 
3 285 284 286 
4 288 285 286 287 
4 287 286 284 289 
4 289 284 285 288 
3 294 293 295 
4 295 290 291 294 
3 291 290 292 
4 293 292 290 295 
4 294 291 292 293 
6 307 303 302 305 304 306 
4 303 300 301 302 
6 300 297 296 299 298 301 
4 302 301 298 305 
4 306 296 297 307 
4 305 298 299 304 
4 304 299 296 306 
4 307 297 300 303 
3 312 311 313 
4 313 308 309 312 
3 309 308 310 
4 311 310 308 313 
4 312 309 310 311 
4 320 319 314 324 
4 324 314 315 325 
6 318 315 314 319 317 316 
6 325 321 323 322 320 324 
4 322 317 319 320 
4 323 316 317 322 
4 321 318 316 323 
4 325 315 318 321 
3 328 326 327 
4 331 327 326 330 
3 330 329 331 
4 329 328 327 331 
4 330 326 328 329 
3 337 335 336 
3 334 332 333 
4 337 332 334 335 
4 335 334 333 336 
4 336 333 332 337 
3 343 341 342 
3 340 338 339 
4 342 339 338 343 
4 341 340 339 342 
4 343 338 340 341 
3 349 347 348 
3 345 344 346 
4 348 344 345 349 
4 347 346 344 348 
4 349 345 346 347 
4 355 350 352 353 
3 352 350 351 
4 354 351 350 355 
3 355 353 354 
4 353 352 351 354 
3 361 359 360 
3 358 356 357 
4 359 358 357 360 
4 360 357 356 361 
4 361 356 358 359 
4 365 362 363 364 
4 368 366 367 369 
4 366 365 364 367 
4 367 364 363 369 
4 368 362 365 366 
4 369 363 362 368 
5 373 370 371 374 372 
5 378 376 377 375 379 
4 375 374 371 379 
4 376 373 372 377 
4 377 372 374 375 
4 379 371 370 378 
4 378 370 373 376 
5 385 381 382 386 383 
4 387 385 383 389 
4 388 384 380 391 
5 390 387 389 388 391 
4 390 381 385 387 
4 386 382 380 384 
5 389 383 386 384 388 
5 391 380 382 381 390 
4 394 392 393 395 
4 399 397 396 398 
4 397 394 395 396 
4 399 392 394 397 
4 398 393 392 399 
4 396 395 393 398 
6 403 407 401 400 402 406 
4 410 404 405 409 
5 412 401 407 404 410 
5 409 405 403 406 408 
4 408 406 402 411 
4 404 407 403 405 
6 412 410 409 408 411 413 
4 411 402 400 413 
4 413 400 401 412 
3 415 414 416 
3 419 417 418 
4 418 414 415 419 
4 419 415 416 417 
4 417 416 414 418 
3 421 420 422 
4 424 421 422 423 
4 423 422 420 425 
3 424 423 425 
4 425 420 421 424 
3 428 426 427 
3 430 429 431 
4 430 426 428 429 
4 429 428 427 431 
4 431 427 426 430 
3 433 432 434 
3 436 435 437 
4 435 434 432 437 
4 436 433 434 435 
4 437 432 433 436 
3 440 438 439 
3 443 441 442 
4 443 438 440 441 
4 442 439 438 443 
4 441 440 439 442 
3 446 444 445 
4 448 445 444 449 
4 449 444 446 447 
3 449 447 448 
4 447 446 445 448 
3 451 450 452 
3 454 453 455 
4 453 452 450 455 
4 454 451 452 453 
4 455 450 451 454 
5 460 458 457 456 459 
4 462 459 456 465 
5 464 463 461 462 465 
4 463 458 460 461 
4 464 457 458 463 
4 465 456 457 464 
4 461 460 459 462 
3 468 466 467 
4 470 467 466 471 
4 471 466 468 469 
3 471 469 470 
4 469 468 467 470 
3 473 472 474 
3 476 475 477 
4 477 472 473 476 
4 476 473 474 475 
4 475 474 472 477 
3 479 478 480 
3 483 481 482 
4 483 479 480 481 
4 482 478 479 483 
4 481 480 478 482 
3 485 484 486 
4 489 484 485 488 
4 487 486 484 489 
3 488 487 489 
4 488 485 486 487 
3 491 490 492 
3 494 493 495 
4 495 490 491 494 
4 494 491 492 493 
4 493 492 490 495 
3 497 496 498 
3 500 499 501 
4 501 496 497 500 
4 499 498 496 501 
4 500 497 498 499 
5 509 507 505 506 508 
4 509 502 503 507 
4 507 503 504 505 
3 505 504 506 
5 506 504 503 502 508 
3 508 502 509 
6 516 515 512 510 511 517 
4 518 513 514 520 
4 525 511 510 524 
4 514 513 512 515 
6 524 510 512 513 518 522 
4 523 517 511 525 
5 524 522 521 523 525 
5 521 519 516 517 523 
5 520 514 515 516 519 
5 522 518 520 519 521 
