ply
format ascii 1.0
element vertex 904
property float x
property float y
property float z
element face 215
property list uchar int vertex_indices
property uchar red
property uchar green
property uchar blue
end_header
1.039983 0.821676 1.040000
0.422779 -0.621272 1.040000
1.039983 0.141472 0.355783
1.039983 0.141472 0.355783
1.039983 -0.142523 0.070113
0.922850 -0.003282 0.485634
1.039983 -1.039979 -0.832638
0.724540 -1.039979 -0.090820
1.039983 -0.547309 -0.337061
0.243682 -1.039979 1.040000
0.414627 -0.640330 1.040000
0.548856 -1.039979 0.322330
0.422812 -0.621231 1.039963
0.422779 -0.621272 1.040000
0.414627 -0.640330 1.040000
0.417200 -0.647991 1.026244
0.543205 -1.023153 0.352547
0.417200 -0.647991 1.026244
0.422812 -0.621231 1.039963
0.690199 -0.290792 0.743544
0.724540 -1.039979 -0.090820
0.548856 -1.039979 0.322330
0.543205 -1.023153 0.352547
0.545438 -1.012026 0.358487
0.815596 -0.897766 -0.161900
1.039983 -0.547309 -0.337061
0.815596 -0.897766 -0.161900
0.777384 -0.913927 -0.088296
1.039983 -0.151918 0.060662
0.777384 -0.913927 -0.088296
0.545438 -1.012026 0.358487
0.565243 -0.913350 0.411169
0.921043 -0.497057 -0.006806
0.626391 -0.608698 0.573819
0.745682 -0.702234 0.199199
0.565243 -0.913350 0.411169
0.626391 -0.608698 0.573819
0.690199 -0.290792 0.743544
0.922850 -0.003282 0.485634
1.039983 -0.142523 0.070113
1.039983 -0.151918 0.060662
0.921043 -0.497057 -0.006806
0.745682 -0.702234 0.199199
1.039983 -1.039979 1.040000
0.243682 -1.039979 1.040000
1.039983 -1.039979 -0.832638
1.039983 -1.039979 1.040000
1.039983 0.821676 1.040000
1.039983 -1.039979 -0.832638
1.039983 -1.039979 1.040000
0.243682 -1.039979 1.040000
1.039983 0.821676 1.040000
-0.667739 1.039979 -0.336736
-0.527446 1.039979 -1.040000
-1.039968 -0.811483 -1.040000
-1.039968 -0.550755 -0.678199
-0.667739 1.039979 -0.336736
-0.723787 1.039979 -0.055775
-0.674653 1.010428 -0.343079
-0.703363 1.027695 -0.175203
-0.723787 1.039979 -0.055775
-0.942381 1.039979 1.040000
-1.039968 0.687450 1.040000
-1.039968 0.482677 0.755846
-0.896190 0.063686 -0.546305
-1.039968 -0.228789 -0.231422
-1.039968 -0.550755 -0.678199
-0.780325 0.558839 -0.440016
-0.942865 0.639902 0.487261
-0.703363 1.027695 -0.175203
-0.674653 1.010428 -0.343079
-0.942865 0.639902 0.487261
-0.932330 0.634648 0.427160
-1.039968 0.296278 0.497189
-1.039968 0.482677 0.755846
-0.932330 0.634648 0.427160
-0.920296 0.628646 0.358502
-1.039968 0.035555 0.135395
-1.039968 0.296278 0.497189
-0.855692 0.596427 -0.010052
-0.993244 0.267117 0.222503
-0.920296 0.628646 0.358502
-0.973138 -0.092842 -0.377784
-1.039968 0.018037 0.111086
-1.039968 -0.228789 -0.231422
-0.896190 0.063686 -0.546305
-0.780325 0.558839 -0.440016
-0.855692 0.596427 -0.010052
-0.993244 0.267117 0.222503
-1.039968 0.035555 0.135395
-1.039968 0.018037 0.111086
-0.973138 -0.092842 -0.377784
-1.039968 1.039979 -1.040000
-1.039968 -0.811483 -1.040000
-1.039968 0.687450 1.040000
-1.039968 1.039979 1.040000
-0.527446 1.039979 -1.040000
-1.039968 1.039979 -1.040000
-1.039968 -0.811483 -1.040000
-0.942381 1.039979 1.040000
-0.527446 1.039979 -1.040000
-1.039968 1.039979 -1.040000
-1.039968 1.039979 1.040000
-0.942381 1.039979 1.040000
-1.039968 1.039979 1.040000
-1.039968 0.687450 1.040000
0.168290 1.039979 -1.040000
0.088936 0.877761 -1.040000
-0.674653 1.010428 -0.343079
-0.667739 1.039979 -0.336736
-0.400623 -0.123015 -1.040000
-0.849184 -1.039979 -1.040000
-1.039968 -1.039979 -0.879513
-1.039968 -0.550755 -0.678199
-0.896190 0.063686 -0.546305
-0.157394 0.920559 -0.815177
-0.780325 0.558839 -0.440016
-0.674653 1.010428 -0.343079
-0.207303 0.272178 -1.040000
-0.536803 -0.071710 -0.904335
-0.400623 -0.123015 -1.040000
0.088936 0.877761 -1.040000
-0.090340 0.511279 -1.040000
-0.240998 0.872013 -0.764826
-0.157394 0.920559 -0.815177
-0.090340 0.511279 -1.040000
-0.141520 0.406655 -1.040000
-0.590844 0.668866 -0.554131
-0.240998 0.872013 -0.764826
-0.310852 0.505472 -0.856895
-0.141520 0.406655 -1.040000
-0.207303 0.272178 -1.040000
-0.350039 0.123210 -0.981231
-0.590844 0.668866 -0.554131
-0.310852 0.505472 -0.856895
-0.350039 0.123210 -0.981231
-0.536803 -0.071710 -0.904335
-0.896190 0.063686 -0.546305
-0.780325 0.558839 -0.440016
-1.039968 -1.039979 -1.040000
-1.039968 -1.039979 -0.879513
-1.039968 -0.550755 -0.678199
-1.039968 -0.811483 -1.040000
-0.849184 -1.039979 -1.040000
-1.039968 -1.039979 -1.040000
-1.039968 -1.039979 -0.879513
-0.849184 -1.039979 -1.040000
0.168290 1.039979 -1.040000
-0.527446 1.039979 -1.040000
-1.039968 -0.811483 -1.040000
-1.039968 -1.039979 -1.040000
0.168290 1.039979 -1.040000
-0.527446 1.039979 -1.040000
-0.667739 1.039979 -0.336736
1.039983 1.039979 0.199453
1.039983 0.897331 0.224272
0.198536 1.039979 0.951336
1.039983 0.141472 0.355783
1.039983 0.897331 0.224272
0.664390 0.961004 0.548808
0.922850 -0.003282 0.485634
0.179309 0.629127 1.040000
0.630488 0.966752 0.578102
0.198536 1.039979 0.951336
0.099310 1.039979 1.040000
0.422812 -0.621231 1.039963
0.422741 -0.621075 1.040000
0.422779 -0.621272 1.040000
0.422741 -0.621075 1.040000
0.313323 -0.059135 1.040000
0.690199 -0.290792 0.743544
0.422812 -0.621231 1.039963
0.201892 0.646026 1.016880
0.191034 0.568911 1.040000
0.179309 0.629127 1.040000
0.191034 0.568911 1.040000
0.201892 0.646026 1.016880
0.630488 0.966752 0.578102
0.664390 0.961004 0.548808
0.800407 0.453539 0.515562
0.193710 0.555168 1.040000
0.193710 0.555168 1.040000
0.274674 0.139357 1.040000
0.519747 0.500553 0.758169
0.313323 -0.059135 1.040000
0.690199 -0.290792 0.743544
0.922850 -0.003282 0.485634
0.800407 0.453539 0.515562
0.519747 0.500553 0.758169
0.274674 0.139357 1.040000
1.039983 0.821676 1.040000
1.039983 1.039979 1.040000
1.039983 1.039979 0.199453
1.039983 0.141472 0.355783
1.039983 1.039979 1.040000
0.099310 1.039979 1.040000
1.039983 1.039979 0.199453
1.039983 1.039979 1.040000
1.039983 0.821676 1.040000
0.422779 -0.621272 1.040000
0.099310 1.039979 1.040000
1.039983 0.897331 0.224272
1.039983 0.787756 -1.040000
1.020144 0.789633 -1.040000
0.664390 0.961004 0.548808
0.198536 1.039979 0.951336
0.630488 0.966752 0.578102
-0.703363 1.027695 -0.175203
-0.723787 1.039979 -0.055775
1.020144 0.789633 -1.040000
0.197385 0.867498 -1.040000
0.922602 0.836620 -0.604374
-0.157394 0.920559 -0.815177
-0.292997 1.008946 0.056555
-0.703363 1.027695 -0.175203
-0.674653 1.010428 -0.343079
0.840919 0.875968 -0.239576
0.184254 0.987140 0.326087
0.630488 0.966752 0.578102
0.664390 0.961004 0.548808
0.922602 0.836620 -0.604374
0.197385 0.867498 -1.040000
0.088936 0.877761 -1.040000
-0.157394 0.920559 -0.815177
-0.181028 0.935963 -0.663250
0.734823 0.893930 -0.148183
0.840919 0.875968 -0.239576
0.138131 0.921315 -0.483758
-0.181028 0.935963 -0.663250
-0.239429 0.974030 -0.287810
0.734823 0.893930 -0.148183
0.423791 0.946587 0.119746
0.395717 0.909493 -0.338893
0.138131 0.921315 -0.483758
-0.239429 0.974030 -0.287810
-0.292997 1.008946 0.056555
0.184254 0.987140 0.326087
0.423791 0.946587 0.119746
0.395717 0.909493 -0.338893
0.168290 1.039979 -1.040000
1.039983 1.039979 -1.040000
1.039983 0.787756 -1.040000
0.088936 0.877761 -1.040000
1.039983 0.787756 -1.040000
1.039983 1.039979 -1.040000
1.039983 1.039979 0.199453
1.039983 0.897331 0.224272
1.039983 1.039979 -1.040000
0.168290 1.039979 -1.040000
-0.667739 1.039979 -0.336736
-0.723787 1.039979 -0.055775
0.198536 1.039979 0.951336
1.039983 1.039979 0.199453
1.039983 0.711883 -1.040000
1.020144 0.789633 -1.040000
0.922602 0.836620 -0.604374
1.039983 0.309138 -0.516721
0.840919 0.875968 -0.239576
0.800407 0.453539 0.515562
0.664390 0.961004 0.548808
1.039983 0.309138 -0.516721
1.039983 -0.109408 0.027089
1.002314 0.478412 -0.544850
0.922602 0.836620 -0.604374
1.002314 0.478412 -0.544850
1.006812 0.408233 -0.476568
0.836305 0.827860 -0.153578
0.840919 0.875968 -0.239576
0.815804 0.614085 0.228568
0.836305 0.827860 -0.153578
1.006812 0.408233 -0.476568
1.010305 0.353725 -0.423531
1.026735 0.097323 -0.174058
1.010305 0.353725 -0.423531
0.921021 0.473241 -0.124192
0.922850 -0.003282 0.485634
1.039983 -0.142523 0.070113
1.039983 -0.109408 0.027089
1.026735 0.097323 -0.174058
0.921021 0.473241 -0.124192
0.815804 0.614085 0.228568
0.800407 0.453539 0.515562
1.039983 0.787756 -1.040000
1.020144 0.789633 -1.040000
1.039983 0.711883 -1.040000
1.039983 0.787756 -1.040000
1.039983 0.897331 0.224272
1.039983 0.141472 0.355783
1.039983 -0.142523 0.070113
1.039983 0.711883 -1.040000
-0.650564 0.432779 1.040000
-1.039968 0.340645 1.040000
-1.039968 0.423803 0.873633
-0.292997 1.008946 0.056555
-0.942865 0.639902 0.487261
-0.703363 1.027695 -0.175203
-0.650564 0.432779 1.040000
0.179309 0.629127 1.040000
0.201892 0.646026 1.016880
-0.873503 0.679291 0.441290
-0.942865 0.639902 0.487261
-1.039968 0.482677 0.755846
-1.039968 0.423803 0.873633
0.630488 0.966752 0.578102
0.201892 0.646026 1.016880
0.116743 0.648660 0.971306
0.184254 0.987140 0.326087
-0.490673 0.667449 0.646195
-0.873503 0.679291 0.441290
-0.541537 0.867806 0.221277
0.156968 0.850333 0.586872
0.116743 0.648660 0.971306
-0.239155 0.659669 0.780816
-0.239155 0.659669 0.780816
0.156968 0.850333 0.586872
0.184254 0.987140 0.326087
-0.292997 1.008946 0.056555
-0.541537 0.867806 0.221277
-0.490673 0.667449 0.646195
-1.039968 0.340645 1.040000
-1.039968 0.687450 1.040000
-1.039968 0.482677 0.755846
0.099310 1.039979 1.040000
0.198536 1.039979 0.951336
-0.723787 1.039979 -0.055775
-0.942381 1.039979 1.040000
0.099310 1.039979 1.040000
0.179309 0.629127 1.040000
-1.039968 0.340645 1.040000
-1.039968 0.687450 1.040000
-0.942381 1.039979 1.040000
-0.016734 -1.039979 -1.040000
-0.223236 -0.546726 -1.040000
-0.325546 -1.039979 -0.674743
-0.774440 -1.039979 -0.143802
-1.039968 -0.870800 0.086485
-1.039968 -1.039979 0.170258
-0.774440 -1.039979 -0.143802
-0.325546 -1.039979 -0.674743
-0.288879 -0.863202 -0.805648
-0.798531 -1.024630 -0.122909
-0.285817 -0.848439 -0.816580
-0.288879 -0.863202 -0.805648
-0.798531 -1.024630 -0.122909
-1.039968 -0.870800 0.086485
-1.039968 -0.462534 -0.115677
-0.350094 -0.815548 -0.756842
-0.536803 -0.071710 -0.904335
-0.400623 -0.123015 -1.040000
-0.223236 -0.546726 -1.040000
-0.285817 -0.848439 -0.816580
-0.439880 -0.457845 -0.827769
-0.350094 -0.815548 -0.756842
-0.609202 -0.682960 -0.516028
-0.811768 -0.579305 -0.327765
-0.973138 -0.092842 -0.377784
-1.039968 -0.228789 -0.231422
-1.039968 -0.462534 -0.115677
-0.536803 -0.071710 -0.904335
-0.439880 -0.457845 -0.827769
-0.609202 -0.682960 -0.516028
-0.811768 -0.579305 -0.327765
-0.973138 -0.092842 -0.377784
-0.896190 0.063686 -0.546305
-1.039968 -1.039979 -0.879513
-1.039968 -1.039979 0.170258
-1.039968 -0.228789 -0.231422
-1.039968 -0.550755 -0.678199
-0.849184 -1.039979 -1.040000
-0.016734 -1.039979 -1.040000
-1.039968 -1.039979 0.170258
-1.039968 -1.039979 -0.879513
-0.016734 -1.039979 -1.040000
-0.849184 -1.039979 -1.040000
-0.400623 -0.123015 -1.040000
1.039983 0.274030 -1.040000
0.132611 -0.315520 -1.040000
1.039983 -0.363164 -0.494661
-0.325546 -1.039979 -0.674743
0.724540 -1.039979 -0.090820
0.815596 -0.897766 -0.161900
-0.288879 -0.863202 -0.805648
-0.268511 -0.863839 -0.793776
-0.288879 -0.863202 -0.805648
-0.285817 -0.848439 -0.816580
-0.220740 -0.865334 -0.765933
0.246248 -0.321487 -0.971703
0.132611 -0.315520 -1.040000
-0.223236 -0.546726 -1.040000
-0.285817 -0.848439 -0.816580
-0.268511 -0.863839 -0.793776
0.815596 -0.897766 -0.161900
1.039983 -0.547309 -0.337061
1.039983 -0.363164 -0.494661
0.725927 -0.346674 -0.683411
0.741672 -0.895452 -0.204986
0.125473 -0.876169 -0.564141
0.037279 -0.564850 -0.879624
-0.220740 -0.865334 -0.765933
0.741672 -0.895452 -0.204986
0.731803 -0.551451 -0.504886
0.384752 -0.884283 -0.413019
0.246248 -0.321487 -0.971703
0.037279 -0.564850 -0.879624
0.125473 -0.876169 -0.564141
0.384752 -0.884283 -0.413019
0.731803 -0.551451 -0.504886
0.725927 -0.346674 -0.683411
1.039983 -1.039979 -0.832638
1.039983 -1.039979 -1.040000
-0.016734 -1.039979 -1.040000
-0.325546 -1.039979 -0.674743
0.724540 -1.039979 -0.090820
1.039983 -1.039979 -1.040000
1.039983 0.274030 -1.040000
-0.223236 -0.546726 -1.040000
-0.016734 -1.039979 -1.040000
1.039983 -1.039979 -1.040000
1.039983 -1.039979 -0.832638
1.039983 -0.547309 -0.337061
1.039983 0.274030 -1.040000
0.417200 -0.647991 1.026244
0.414627 -0.640330 1.040000
-1.039968 -0.372637 1.040000
-1.039968 -0.711785 0.390849
0.543205 -1.023153 0.352547
0.417200 -0.647991 1.026244
-0.061580 -0.668952 0.817473
0.548856 -1.039979 0.322330
-0.774440 -1.039979 -0.143802
-0.798531 -1.024630 -0.122909
0.528142 -1.014331 0.364126
0.543205 -1.023153 0.352547
-0.253580 -1.020400 0.077148
-0.831133 -0.702643 0.481911
-1.039968 -0.711785 0.390849
-1.039968 -0.870800 0.086485
-0.798531 -1.024630 -0.122909
-0.819215 -0.702121 0.487107
-0.815063 -0.711484 0.470648
-0.831133 -0.702643 0.481911
0.528142 -1.014331 0.364126
0.480847 -0.986632 0.400484
0.430497 -1.015089 0.328280
0.480847 -0.986632 0.400484
0.430497 -1.015089 0.328280
0.110836 -1.017571 0.210929
0.179488 -0.810137 0.632153
-0.422356 -0.684746 0.660157
-0.498482 -0.885660 0.248781
-0.815063 -0.711484 0.470648
-0.819215 -0.702121 0.487107
-0.061580 -0.668952 0.817473
0.179488 -0.810137 0.632153
0.110836 -1.017571 0.210929
-0.253580 -1.020400 0.077148
-0.498482 -0.885660 0.248781
-0.422356 -0.684746 0.660157
-1.039968 -1.039979 1.040000
-1.039968 -0.372637 1.040000
-1.039968 -0.870800 0.086485
-1.039968 -1.039979 0.170258
0.243682 -1.039979 1.040000
0.548856 -1.039979 0.322330
-0.774440 -1.039979 -0.143802
-1.039968 -1.039979 0.170258
-1.039968 -1.039979 1.040000
0.243682 -1.039979 1.040000
0.414627 -0.640330 1.040000
-1.039968 -0.372637 1.040000
-1.039968 -1.039979 1.040000
0.422812 -0.621231 1.039963
0.422741 -0.621075 1.040000
0.036959 -0.242285 1.040000
-0.061580 -0.668952 0.817473
0.417200 -0.647991 1.026244
-0.831133 -0.702643 0.481911
-1.039968 -0.711785 0.390849
-1.039968 -0.558738 0.455915
-0.212726 0.002875 1.040000
-0.650564 0.432779 1.040000
-1.039968 0.423803 0.873633
-1.039968 -0.107168 0.647896
-0.635592 -0.053376 0.839566
-0.831570 -0.702342 0.481856
-1.039968 -0.558738 0.455915
-1.039968 -0.107168 0.647896
-0.831133 -0.702643 0.481911
-0.819215 -0.702121 0.487107
-0.825851 -0.683404 0.492295
-0.831570 -0.702342 0.481856
-0.716651 -0.321798 0.691612
-0.422356 -0.684746 0.660157
-0.819215 -0.702121 0.487107
-0.825851 -0.683404 0.492295
0.036959 -0.242285 1.040000
-0.212726 0.002875 1.040000
-0.635592 -0.053376 0.839566
-0.716651 -0.321798 0.691612
-0.422356 -0.684746 0.660157
-0.061580 -0.668952 0.817473
-1.039968 -0.372637 1.040000
-1.039968 -0.711785 0.390849
-1.039968 0.423803 0.873633
-1.039968 0.340645 1.040000
0.414627 -0.640330 1.040000
0.422779 -0.621272 1.040000
0.422741 -0.621075 1.040000
-0.650564 0.432779 1.040000
-1.039968 0.340645 1.040000
-1.039968 -0.372637 1.040000
0.151453 0.028612 -1.040000
0.246248 -0.321487 -0.971703
0.132611 -0.315520 -1.040000
1.039983 0.309138 -0.516721
1.002314 0.478412 -0.544850
0.725927 -0.346674 -0.683411
1.039983 -0.363164 -0.494661
0.922602 0.836620 -0.604374
1.002314 0.478412 -0.544850
0.958767 0.348411 -0.566682
0.169366 0.355771 -1.040000
0.197385 0.867498 -1.040000
0.151453 0.028612 -1.040000
0.169366 0.355771 -1.040000
0.388370 0.353729 -0.908687
0.165083 -0.021727 -1.030180
0.958767 0.348411 -0.566682
0.830200 -0.035395 -0.631136
0.620405 0.351566 -0.769561
0.165083 -0.021727 -1.030180
0.246248 -0.321487 -0.971703
0.725927 -0.346674 -0.683411
0.830200 -0.035395 -0.631136
0.620405 0.351566 -0.769561
0.388370 0.353729 -0.908687
1.039983 0.711883 -1.040000
1.020144 0.789633 -1.040000
0.197385 0.867498 -1.040000
0.132611 -0.315520 -1.040000
1.039983 0.274030 -1.040000
1.039983 0.711883 -1.040000
1.039983 0.309138 -0.516721
1.039983 -0.363164 -0.494661
1.039983 0.274030 -1.040000
-0.873503 0.679291 0.441290
-0.942865 0.639902 0.487261
-0.932330 0.634648 0.427160
-0.873596 0.679220 0.441268
-0.932330 0.634648 0.427160
-0.920296 0.628646 0.358502
-0.181028 0.935963 -0.663250
-0.157394 0.920559 -0.815177
-0.240998 0.872013 -0.764826
-0.541537 0.867806 0.221277
-0.873503 0.679291 0.441290
-0.873596 0.679220 0.441268
-0.920296 0.628646 0.358502
-0.855692 0.596427 -0.010052
-0.181028 0.935963 -0.663250
-0.239429 0.974030 -0.287810
-0.590844 0.668866 -0.554131
-0.240998 0.872013 -0.764826
-0.292997 1.008946 0.056555
-0.239429 0.974030 -0.287810
-0.590844 0.668866 -0.554131
-0.780325 0.558839 -0.440016
-0.855692 0.596427 -0.010052
-0.541537 0.867806 0.221277
0.543205 -1.023153 0.352547
0.545438 -1.012026 0.358487
0.528142 -1.014331 0.364126
0.545438 -1.012026 0.358487
0.528142 -1.014331 0.364126
0.480847 -0.986632 0.400484
0.565243 -0.913350 0.411169
0.565243 -0.913350 0.411169
0.480847 -0.986632 0.400484
0.179488 -0.810137 0.632153
0.626391 -0.608698 0.573819
0.313323 -0.059135 1.040000
0.690199 -0.290792 0.743544
0.626391 -0.608698 0.573819
0.179488 -0.810137 0.632153
-0.061580 -0.668952 0.817473
0.036959 -0.242285 1.040000
0.313323 -0.059135 1.040000
0.036959 -0.242285 1.040000
0.422741 -0.621075 1.040000
-0.288879 -0.863202 -0.805648
-0.268511 -0.863839 -0.793776
-0.253580 -1.020400 0.077148
-0.798531 -1.024630 -0.122909
-0.268511 -0.863839 -0.793776
-0.220740 -0.865334 -0.765933
-0.267882 -0.870439 -0.757063
0.815596 -0.897766 -0.161900
0.741672 -0.895452 -0.204986
0.777384 -0.913927 -0.088296
-0.260910 -0.943538 -0.350422
0.125473 -0.876169 -0.564141
-0.220740 -0.865334 -0.765933
-0.267882 -0.870439 -0.757063
0.777384 -0.913927 -0.088296
0.741672 -0.895452 -0.204986
0.384752 -0.884283 -0.413019
0.430497 -1.015089 0.328280
0.528142 -1.014331 0.364126
0.545438 -1.012026 0.358487
0.430497 -1.015089 0.328280
0.409835 -0.956008 -0.006542
0.110836 -1.017571 0.210929
0.409835 -0.956008 -0.006542
0.110836 -1.017571 0.210929
-0.253580 -1.020400 0.077148
-0.260910 -0.943538 -0.350422
0.125473 -0.876169 -0.564141
0.384752 -0.884283 -0.413019
0.724540 -1.039979 -0.090820
0.548856 -1.039979 0.322330
-0.774440 -1.039979 -0.143802
-0.325546 -1.039979 -0.674743
-0.268511 -0.863839 -0.793776
-0.267882 -0.870439 -0.757063
-0.350094 -0.815548 -0.756842
-0.285817 -0.848439 -0.816580
-0.831570 -0.702342 0.481856
-1.039968 -0.502640 0.122612
-1.039968 -0.558738 0.455915
-0.267882 -0.870439 -0.757063
-0.260910 -0.943538 -0.350422
-0.609202 -0.682960 -0.516028
-0.350094 -0.815548 -0.756842
-0.815063 -0.711484 0.470648
-0.831133 -0.702643 0.481911
-0.831570 -0.702342 0.481856
-1.039968 -0.502640 0.122612
-1.039968 -0.462534 -0.115677
-0.811768 -0.579305 -0.327765
-0.498482 -0.885660 0.248781
-0.815063 -0.711484 0.470648
-0.813416 -0.645421 0.071600
-0.260910 -0.943538 -0.350422
-0.253580 -1.020400 0.077148
-0.498482 -0.885660 0.248781
-0.813416 -0.645421 0.071600
-0.811768 -0.579305 -0.327765
-0.609202 -0.682960 -0.516028
-1.039968 -0.558738 0.455915
-1.039968 -0.711785 0.390849
-1.039968 -0.870800 0.086485
-1.039968 -0.462534 -0.115677
0.201892 0.646026 1.016880
0.191034 0.568911 1.040000
0.185318 0.560898 1.040000
0.116743 0.648660 0.971306
-0.873596 0.679220 0.441268
-0.635592 -0.053376 0.839566
-1.039968 -0.107168 0.647896
-1.039968 0.296278 0.497189
-0.932330 0.634648 0.427160
-0.873503 0.679291 0.441290
-0.490673 0.667449 0.646195
-0.756878 0.319952 0.636595
-0.873596 0.679220 0.441268
0.185318 0.560898 1.040000
-0.055440 0.223377 1.040000
-0.239155 0.659669 0.780816
0.116743 0.648660 0.971306
-0.490673 0.667449 0.646195
-0.239155 0.659669 0.780816
-0.055440 0.223377 1.040000
-0.212726 0.002875 1.040000
-0.635592 -0.053376 0.839566
-0.756878 0.319952 0.636595
-1.039968 -0.107168 0.647896
-1.039968 0.423803 0.873633
-1.039968 0.482677 0.755846
-1.039968 0.296278 0.497189
0.179309 0.629127 1.040000
0.191034 0.568911 1.040000
-0.212726 0.002875 1.040000
-0.650564 0.432779 1.040000
0.836305 0.827860 -0.153578
0.734823 0.893930 -0.148183
0.840919 0.875968 -0.239576
0.185318 0.560898 1.040000
0.193710 0.555168 1.040000
0.519747 0.500553 0.758169
0.156968 0.850333 0.586872
0.116743 0.648660 0.971306
0.734823 0.893930 -0.148183
0.836305 0.827860 -0.153578
0.815804 0.614085 0.228568
0.423791 0.946587 0.119746
0.156968 0.850333 0.586872
0.184254 0.987140 0.326087
0.423791 0.946587 0.119746
0.815804 0.614085 0.228568
0.800407 0.453539 0.515562
0.519747 0.500553 0.758169
0.191034 0.568911 1.040000
0.193710 0.555168 1.040000
0.185318 0.560898 1.040000
-0.220740 -0.865334 -0.765933
0.037279 -0.564850 -0.879624
-0.439880 -0.457845 -0.827769
-0.350094 -0.815548 -0.756842
-0.267882 -0.870439 -0.757063
0.165083 -0.021727 -1.030180
0.151453 0.028612 -1.040000
-0.207303 0.272178 -1.040000
-0.350039 0.123210 -0.981231
0.037279 -0.564850 -0.879624
0.246248 -0.321487 -0.971703
0.165083 -0.021727 -1.030180
-0.350039 0.123210 -0.981231
-0.536803 -0.071710 -0.904335
-0.439880 -0.457845 -0.827769
-0.207303 0.272178 -1.040000
0.151453 0.028612 -1.040000
0.132611 -0.315520 -1.040000
-0.223236 -0.546726 -1.040000
-0.400623 -0.123015 -1.040000
1.006812 0.408233 -0.476568
1.002314 0.478412 -0.544850
0.958767 0.348411 -0.566682
0.731803 -0.551451 -0.504886
0.921043 -0.497057 -0.006806
0.777384 -0.913927 -0.088296
0.741672 -0.895452 -0.204986
0.975610 0.369383 -0.535090
1.006812 0.408233 -0.476568
1.010305 0.353725 -0.423531
0.958767 0.348411 -0.566682
0.975610 0.369383 -0.535090
1.010305 0.353725 -0.423531
1.026735 0.097323 -0.174058
0.830200 -0.035395 -0.631136
0.731803 -0.551451 -0.504886
0.725927 -0.346674 -0.683411
0.830200 -0.035395 -0.631136
1.026735 0.097323 -0.174058
1.039983 -0.109408 0.027089
1.039983 -0.151918 0.060662
0.921043 -0.497057 -0.006806
1.039983 -0.363164 -0.494661
1.039983 0.309138 -0.516721
1.039983 -0.109408 0.027089
1.039983 -0.151918 0.060662
1.039983 -0.547309 -0.337061
-0.756878 0.319952 0.636595
-0.873596 0.679220 0.441268
-0.920296 0.628646 0.358502
-0.993244 0.267117 0.222503
-0.825851 -0.683404 0.492295
-0.831570 -0.702342 0.481856
-1.039968 -0.502640 0.122612
-1.039968 0.013807 0.134879
-0.716651 -0.321798 0.691612
-0.932243 -0.336969 0.314699
-0.825851 -0.683404 0.492295
-0.635592 -0.053376 0.839566
-0.716651 -0.321798 0.691612
-0.932243 -0.336969 0.314699
-1.039968 0.013807 0.134879
-1.039968 0.035555 0.135395
-0.993244 0.267117 0.222503
-0.756878 0.319952 0.636595
-1.039968 -0.558738 0.455915
-1.039968 -0.502640 0.122612
-1.039968 0.035555 0.135395
-1.039968 0.296278 0.497189
-1.039968 -0.107168 0.647896
0.138131 0.921315 -0.483758
0.014164 0.448704 -1.040000
-0.090340 0.511279 -1.040000
-0.240998 0.872013 -0.764826
-0.181028 0.935963 -0.663250
0.064490 0.640568 -0.814185
0.388370 0.353729 -0.908687
0.169366 0.355771 -1.040000
0.014164 0.448704 -1.040000
0.734823 0.893930 -0.148183
0.836305 0.827860 -0.153578
1.006812 0.408233 -0.476568
0.975610 0.369383 -0.535090
0.395717 0.909493 -0.338893
0.958767 0.348411 -0.566682
0.975610 0.369383 -0.535090
0.697909 0.628033 -0.441135
0.620405 0.351566 -0.769561
0.138131 0.921315 -0.483758
0.064490 0.640568 -0.814185
0.388370 0.353729 -0.908687
0.620405 0.351566 -0.769561
0.697909 0.628033 -0.441135
0.395717 0.909493 -0.338893
0.197385 0.867498 -1.040000
0.169366 0.355771 -1.040000
-0.090340 0.511279 -1.040000
0.088936 0.877761 -1.040000
-0.855692 0.596427 -0.010052
-0.541537 0.867806 0.221277
-0.490673 0.667449 0.646195
-0.756878 0.319952 0.636595
-0.993244 0.267117 0.222503
0.037279 -0.564850 -0.879624
0.125473 -0.876169 -0.564141
-0.260910 -0.943538 -0.350422
-0.609202 -0.682960 -0.516028
-0.439880 -0.457845 -0.827769
-0.825851 -0.683404 0.492295
-0.819215 -0.702121 0.487107
-0.815063 -0.711484 0.470648
-0.813416 -0.645421 0.071600
-0.932243 -0.336969 0.314699
-0.813416 -0.645421 0.071600
-0.932243 -0.336969 0.314699
-1.039968 0.013807 0.134879
-1.039968 0.018037 0.111086
-0.973138 -0.092842 -0.377784
-0.811768 -0.579305 -0.327765
-1.039968 -0.462534 -0.115677
-1.039968 -0.228789 -0.231422
-1.039968 0.018037 0.111086
-1.039968 0.013807 0.134879
-1.039968 -0.502640 0.122612
0.480847 -0.986632 0.400484
0.430497 -1.015089 0.328280
0.409835 -0.956008 -0.006542
0.745682 -0.702234 0.199199
0.565243 -0.913350 0.411169
0.409835 -0.956008 -0.006542
0.745682 -0.702234 0.199199
0.921043 -0.497057 -0.006806
0.731803 -0.551451 -0.504886
0.384752 -0.884283 -0.413019
0.014164 0.448704 -1.040000
0.064490 0.640568 -0.814185
-0.310852 0.505472 -0.856895
-0.141520 0.406655 -1.040000
0.064490 0.640568 -0.814185
0.138131 0.921315 -0.483758
-0.239429 0.974030 -0.287810
-0.590844 0.668866 -0.554131
-0.310852 0.505472 -0.856895
0.014164 0.448704 -1.040000
-0.141520 0.406655 -1.040000
-0.090340 0.511279 -1.040000
0.274674 0.139357 1.040000
0.519747 0.500553 0.758169
0.156968 0.850333 0.586872
-0.239155 0.659669 0.780816
-0.055440 0.223377 1.040000
0.193710 0.555168 1.040000
0.274674 0.139357 1.040000
-0.055440 0.223377 1.040000
0.185318 0.560898 1.040000
0.165083 -0.021727 -1.030180
0.388370 0.353729 -0.908687
0.064490 0.640568 -0.814185
-0.310852 0.505472 -0.856895
-0.350039 0.123210 -0.981231
0.014164 0.448704 -1.040000
0.169366 0.355771 -1.040000
0.151453 0.028612 -1.040000
-0.207303 0.272178 -1.040000
-0.141520 0.406655 -1.040000
1.010305 0.353725 -0.423531
0.975610 0.369383 -0.535090
0.697909 0.628033 -0.441135
0.921021 0.473241 -0.124192
0.395717 0.909493 -0.338893
0.697909 0.628033 -0.441135
0.921021 0.473241 -0.124192
0.815804 0.614085 0.228568
0.423791 0.946587 0.119746
0.697909 0.628033 -0.441135
0.620405 0.351566 -0.769561
0.830200 -0.035395 -0.631136
1.026735 0.097323 -0.174058
0.921021 0.473241 -0.124192
0.409835 -0.956008 -0.006542
0.110836 -1.017571 0.210929
0.179488 -0.810137 0.632153
0.626391 -0.608698 0.573819
0.745682 -0.702234 0.199199
-0.422356 -0.684746 0.660157
-0.716651 -0.321798 0.691612
-0.932243 -0.336969 0.314699
-0.813416 -0.645421 0.071600
-0.498482 -0.885660 0.248781
-1.039968 0.035555 0.135395
-1.039968 0.018037 0.111086
-1.039968 0.013807 0.134879
1.039983 -0.142523 0.070113
1.039983 -0.151918 0.060662
1.039983 -0.109408 0.027089
0.274674 0.139357 1.040000
0.313323 -0.059135 1.040000
0.036959 -0.242285 1.040000
-0.212726 0.002875 1.040000
-0.055440 0.223377 1.040000
3 0 1 2 195 212 161
3 3 4 5 151 111 138
3 6 7 8 229 230 212
3 9 10 11 200 212 180
4 12 13 14 15 212 101 229
4 16 17 18 19 153 186 228
5 20 21 22 23 24 246 225 229
4 25 26 27 28 152 167 222
4 29 30 31 32 244 137 123
3 33 34 35 168 215 197
7 36 37 38 39 40 41 42 238 243 196
3 43 44 45 223 169 192
3 46 47 48 102 247 246
3 49 50 51 189 246 247
4 52 53 54 55 195 151 227
3 56 57 58 138 181 203
5 59 60 61 62 63 228 110 250
3 64 65 66 141 198 106
4 67 68 69 70 243 189 211
4 71 72 73 74 159 212 101
4 75 76 77 78 228 147 239
3 79 80 81 136 108 198
3 82 83 84 246 147 230
7 85 86 87 88 89 90 91 247 251 153
4 92 93 94 95 219 251 215
3 96 97 98 174 212 203
4 99 100 101 102 183 211 198
3 103 104 105 252 192 245
4 106 107 108 109 227 209 181
5 110 111 112 113 114 153 167 132
3 115 116 117 241 120 147
3 118 119 120 247 227 235
4 121 122 123 124 234 244 227
4 125 126 127 128 132 214 218
4 129 130 131 132 121 137 208
6 133 134 135 136 137 138 150 107 126
4 139 140 141 142 126 120 129
3 143 144 145 196 127 210
5 146 147 148 149 150 160 147 246
3 151 152 153 103 134 148
3 154 155 156 116 145 216
4 157 158 159 160 105 198 223
4 161 162 163 164 136 123 192
3 165 166 167 145 194 198
4 168 169 170 171 215 166 227
3 172 173 174 117 124 153
6 175 176 177 178 179 180 157 166 203
3 181 182 183 123 213 131
6 184 185 186 187 188 189 185 250 226
4 190 191 192 193 254 229 116
3 194 195 196 203 236 142
4 197 198 199 200 138 125 198
4 201 202 203 204 149 252 251
4 205 206 207 208 112 159 234
3 209 210 211 156 135 119
4 212 213 214 215 164 107 243
4 216 217 218 219 241 214 242
7 220 221 222 223 224 225 226 191 197 165
3 227 228 229 131 185 150
3 230 231 232 252 162 224
6 233 234 235 236 237 238 249 157 157
4 239 240 241 242 185 148 169
4 243 244 245 246 114 153 200
6 247 248 249 250 251 252 107 152 159
4 253 254 255 256 207 104 202
3 257 258 259 105 208 215
3 260 261 262 193 146 198
5 263 264 265 266 267 154 151 243
4 268 269 270 271 112 213 223
3 272 273 274 205 246 244
7 275 276 277 278 279 280 281 219 162 118
3 282 283 284 191 157 189
5 285 286 287 288 289 216 161 122
3 290 291 292 226 236 239
3 293 294 295 228 157 221
7 296 297 298 299 300 301 302 100 133 195
4 303 304 305 306 225 217 147
3 307 308 309 188 216 228
3 310 311 312 115 168 121
6 313 314 315 316 317 318 192 175 253
3 319 320 321 243 185 128
4 322 323 324 325 168 146 193
5 326 327 328 329 330 243 184 138
3 331 332 333 199 132 200
3 334 335 336 122 109 168
4 337 338 339 340 199 133 237
5 341 342 343 344 345 246 195 100
5 346 347 348 349 350 168 103 115
3 351 352 353 123 179 101
4 354 355 356 357 227 183 251
6 358 359 360 361 362 363 239 223 132
4 364 365 366 367 200 111 166
4 368 369 370 371 164 173 142
3 372 373 374 143 128 240
3 375 376 377 111 194 145
4 378 379 380 381 229 134 180
3 382 383 384 189 107 192
6 385 386 387 388 389 390 253 189 214
5 391 392 393 394 395 204 234 157
3 396 397 398 213 174 219
3 399 400 401 120 237 200
6 402 403 404 405 406 407 251 198 135
5 408 409 410 411 412 195 251 250
4 413 414 415 416 136 111 212
4 417 418 419 420 112 122 198
4 421 422 423 424 204 129 116
3 425 426 427 212 161 183
5 428 429 430 431 432 211 185 240
5 433 434 435 436 437 118 199 239
3 438 439 440 246 175 108
3 441 442 443 127 227 151
4 444 445 446 447 182 210 243
4 448 449 450 451 216 168 198
6 452 453 454 455 456 457 239 124 222
4 458 459 460 461 152 250 243
5 462 463 464 465 466 156 138 208
4 467 468 469 470 141 241 221
5 471 472 473 474 475 232 174 245
3 476 477 478 175 108 173
4 479 480 481 482 244 106 240
4 483 484 485 486 236 126 221
4 487 488 489 490 104 128 182
4 491 492 493 494 235 208 164
6 495 496 497 498 499 500 185 244 170
4 501 502 503 504 144 231 135
6 505 506 507 508 509 510 169 118 207
3 511 512 513 190 189 118
4 514 515 516 517 138 225 240
5 518 519 520 521 522 225 157 247
4 523 524 525 526 160 226 204
3 527 528 529 100 230 191
6 530 531 532 533 534 535 212 252 155
5 536 537 538 539 540 216 233 157
4 541 542 543 544 143 160 146
3 545 546 547 248 179 217
3 548 549 550 246 119 245
3 551 552 553 146 148 113
5 554 555 556 557 558 242 100 216
4 559 560 561 562 153 217 102
6 563 564 565 566 567 568 243 111 173
3 569 570 571 115 201 251
4 572 573 574 575 216 107 221
4 576 577 578 579 191 189 235
6 580 581 582 583 584 585 159 127 200
3 586 587 588 140 254 244
4 589 590 591 592 240 145 134
3 593 594 595 233 181 214
3 596 597 598 146 252 109
4 599 600 601 602 155 129 208
6 603 604 605 606 607 608 104 218 132
3 609 610 611 217 164 245
6 612 613 614 615 616 617 110 184 125
4 618 619 620 621 162 185 158
4 622 623 624 625 126 197 204
3 626 627 628 198 228 248
4 629 630 631 632 154 105 194
6 633 634 635 636 637 638 232 201 102
3 639 640 641 122 152 182
6 642 643 644 645 646 647 244 184 177
4 648 649 650 651 209 100 150
4 652 653 654 655 103 212 131
5 656 657 658 659 660 133 191 194
4 661 662 663 664 171 138 253
4 665 666 667 668 217 102 222
6 669 670 671 672 673 674 149 111 153
4 675 676 677 678 232 156 244
4 679 680 681 682 211 146 250
3 683 684 685 184 241 165
5 686 687 688 689 690 174 202 137
4 691 692 693 694 149 197 181
6 695 696 697 698 699 700 129 178 190
3 701 702 703 151 178 129
5 704 705 706 707 708 205 150 180
4 709 710 711 712 232 128 231
6 713 714 715 716 717 718 237 244 173
5 719 720 721 722 723 116 183 168
3 724 725 726 133 105 152
4 727 728 729 730 225 142 214
3 731 732 733 210 250 179
5 734 735 736 737 738 194 217 243
7 739 740 741 742 743 744 745 107 231 203
5 746 747 748 749 750 231 124 195
4 751 752 753 754 254 192 160
4 755 756 757 758 221 150 246
3 759 760 761 120 104 191
7 762 763 764 765 766 767 768 160 121 248
5 769 770 771 772 773 169 100 232
5 774 775 776 777 778 111 189 145
4 779 780 781 782 133 177 144
5 783 784 785 786 787 254 172 125
4 788 789 790 791 146 220 155
6 792 793 794 795 796 797 193 206 162
4 798 799 800 801 147 160 180
5 802 803 804 805 806 125 135 100
5 807 808 809 810 811 107 212 198
5 812 813 814 815 816 146 226 155
6 817 818 819 820 821 822 113 127 177
5 823 824 825 826 827 229 208 253
5 828 829 830 831 832 113 155 214
5 833 834 835 836 837 106 102 210
4 838 839 840 841 250 206 117
5 842 843 844 845 846 137 214 114
3 847 848 849 218 127 138
5 850 851 852 853 854 116 185 225
4 855 856 857 858 143 124 244
5 859 860 861 862 863 112 124 167
5 864 865 866 867 868 237 166 208
4 869 870 871 872 245 210 210
5 873 874 875 876 877 133 210 107
5 878 879 880 881 882 212 182 141
5 883 884 885 886 887 200 105 125
5 888 889 890 891 892 163 158 208
3 893 894 895 220 132 249
3 896 897 898 120 169 211
5 899 900 901 902 903 103 193 174
