ply
format ascii 1.0
element vertex 68
property float x
property float y
property float z
element face 36
property list uchar int vertex_indices
end_header
-1.039968 0.013807 0.134879
-1.039968 0.018037 0.111086
-1.039968 0.035555 0.135395
-0.993244 0.267117 0.222503
-0.973138 -0.092842 -0.377784
-0.932243 -0.336969 0.314699
-0.896190 0.063686 -0.546305
-0.855692 0.596427 -0.010052
-0.813416 -0.645421 0.071600
-0.811768 -0.579305 -0.327765
-0.780325 0.558839 -0.440016
-0.756878 0.319952 0.636595
-0.716651 -0.321798 0.691612
-0.635592 -0.053376 0.839566
-0.609202 -0.682960 -0.516028
-0.590844 0.668866 -0.554131
-0.541537 0.867806 0.221277
-0.536803 -0.071710 -0.904335
-0.498482 -0.885660 0.248781
-0.490673 0.667449 0.646195
-0.439880 -0.457845 -0.827769
-0.422356 -0.684746 0.660157
-0.350039 0.123210 -0.981231
-0.310852 0.505472 -0.856895
-0.292997 1.008946 0.056555
-0.260910 -0.943538 -0.350422
-0.253580 -1.020400 0.077148
-0.239429 0.974030 -0.287810
-0.239155 0.659669 0.780816
-0.212726 0.002875 1.040000
-0.061580 -0.668952 0.817473
-0.055440 0.223377 1.040000
0.036959 -0.242285 1.040000
0.037279 -0.564850 -0.879624
0.064490 0.640568 -0.814185
0.110836 -1.017571 0.210929
0.125473 -0.876169 -0.564141
0.138131 0.921315 -0.483758
0.156968 0.850333 0.586872
0.165083 -0.021727 -1.030180
0.179488 -0.810137 0.632153
0.184254 0.987140 0.326087
0.246248 -0.321487 -0.971703
0.274674 0.139357 1.040000
0.313323 -0.059135 1.040000
0.384752 -0.884283 -0.413019
0.388370 0.353729 -0.908687
0.395717 0.909493 -0.338893
0.409835 -0.956008 -0.006542
0.423791 0.946587 0.119746
0.519747 0.500553 0.758169
0.620405 0.351566 -0.769561
0.626391 -0.608698 0.573819
0.690199 -0.290792 0.743544
0.697909 0.628033 -0.441135
0.725927 -0.346674 -0.683411
0.731803 -0.551451 -0.504886
0.745682 -0.702234 0.199199
0.800407 0.453539 0.515562
0.815804 0.614085 0.228568
0.830200 -0.035395 -0.631136
0.921021 0.473241 -0.124192
0.921043 -0.497057 -0.006806
0.922850 -0.003282 0.485634
1.026735 0.097323 -0.174058
1.039983 -0.151918 0.060662
1.039983 -0.142523 0.070113
1.039983 -0.109408 0.027089
7 57 62 65 66 63 53 52
7 1 2 3 7 10 6 4
6 10 15 23 22 17 6
6 44 53 63 58 50 43
6 24 41 49 47 37 27
7 66 67 64 61 59 58 63
6 19 28 38 41 24 16
6 14 9 4 6 17 20
6 33 42 55 56 45 36
6 18 26 35 40 30 21
6 21 30 32 29 13 12
6 46 51 60 55 42 39
6 7 16 24 27 15 10
6 30 40 52 53 44 32
6 25 36 45 48 35 26
6 9 14 25 26 18 8
6 13 29 31 28 19 11
6 38 50 58 59 49 41
6 17 22 39 42 33 20
7 56 55 60 64 67 65 62
7 12 13 11 3 2 0 5
6 37 47 54 51 46 34
5 11 19 16 7 3
5 20 33 36 25 14
6 8 5 0 1 4 9
5 45 56 62 57 48
5 15 27 37 34 23
5 31 43 50 38 28
5 23 34 46 39 22
5 49 59 61 54 47
5 60 51 54 61 64
5 35 48 57 52 40
5 21 12 5 8 18
3 0 2 1
3 67 66 65
5 29 32 44 43 31
