ply
format ascii 1.0
element vertex 68
property float x
property float y
property float z
element face 132
property list uchar int vertex_indices
property uchar red
property uchar green
property uchar blue
end_header
-1.039968 0.013807 0.134879
-1.039968 0.018037 0.111086
-1.039968 0.035555 0.135395
-0.993244 0.267117 0.222503
-0.973138 -0.092842 -0.377784
-0.932243 -0.336969 0.314699
-0.896190 0.063686 -0.546305
-0.855692 0.596427 -0.010052
-0.813416 -0.645421 0.071600
-0.811768 -0.579305 -0.327765
-0.780325 0.558839 -0.440016
-0.756878 0.319952 0.636595
-0.716651 -0.321798 0.691612
-0.635592 -0.053376 0.839566
-0.609202 -0.682960 -0.516028
-0.590844 0.668866 -0.554131
-0.541537 0.867806 0.221277
-0.536803 -0.071710 -0.904335
-0.498482 -0.885660 0.248781
-0.490673 0.667449 0.646195
-0.439880 -0.457845 -0.827769
-0.422356 -0.684746 0.660157
-0.350039 0.123210 -0.981231
-0.310852 0.505472 -0.856895
-0.292997 1.008946 0.056555
-0.260910 -0.943538 -0.350422
-0.253580 -1.020400 0.077148
-0.239429 0.974030 -0.287810
-0.239155 0.659669 0.780816
-0.212726 0.002875 1.040000
-0.061580 -0.668952 0.817473
-0.055440 0.223377 1.040000
0.036959 -0.242285 1.040000
0.037279 -0.564850 -0.879624
0.064490 0.640568 -0.814185
0.110836 -1.017571 0.210929
0.125473 -0.876169 -0.564141
0.138131 0.921315 -0.483758
0.156968 0.850333 0.586872
0.165083 -0.021727 -1.030180
0.179488 -0.810137 0.632153
0.184254 0.987140 0.326087
0.246248 -0.321487 -0.971703
0.274674 0.139357 1.040000
0.313323 -0.059135 1.040000
0.384752 -0.884283 -0.413019
0.388370 0.353729 -0.908687
0.395717 0.909493 -0.338893
0.409835 -0.956008 -0.006542
0.423791 0.946587 0.119746
0.519747 0.500553 0.758169
0.620405 0.351566 -0.769561
0.626391 -0.608698 0.573819
0.690199 -0.290792 0.743544
0.697909 0.628033 -0.441135
0.725927 -0.346674 -0.683411
0.731803 -0.551451 -0.504886
0.745682 -0.702234 0.199199
0.800407 0.453539 0.515562
0.815804 0.614085 0.228568
0.830200 -0.035395 -0.631136
0.921021 0.473241 -0.124192
0.921043 -0.497057 -0.006806
0.922850 -0.003282 0.485634
1.026735 0.097323 -0.174058
1.039983 -0.151918 0.060662
1.039983 -0.142523 0.070113
1.039983 -0.109408 0.027089
3 63 53 52 191 194 182
3 63 52 66 191 194 182
3 66 62 65 191 194 182
3 66 57 62 191 194 182
3 66 52 57 191 194 182
3 1 2 3 167 182 50
3 7 1 3 167 182 50
3 10 1 7 167 182 50
3 6 4 10 167 182 50
3 4 1 10 167 182 50
3 10 15 23 157 167 127
3 22 10 23 157 167 127
3 17 6 22 157 167 127
3 6 10 22 157 167 127
3 58 50 43 146 131 223
3 58 43 63 146 131 223
3 63 44 53 146 131 223
3 63 43 44 146 131 223
3 24 41 49 144 0 0
3 47 27 49 144 0 0
3 37 27 47 144 0 0
3 27 24 49 144 0 0
3 59 58 63 83 124 234
3 59 64 61 83 124 234
3 59 67 64 83 124 234
3 59 63 67 83 124 234
3 67 63 66 83 124 234
3 41 28 38 179 195 224
3 41 24 28 179 195 224
3 24 19 28 179 195 224
3 16 19 24 179 195 224
3 20 9 4 76 142 227
3 6 17 4 76 142 227
3 17 20 4 76 142 227
3 20 14 9 76 142 227
3 56 42 55 217 148 165
3 56 45 42 217 148 165
3 45 33 42 217 148 165
3 36 33 45 217 148 165
3 40 30 21 183 188 237
3 40 21 35 183 188 237
3 35 21 26 183 188 237
3 26 21 18 183 188 237
3 29 13 12 32 27 168
3 29 21 32 32 27 168
3 32 21 30 32 27 168
3 29 12 21 32 27 168
3 46 51 60 204 104 106
3 55 42 60 204 104 106
3 42 39 60 204 104 106
3 39 46 60 204 104 106
3 7 16 24 206 166 111
3 27 7 24 206 166 111
3 15 10 27 206 166 111
3 10 7 27 206 166 111
3 53 44 52 134 154 196
3 44 32 52 134 154 196
3 52 32 40 134 154 196
3 40 32 30 134 154 196
3 48 35 25 214 196 133
3 48 36 45 214 196 133
3 48 25 36 214 196 133
3 35 26 25 214 196 133
3 26 18 8 105 185 185
3 26 9 25 105 185 185
3 25 9 14 105 185 185
3 26 8 9 105 185 185
3 28 19 31 206 215 231
3 19 11 31 206 215 231
3 31 11 29 206 215 231
3 29 11 13 206 215 231
3 41 50 58 105 192 141
3 59 49 58 105 192 141
3 49 41 58 105 192 141
3 41 38 50 105 192 141
3 20 22 39 166 184 100
3 42 33 39 166 184 100
3 33 20 39 166 184 100
3 20 17 22 166 184 100
3 67 65 62 126 173 118
3 67 56 64 126 173 118
3 64 56 60 126 173 118
3 60 56 55 126 173 118
3 67 62 56 126 173 118
3 0 13 11 90 171 116
3 3 2 11 90 171 116
3 2 0 11 90 171 116
3 0 5 13 90 171 116
3 5 12 13 90 171 116
3 51 47 54 100 116 195
3 51 37 47 100 116 195
3 46 37 51 100 116 195
3 34 37 46 100 116 195
3 3 19 16 160 129 134
3 7 3 16 160 129 134
3 3 11 19 160 129 134
3 36 25 33 182 152 188
3 25 20 33 182 152 188
3 25 14 20 182 152 188
3 1 5 0 130 36 225
3 1 8 5 130 36 225
3 4 8 1 130 36 225
3 9 8 4 130 36 225
3 62 57 48 135 50 225
3 62 48 56 135 50 225
3 56 48 45 135 50 225
3 23 27 37 0 0 0
3 34 23 37 0 0 0
3 23 15 27 0 0 0
3 50 38 31 167 153 51
3 50 31 43 167 153 51
3 38 28 31 167 153 51
3 39 34 46 148 108 152
3 39 23 34 148 108 152
3 22 23 39 148 108 152
3 49 59 61 45 35 128
3 54 47 61 45 35 128
3 47 49 61 45 35 128
3 54 61 64 127 109 217
3 54 64 51 127 109 217
3 51 64 60 127 109 217
3 57 52 48 109 179 211
3 52 35 48 109 179 211
3 52 40 35 109 179 211
3 21 12 5 175 182 237
3 8 18 5 175 182 237
3 18 21 5 175 182 237
3 0 2 1 255 0 255
3 67 66 65 255 0 255
3 44 43 32 255 0 255
3 43 31 32 255 0 255
3 32 31 29 255 0 255
