ply
format ascii 1.0
element vertex 365
property float x
property float y
property float z
element face 281
property list uchar int vertex_indices
end_header
-0.094787 0.116912 0.024079
-0.094536 0.118416 0.023989
-0.094076 0.116785 0.028784
-0.093964 0.118317 0.027771
-0.091478 0.116324 0.045982
-0.091457 0.091622 0.020505
-0.091415 0.113698 0.009125
-0.091224 0.117843 0.045894
-0.090698 0.097391 0.020941
-0.090554 0.114644 0.030492
-0.089478 0.148793 0.022180
-0.088917 0.114785 0.047484
-0.088664 0.112843 0.022109
-0.088434 0.084982 0.004898
-0.088392 0.120107 0.001163
-0.087419 0.122170 -0.001400
-0.087105 0.142548 0.044463
-0.086786 0.152220 0.013750
-0.086728 0.085534 0.025814
-0.086472 0.143402 0.007370
-0.086291 0.138305 0.003682
-0.086097 0.132843 -0.000270
-0.085909 0.127560 -0.004092
-0.085039 0.109389 0.006037
-0.085016 0.141572 0.000654
-0.084842 0.081438 0.016405
-0.084744 0.120701 -0.002955
-0.083692 0.094675 -0.007806
-0.082248 0.145533 -0.000044
-0.082228 0.129631 -0.002702
-0.082204 0.106687 -0.006535
-0.081836 0.074912 0.001412
-0.081781 0.149860 -0.007029
-0.081292 0.033596 0.006531
-0.080741 0.118502 -0.005284
-0.080396 0.121285 -0.004990
-0.079386 0.172075 -0.042888
-0.078815 0.107508 0.036182
-0.078798 0.070275 -0.000193
-0.078667 0.075155 0.034866
-0.076151 0.154870 0.015359
-0.075954 0.037644 0.006324
-0.075944 0.033510 -0.003104
-0.075198 0.144292 0.050187
-0.075013 0.167201 -0.023103
-0.074692 0.033490 -0.005360
-0.074317 0.064735 0.006421
-0.074051 0.149899 0.011706
-0.073753 0.104430 0.038636
-0.073637 0.104333 0.038313
-0.073420 0.104644 0.038519
-0.073414 0.165419 -0.015868
-0.073318 0.122235 -0.008302
-0.072625 0.159301 -0.002469
-0.072172 0.119611 0.055197
-0.071845 0.116944 0.055738
-0.071830 0.153132 0.011045
-0.071556 0.181035 -0.064180
-0.071303 0.116635 0.055287
-0.071161 0.076519 0.042614
-0.070555 0.119941 -0.010039
-0.070289 0.173213 -0.037892
-0.070266 0.059727 0.012401
-0.069973 0.077595 -0.017376
-0.069870 0.106931 0.037276
-0.069537 0.037773 -0.004706
-0.069393 0.074711 -0.016480
-0.069328 0.074391 -0.016380
-0.069043 0.034035 0.024706
-0.068964 0.037785 -0.005691
-0.068123 0.141002 -0.007724
-0.068085 0.034028 0.023514
-0.067905 0.095859 0.044816
-0.067878 0.141200 -0.007811
-0.067735 0.159090 0.009826
-0.067490 0.130275 -0.009820
-0.066691 0.116734 -0.012467
-0.066559 0.182516 -0.064180
-0.065819 0.152353 0.005662
-0.065664 0.156114 -0.003344
-0.065640 0.057775 0.012047
-0.065615 0.157322 -0.006236
-0.065586 0.034010 0.020404
-0.065239 0.161756 -0.064180
-0.065227 0.034283 0.037456
-0.064754 0.178268 -0.056385
-0.064590 0.041065 -0.005944
-0.064437 0.162307 -0.064180
-0.063911 0.045437 0.034206
-0.063502 0.150133 -0.025627
-0.063196 0.037796 0.022712
-0.063162 0.175493 -0.064180
-0.063111 0.145043 -0.009508
-0.063000 0.143610 -0.004968
-0.062832 0.177679 -0.064180
-0.062650 0.047731 0.005809
-0.062606 0.045334 0.038695
-0.062421 0.180399 -0.064180
-0.061885 0.121085 -0.009462
-0.061661 0.147588 -0.003521
-0.061658 0.034516 0.049378
-0.061601 0.150132 -0.009401
-0.061576 0.123594 -0.008777
-0.061218 0.174210 -0.064180
-0.061115 0.045217 0.043826
-0.061066 0.043707 -0.006147
-0.061057 0.173342 -0.063033
-0.060982 0.174054 -0.064180
-0.060877 0.034134 0.024564
-0.060870 0.037839 0.019902
-0.060014 0.151601 0.000464
-0.059999 0.152526 -0.001724
-0.058983 0.045270 -0.006268
-0.058888 0.050294 0.003024
-0.058826 0.123854 -0.007549
-0.058671 0.060474 0.000765
-0.058441 0.041460 0.021931
-0.058364 0.149689 -0.001654
-0.058218 0.049551 0.002128
-0.058158 0.151360 -0.001198
-0.058015 0.050684 0.004350
-0.057899 0.051334 0.005625
-0.057727 0.060839 -0.000765
-0.057371 0.054286 0.011415
-0.057285 0.164329 0.002955
-0.057153 0.089544 -0.021672
-0.057103 0.160684 0.014818
-0.057051 0.051976 0.005592
-0.057050 0.159630 0.018247
-0.056958 0.056599 0.015952
-0.056908 0.156802 0.027452
-0.056463 0.108244 -0.018896
-0.056308 0.051446 0.006942
-0.056224 0.151110 -0.002929
-0.056138 0.061186 0.024948
-0.055972 0.034206 0.025278
-0.055416 0.065224 0.032867
-0.055392 0.155658 0.015330
-0.054947 0.054799 0.008303
-0.054643 0.069549 0.041350
-0.053909 0.049849 0.027989
-0.052858 0.062337 0.029351
-0.052738 0.153425 -0.005007
-0.052737 0.052018 0.029555
-0.052715 0.050076 0.029593
-0.052609 0.050049 -0.006636
-0.052424 0.086562 -0.020902
-0.051190 0.047047 0.020741
-0.050855 0.045972 0.018835
-0.050854 0.050205 -0.009379
-0.050770 0.055093 0.017507
-0.050617 0.047380 0.017279
-0.050470 0.054052 0.015805
-0.050450 0.061242 0.015036
-0.050408 0.033660 -0.013640
-0.050318 0.061007 0.014268
-0.050278 0.145164 -0.000343
-0.050266 0.143378 0.006310
-0.050014 0.063334 0.033170
-0.049766 0.143445 0.000627
-0.049672 0.063959 -0.013806
-0.049539 0.034471 0.037062
-0.048689 0.059512 0.034966
-0.048452 0.139033 0.003119
-0.048302 0.038124 -0.012662
-0.047436 0.121377 0.029418
-0.047430 0.090049 -0.022203
-0.047247 0.034499 0.037004
-0.047150 0.055073 0.037052
-0.046720 0.123694 0.027929
-0.046698 0.134832 0.000033
-0.046368 0.051173 0.038955
-0.046216 0.099738 -0.025336
-0.045868 0.051374 0.038790
-0.045766 0.051080 0.038928
-0.045722 0.033864 -0.004369
-0.045493 0.054145 0.039283
-0.045311 0.123920 0.026419
-0.044620 0.047773 0.040482
-0.044500 0.065269 0.040574
-0.044061 0.047117 -0.010691
-0.043606 0.033837 -0.007715
-0.043311 0.125322 -0.000623
-0.043303 0.078684 0.042130
-0.043218 0.124093 0.027941
-0.042860 0.125638 -0.006721
-0.042628 0.033486 -0.030724
-0.042331 0.050783 -0.009888
-0.041510 0.033913 -0.004545
-0.040646 0.038288 -0.029058
-0.040517 0.146664 0.008403
-0.040102 0.034739 0.046606
-0.039828 0.034742 0.046571
-0.038430 0.034756 0.046391
-0.038190 0.044237 -0.026995
-0.037970 0.038270 -0.007577
-0.037029 0.038281 -0.006107
-0.036963 0.033754 -0.018224
-0.036847 0.046245 0.040307
-0.036325 0.033554 -0.031384
-0.036248 0.097858 -0.025117
-0.035982 0.049580 0.038490
-0.035855 0.034635 0.036718
-0.035835 0.034634 0.036642
-0.035254 0.097329 -0.027393
-0.035054 0.060719 -0.013331
-0.034615 0.034887 0.051676
-0.034392 0.123968 0.015280
-0.034129 0.033718 -0.022707
-0.033932 0.061465 -0.013611
-0.033716 0.099626 -0.025777
-0.033675 0.034533 0.028526
-0.033498 0.054640 -0.011454
-0.033071 0.052824 0.038797
-0.032461 0.038352 -0.006304
-0.032256 0.087581 0.042890
-0.032084 0.125913 0.015228
-0.032033 0.050891 -0.013386
-0.031331 0.037946 -0.018561
-0.031026 0.038407 -0.018110
-0.030975 0.038262 0.034523
-0.029649 0.034344 0.013394
-0.029482 0.033659 -0.030057
-0.028997 0.038311 0.027687
-0.028806 0.093233 0.049666
-0.028588 0.083370 -0.037670
-0.028159 0.049846 0.046113
-0.028034 0.038452 -0.017610
-0.027445 0.059633 -0.029231
-0.026935 0.049045 -0.025467
-0.026906 0.126873 0.006701
-0.026525 0.048896 -0.026440
-0.025625 0.038525 -0.030601
-0.025550 0.049286 -0.026394
-0.025259 0.127029 0.007436
-0.024763 0.038417 0.013055
-0.024737 0.051938 0.038471
-0.023639 0.047106 0.052843
-0.023218 0.039643 -0.030425
-0.023136 0.038562 -0.030118
-0.023113 0.038562 -0.030114
-0.021542 0.034931 0.044220
-0.021070 0.079476 -0.040700
-0.018984 0.037058 0.042814
-0.018746 0.063435 -0.035931
-0.018143 0.038441 0.041441
-0.017845 0.080605 0.058957
-0.017427 0.048401 0.046621
-0.016914 0.050785 -0.032170
-0.015800 0.043090 -0.029882
-0.015695 0.128672 -0.005310
-0.015609 0.065855 -0.035960
-0.015473 0.038515 0.029655
-0.015466 0.034994 0.043438
-0.015161 0.038681 -0.028572
-0.014889 0.178564 -0.027568
-0.014867 0.038528 0.028514
-0.014827 0.127855 -0.005926
-0.014166 0.128843 -0.005231
-0.014104 0.053442 0.052986
-0.012961 0.103261 0.044233
-0.012818 0.103239 0.044227
-0.012815 0.103251 0.044251
-0.012756 0.103288 0.044231
-0.008989 0.188543 -0.028798
-0.007400 0.082603 -0.038834
-0.007078 0.038689 0.013826
-0.005476 0.190305 -0.031109
-0.004939 0.055718 -0.031125
-0.004915 0.038834 -0.026584
-0.004276 0.190305 -0.029969
-0.001731 0.171064 -0.025350
-0.001538 0.034690 0.013290
0.002158 0.099305 -0.027042
0.002164 0.079561 -0.036124
0.002788 0.190305 -0.038105
0.004441 0.038928 -0.007893
0.006061 0.045267 -0.026140
0.006531 0.038971 -0.011834
0.007673 0.035332 0.046690
0.008493 0.038877 0.033141
0.008930 0.044667 0.048437
0.009008 0.038885 0.032981
0.009038 0.045467 0.048586
0.009283 0.039028 -0.017022
0.009289 0.131463 -0.004013
0.009576 0.034512 -0.006682
0.009847 0.044729 0.047913
0.009975 0.190305 -0.039431
0.010130 0.131265 0.002762
0.010576 0.036523 -0.013362
0.010944 0.087198 0.056841
0.011631 0.034479 -0.010376
0.011771 0.035200 0.035145
0.012557 0.039096 -0.023196
0.013077 0.092745 -0.025368
0.013281 0.130523 0.028129
0.013305 0.035161 0.031473
0.013872 0.036102 0.033786
0.013945 0.081906 0.055405
0.014016 0.034441 -0.014662
0.014155 0.036573 0.034944
0.014906 0.039104 -0.013235
0.015381 0.039686 0.043315
0.015401 0.035228 0.034040
0.016915 0.035276 0.035894
0.017382 0.125907 -0.008261
0.017515 0.034385 -0.020949
0.018624 0.035347 0.039055
0.020093 0.107714 0.043883
0.020117 0.035370 0.039379
0.020560 0.034966 0.039011
0.021136 0.039067 0.034981
0.021243 0.035374 0.038718
0.021748 0.073333 -0.030574
0.021955 0.125036 0.032476
0.022928 0.055152 -0.025456
0.023959 0.039266 -0.020985
0.026369 0.120046 -0.007095
0.026528 0.122144 0.034768
0.027094 0.041196 0.035012
0.027391 0.110039 -0.011260
0.027806 0.039291 0.035900
0.027852 0.039169 0.035958
0.029147 0.042207 0.035888
0.029240 0.035457 0.037689
0.029531 0.039333 -0.014154
0.029697 0.118424 0.003758
0.030173 0.046099 0.036321
0.030736 0.042497 0.035031
0.032412 0.116106 -0.006311
0.034280 0.046376 0.033979
0.034790 0.048068 -0.009456
0.036036 0.035037 0.005811
0.036075 0.068501 0.038816
0.036484 0.113451 -0.005783
0.036686 0.113971 0.006643
0.037019 0.114830 0.027129
0.041195 0.096798 -0.011420
0.043051 0.093140 0.016145
0.046612 0.039536 0.008119
0.047933 0.061317 0.029927
0.048053 0.040149 0.008433
0.048246 0.076140 0.023900
0.048531 0.074320 0.015231
0.048923 0.071822 0.003333
0.048976 0.071627 0.003216
0.049069 0.071782 0.003299
0.049654 0.071532 0.026002
0.050464 0.068756 0.025929
0.051519 0.055609 -0.006276
0.053644 0.057858 0.025646
0.054555 0.042915 0.009851
0.054982 0.045021 0.015961
0.055385 0.047010 0.021732
0.056072 0.049194 0.021910
0.056094 0.048601 0.016606
0.056163 0.069869 0.001677
0.057011 0.049888 0.003832
0.057385 0.073055 0.018753
0.057974 0.055235 0.022400
0.059993 0.072050 0.016664
0.060152 0.061656 0.018955
0.063095 0.070853 0.014179
0.063127 0.070426 0.014250
6 296 315 327 330 318 289
4 285 289 318 306
4 184 296 289 216
5 234 216 289 285 258
5 146 166 160 67 66
5 67 160 122 46 38
4 145 122 160 149
5 86 105 112 145 149
4 38 31 66 67
4 46 25 31 38
4 273 295 274 265
5 306 318 321 295 273
6 166 200 209 205 149 160
5 207 216 234 258 257
6 257 258 285 306 273 210
5 209 200 204 225 228
4 225 242 244 228
5 242 265 274 251 244
6 204 210 273 265 242 225
3 200 210 204
3 318 330 321
3 113 118 120
9 62 80 123 129 134 136 139 59 39
6 95 121 120 118 112 105
5 118 113 115 122 145
5 122 115 80 62 46
3 118 145 112
5 127 138 115 113 120
4 115 138 123 80
3 121 127 120
8 64 260 262 263 315 296 184 165
4 165 184 216 207
3 260 261 262
3 64 165 58
7 59 139 183 215 261 260 72
4 224 262 261 215
6 59 72 50 49 18 39
3 49 50 48
4 72 260 64 50
5 39 18 25 46 62
5 123 138 155 153 129
4 33 41 65 42
5 41 95 105 86 65
3 65 86 69
4 42 65 69 45
3 170 182 114
5 182 230 250 185 114
3 14 15 26
7 16 43 130 128 40 17 10
6 21 29 52 35 26 15
3 22 29 21
5 7 16 10 1 3
4 7 54 43 16
5 169 177 130 43 54
8 1 10 17 19 20 21 15 14
8 182 170 163 157 137 128 130 177
5 17 40 47 20 19
3 157 190 137
3 177 230 182
4 2 3 1 0
4 4 7 3 2
5 4 11 55 54 7
7 257 250 230 177 169 165 207
5 18 49 12 8 5
5 9 12 49 48 37
4 27 30 125 63
4 125 146 66 63
5 31 13 27 63 66
5 25 18 5 13 31
6 5 8 23 30 27 13
3 8 12 23
9 34 35 52 60 76 131 172 125 30
6 172 210 200 166 146 125
3 23 34 30
4 48 50 64 37
8 98 114 185 250 257 210 172 131
3 76 98 131
3 26 35 34
5 23 6 14 26 34
6 6 23 12 9 2 0
4 0 1 14 6
5 165 169 54 55 58
5 2 9 37 11 4
5 37 64 58 55 11
5 40 128 126 124 74
5 117 159 170 114 102
3 170 159 163
5 117 133 142 156 159
3 137 126 128
4 159 156 157 163
8 74 124 142 133 119 110 78 56
3 119 133 117
4 40 74 56 47
5 124 126 270 267 264
6 126 137 190 271 288 270
6 255 275 288 271 156 142
4 271 190 157 156
4 264 267 275 255
4 264 255 142 124
4 267 270 288 275
3 102 114 98
3 44 51 61
5 36 44 61 77 57
3 24 28 32
5 32 28 53 51 44
6 47 56 53 28 24 20
7 83 87 89 73 70 29 22
3 89 92 73
3 75 76 60
5 29 70 75 60 52
4 87 107 106 89
4 106 101 92 89
3 106 107 103
6 22 21 24 32 91 83
5 91 103 107 87 83
6 106 103 94 85 81 101
3 94 97 85
5 51 53 81 85 61
3 94 103 91
3 110 119 111
4 78 110 111 79
5 56 78 79 81 53
9 93 99 111 119 117 102 98 76 75
4 92 101 99 93
3 79 111 99
4 101 81 79 99
4 70 73 92 93
3 20 24 21
3 70 93 75
4 57 91 32 36
3 32 44 36
4 61 85 97 77
5 57 77 97 94 91
5 315 319 337 336 327
4 327 336 335 330
5 339 336 337 348 343
6 293 305 325 313 308 253
5 243 245 280 293 253
4 313 325 323 322
5 312 323 325 305 301
4 320 322 323 312
3 308 313 311
4 202 203 241 193
5 203 220 245 243 241
5 223 252 280 245 220
4 211 223 220 203
3 243 253 241
5 161 167 202 193 192
5 84 161 192 191 100
7 68 71 108 135 167 161 84
5 135 211 203 202 167
4 134 141 158 136
4 129 150 141 134
3 153 150 129
4 100 104 96 84
4 84 96 88 68
3 104 171 96
6 100 191 178 174 171 104
4 178 198 201 174
4 191 192 198 178
6 88 140 116 90 71 68
4 162 158 141 143
6 96 171 173 144 140 88
3 171 174 173
5 173 168 162 143 144
3 144 143 140
4 143 141 150 147
4 140 143 147 116
3 139 179 183
4 136 158 179 139
5 168 176 179 158 162
4 299 334 309 291
6 334 341 348 337 319 309
4 247 287 283 259
5 237 281 287 247 226
6 259 246 224 215 236 247
5 259 283 299 291 246
5 283 287 328 334 299
6 224 246 291 309 263 262
6 176 213 236 215 183 179
4 226 247 236 213
4 328 331 341 334
4 263 309 319 315
4 173 174 176 168
7 310 311 313 322 329 324 303
3 308 311 310
3 320 329 322
4 174 201 213 176
4 324 329 331 328
4 226 213 201 198
4 303 324 328 287
5 206 237 226 198 192
4 206 279 281 237
5 279 310 303 287 281
8 241 253 308 310 279 206 192 193
4 188 196 235 221
6 196 214 276 266 256 235
4 276 286 272 266
4 235 256 252 223
4 221 235 223 211
4 71 90 109 82
4 82 109 41 33
3 82 108 71
9 33 42 175 188 221 211 135 108 82
5 90 116 147 148 109
5 148 147 150 152 151
3 151 152 132
7 109 148 151 132 121 95 41
4 152 150 153 155
5 152 155 138 127 132
3 132 127 121
4 205 209 212 187
4 205 187 86 149
6 240 254 269 294 307 222
5 232 239 240 222 199
4 189 232 199 186
4 208 222 307 300
7 208 300 290 278 227 219 218
5 284 290 300 307 294
3 181 188 175
4 181 195 196 188
3 208 218 197
5 197 218 219 195 181
5 219 227 214 196 195
4 227 278 276 214
5 278 290 292 286 276
6 186 199 222 208 197 154
6 154 197 181 175 42 45
4 154 164 189 186
4 69 164 154 45
3 238 239 232
5 194 231 238 232 189
5 180 217 229 231 194
4 164 180 194 189
4 212 217 180 187
5 217 212 209 228 229
5 187 180 164 69 86
3 277 294 269
3 233 248 249
6 248 268 277 269 254 249
4 231 233 249 238
5 249 254 240 239 238
3 229 233 231
5 228 244 248 233 229
4 244 251 268 248
3 304 305 293
5 280 282 298 304 293
4 301 305 304 298
5 266 272 297 298 282
5 266 282 280 252 256
6 292 290 284 302 340 333
5 294 317 326 302 284
6 333 340 312 301 298 297
5 286 292 333 297 272
3 342 352 353
7 340 342 353 354 329 320 312
5 332 350 358 352 342
3 302 326 332
4 302 332 342 340
4 361 363 357 347
4 362 364 363 361
5 358 350 357 363 364
6 352 358 364 362 356 353
5 346 347 357 350 332
4 356 362 360 355
4 353 356 355 354
4 341 351 349 348
6 351 360 362 361 359 349
3 355 360 351
6 331 329 354 355 351 341
4 345 339 343 344
4 344 343 348 349
5 344 359 361 347 345
3 349 359 344
3 345 347 346
5 316 314 338 346 332
6 338 335 336 339 345 346
7 321 330 335 338 314 274 295
6 251 274 314 316 277 268
4 317 316 332 326
4 277 316 317 294
