ply
format ascii 1.0
element vertex 203
property float x
property float y
property float z
element face 402
property list uchar int vertex_indices
end_header
-0.094787 0.116912 0.024079
-0.091478 0.116324 0.045982
-0.091457 0.091622 0.020505
-0.091415 0.113698 0.009125
-0.089478 0.148793 0.022180
-0.088917 0.114785 0.047484
-0.088664 0.112843 0.022109
-0.088434 0.084982 0.004898
-0.087419 0.122170 -0.001400
-0.087105 0.142548 0.044463
-0.086786 0.152220 0.013750
-0.086291 0.138305 0.003682
-0.086097 0.132843 -0.000270
-0.085909 0.127560 -0.004092
-0.085039 0.109389 0.006037
-0.083692 0.094675 -0.007806
-0.082228 0.129631 -0.002702
-0.081781 0.149860 -0.007029
-0.081292 0.033596 0.006531
-0.080741 0.118502 -0.005284
-0.079386 0.172075 -0.042888
-0.078815 0.107508 0.036182
-0.078798 0.070275 -0.000193
-0.078667 0.075155 0.034866
-0.076151 0.154870 0.015359
-0.075198 0.144292 0.050187
-0.074692 0.033490 -0.005360
-0.074051 0.149899 0.011706
-0.073753 0.104430 0.038636
-0.073637 0.104333 0.038313
-0.073420 0.104644 0.038519
-0.073414 0.165419 -0.015868
-0.071845 0.116944 0.055738
-0.071830 0.153132 0.011045
-0.071556 0.181035 -0.064180
-0.071303 0.116635 0.055287
-0.071161 0.076519 0.042614
-0.070266 0.059727 0.012401
-0.069973 0.077595 -0.017376
-0.069870 0.106931 0.037276
-0.069328 0.074391 -0.016380
-0.069043 0.034035 0.024706
-0.068123 0.141002 -0.007724
-0.067905 0.095859 0.044816
-0.066691 0.116734 -0.012467
-0.066559 0.182516 -0.064180
-0.065664 0.156114 -0.003344
-0.065586 0.034010 0.020404
-0.065239 0.161756 -0.064180
-0.064754 0.178268 -0.056385
-0.064590 0.041065 -0.005944
-0.064437 0.162307 -0.064180
-0.063911 0.045437 0.034206
-0.063162 0.175493 -0.064180
-0.063000 0.143610 -0.004968
-0.062832 0.177679 -0.064180
-0.062421 0.180399 -0.064180
-0.061661 0.147588 -0.003521
-0.061658 0.034516 0.049378
-0.061218 0.174210 -0.064180
-0.061115 0.045217 0.043826
-0.061057 0.173342 -0.063033
-0.060982 0.174054 -0.064180
-0.058888 0.050294 0.003024
-0.058826 0.123854 -0.007549
-0.058671 0.060474 0.000765
-0.058364 0.149689 -0.001654
-0.058218 0.049551 0.002128
-0.058158 0.151360 -0.001198
-0.058015 0.050684 0.004350
-0.057371 0.054286 0.011415
-0.057103 0.160684 0.014818
-0.057051 0.051976 0.005592
-0.056958 0.056599 0.015952
-0.056908 0.156802 0.027452
-0.055392 0.155658 0.015330
-0.054947 0.054799 0.008303
-0.053909 0.049849 0.027989
-0.052858 0.062337 0.029351
-0.052737 0.052018 0.029555
-0.050855 0.045972 0.018835
-0.050854 0.050205 -0.009379
-0.050770 0.055093 0.017507
-0.050617 0.047380 0.017279
-0.050450 0.061242 0.015036
-0.050408 0.033660 -0.013640
-0.050318 0.061007 0.014268
-0.050278 0.145164 -0.000343
-0.050266 0.143378 0.006310
-0.049766 0.143445 0.000627
-0.049672 0.063959 -0.013806
-0.047436 0.121377 0.029418
-0.046216 0.099738 -0.025336
-0.045868 0.051374 0.038790
-0.045766 0.051080 0.038928
-0.045311 0.123920 0.026419
-0.044500 0.065269 0.040574
-0.044061 0.047117 -0.010691
-0.043606 0.033837 -0.007715
-0.043311 0.125322 -0.000623
-0.043218 0.124093 0.027941
-0.042628 0.033486 -0.030724
-0.040517 0.146664 0.008403
-0.039828 0.034742 0.046571
-0.038190 0.044237 -0.026995
-0.037970 0.038270 -0.007577
-0.036325 0.033554 -0.031384
-0.036248 0.097858 -0.025117
-0.035982 0.049580 0.038490
-0.035835 0.034634 0.036642
-0.035254 0.097329 -0.027393
-0.034615 0.034887 0.051676
-0.034129 0.033718 -0.022707
-0.033716 0.099626 -0.025777
-0.033498 0.054640 -0.011454
-0.033071 0.052824 0.038797
-0.032256 0.087581 0.042890
-0.032033 0.050891 -0.013386
-0.031026 0.038407 -0.018110
-0.030975 0.038262 0.034523
-0.029649 0.034344 0.013394
-0.028806 0.093233 0.049666
-0.028588 0.083370 -0.037670
-0.026935 0.049045 -0.025467
-0.025550 0.049286 -0.026394
-0.024763 0.038417 0.013055
-0.024737 0.051938 0.038471
-0.023639 0.047106 0.052843
-0.021542 0.034931 0.044220
-0.021070 0.079476 -0.040700
-0.018984 0.037058 0.042814
-0.018143 0.038441 0.041441
-0.017845 0.080605 0.058957
-0.017427 0.048401 0.046621
-0.015800 0.043090 -0.029882
-0.015695 0.128672 -0.005310
-0.015466 0.034994 0.043438
-0.014827 0.127855 -0.005926
-0.014166 0.128843 -0.005231
-0.014104 0.053442 0.052986
-0.012961 0.103261 0.044233
-0.012818 0.103239 0.044227
-0.012815 0.103251 0.044251
-0.007400 0.082603 -0.038834
-0.007078 0.038689 0.013826
-0.005476 0.190305 -0.031109
-0.004276 0.190305 -0.029969
-0.001731 0.171064 -0.025350
-0.001538 0.034690 0.013290
0.002788 0.190305 -0.038105
0.006531 0.038971 -0.011834
0.007673 0.035332 0.046690
0.008930 0.044667 0.048437
0.009008 0.038885 0.032981
0.009038 0.045467 0.048586
0.009283 0.039028 -0.017022
0.009289 0.131463 -0.004013
0.009847 0.044729 0.047913
0.009975 0.190305 -0.039431
0.010576 0.036523 -0.013362
0.010944 0.087198 0.056841
0.011631 0.034479 -0.010376
0.012557 0.039096 -0.023196
0.013281 0.130523 0.028129
0.013305 0.035161 0.031473
0.013872 0.036102 0.033786
0.013945 0.081906 0.055405
0.014016 0.034441 -0.014662
0.014155 0.036573 0.034944
0.014906 0.039104 -0.013235
0.015401 0.035228 0.034040
0.016915 0.035276 0.035894
0.017382 0.125907 -0.008261
0.017515 0.034385 -0.020949
0.018624 0.035347 0.039055
0.020117 0.035370 0.039379
0.020560 0.034966 0.039011
0.021243 0.035374 0.038718
0.021748 0.073333 -0.030574
0.023959 0.039266 -0.020985
0.026528 0.122144 0.034768
0.027806 0.039291 0.035900
0.029240 0.035457 0.037689
0.029531 0.039333 -0.014154
0.030736 0.042497 0.035031
0.034790 0.048068 -0.009456
0.036036 0.035037 0.005811
0.036484 0.113451 -0.005783
0.037019 0.114830 0.027129
0.041195 0.096798 -0.011420
0.048531 0.074320 0.015231
0.048923 0.071822 0.003333
0.048976 0.071627 0.003216
0.050464 0.068756 0.025929
0.051519 0.055609 -0.006276
0.054555 0.042915 0.009851
0.055385 0.047010 0.021732
0.056163 0.069869 0.001677
0.057011 0.049888 0.003832
0.057385 0.073055 0.018753
0.057974 0.055235 0.022400
0.063095 0.070853 0.014179
0.063127 0.070426 0.014250
3 163 172 156
3 163 188 172
3 180 188 163
3 188 187 172
3 99 135 64
3 99 95 135
3 163 138 100
3 156 138 163
3 50 81 114
3 40 38 90
3 38 92 90
3 114 81 90
3 114 90 107
3 113 107 92
3 107 90 92
3 65 40 90
3 65 76 70
3 40 65 22
3 22 65 37
3 37 65 70
3 67 63 65
3 90 81 65
3 81 67 65
3 26 18 69
3 67 81 50
3 67 26 69
3 69 18 72
3 50 26 67
3 84 86 73
3 86 76 70
3 86 70 73
3 142 141 121
3 121 141 116
3 7 15 38
3 40 22 38
3 22 7 38
3 37 7 22
3 37 2 7
3 23 2 37
3 187 189 178
3 143 187 178
3 172 187 143
3 29 30 28
3 35 39 91
3 100 91 137
3 138 100 137
3 113 107 110
3 137 138 156
3 137 156 172
3 122 110 113
3 172 143 137
3 143 113 137
3 129 122 143
3 122 113 143
3 92 64 113
3 137 113 135
3 113 64 135
3 92 44 64
3 75 102 88
3 10 24 27
3 11 10 27
3 13 12 16
3 122 114 107
3 110 122 107
3 122 123 114
3 123 117 114
3 129 134 124
3 129 124 123
3 129 123 122
3 134 162 173
3 134 143 162
3 106 134 173
3 143 134 129
3 178 162 143
3 179 162 178
3 82 78 73
3 37 70 73
3 78 37 73
3 78 23 37
3 78 36 23
3 78 96 36
3 63 67 69
3 72 76 65
3 63 72 65
3 69 72 63
3 83 76 72
3 83 86 76
3 132 160 142
3 132 142 121
3 140 91 43
3 39 43 91
3 30 21 28
3 163 140 142
3 30 39 21
3 30 43 39
3 140 100 91
3 142 160 163
3 140 163 100
3 160 180 163
3 35 32 5
3 35 21 39
3 35 5 21
3 141 142 140
3 96 43 36
3 116 140 43
3 116 96 126
3 140 116 141
3 96 116 43
3 115 94 108
3 96 115 126
3 96 94 115
3 43 2 23
3 36 43 23
3 43 30 29
3 43 29 2
3 29 6 2
3 46 68 57
3 66 54 57
3 54 64 42
3 66 57 68
3 89 54 66
3 64 54 89
3 64 89 99
3 64 44 42
3 14 3 8
3 19 14 8
3 20 31 45
3 34 20 45
3 145 24 71
3 4 24 10
3 9 24 4
3 25 24 9
3 74 24 25
3 145 71 146
3 71 24 74
3 15 44 92
3 38 15 92
3 15 19 44
3 19 16 44
3 8 16 19
3 16 8 12
3 42 44 16
3 0 9 4
3 0 1 9
3 1 5 9
3 5 32 9
3 9 32 25
3 25 32 35
3 25 95 74
3 95 25 91
3 95 137 135
3 95 91 137
3 25 35 91
3 49 56 55
3 3 0 11
3 12 8 3
3 12 3 11
3 0 4 11
3 11 4 10
3 11 17 12
3 17 53 48
3 48 13 17
3 13 12 17
3 99 89 88
3 88 75 74
3 75 71 74
3 95 88 74
3 99 88 95
3 89 87 88
3 21 29 28
3 21 6 29
3 21 5 1
3 6 3 14
3 6 21 0
3 3 6 0
3 0 21 1
3 14 15 7
3 2 14 7
3 6 14 2
3 14 19 15
3 147 149 158
3 147 66 149
3 89 66 87
3 66 147 87
3 66 145 149
3 66 68 145
3 68 24 145
3 27 24 33
3 24 68 33
3 147 158 146
3 147 71 102
3 102 71 75
3 147 146 71
3 102 88 87
3 102 87 147
3 149 146 158
3 149 145 146
3 27 17 11
3 33 31 17
3 33 17 27
3 17 31 20
3 48 51 42
3 48 42 13
3 13 42 16
3 42 51 54
3 61 51 62
3 61 57 51
3 51 57 54
3 53 17 20
3 53 20 34
3 62 61 59
3 55 45 56
3 51 48 53
3 62 51 59
3 53 55 59
3 51 53 59
3 55 34 45
3 53 34 55
3 49 46 57
3 49 61 55
3 55 61 59
3 49 57 61
3 49 45 31
3 33 68 46
3 33 46 31
3 56 45 49
3 31 46 49
3 190 188 193
3 190 191 189
3 189 191 192
3 188 190 189
3 187 188 189
3 186 164 148
3 170 171 151
3 109 111 103
3 186 148 161
3 151 171 174
3 171 177 174
3 171 182 177
3 174 175 151
3 128 136 111
3 58 47 109
3 58 41 47
3 47 98 120
3 26 47 18
3 26 85 98
3 101 106 112
3 112 173 167
3 101 112 85
3 106 173 112
3 26 98 47
3 85 112 98
3 47 120 109
3 58 109 103
3 109 128 111
3 111 136 151
3 136 170 151
3 136 165 170
3 136 153 165
3 130 131 136
3 131 153 136
3 108 94 103
3 94 60 103
3 103 60 58
3 94 93 60
3 136 130 128
3 182 181 177
3 174 176 177
3 182 181 171
3 181 168 171
3 181 184 168
3 82 84 73
3 131 130 128
3 131 128 119
3 119 128 109
3 183 169 179
3 169 162 179
3 169 155 162
3 150 144 118
3 144 125 118
3 118 125 105
3 125 144 131
3 119 125 131
3 131 144 153
3 109 120 119
3 120 125 119
3 52 41 58
3 60 52 58
3 60 77 52
3 60 93 77
3 52 47 41
3 52 77 47
3 79 80 77
3 80 47 77
3 93 96 78
3 79 93 78
3 77 93 79
3 94 96 93
3 84 86 82
3 80 82 83
3 79 78 82
3 79 82 80
3 82 86 83
3 202 201 199
3 193 166 200
3 193 188 166
3 166 188 160
3 160 188 180
3 202 193 200
3 202 199 193
3 174 176 175
3 157 154 133
3 139 133 154
3 126 127 133
3 152 157 133
3 152 133 127
3 126 115 127
3 116 132 121
3 116 139 132
3 126 139 116
3 133 139 126
3 151 152 127
3 151 127 111
3 132 166 160
3 132 139 166
3 154 166 139
3 181 184 157
3 181 175 177
3 177 175 176
3 175 181 157
3 175 157 151
3 151 157 152
3 157 184 154
3 184 166 154
3 184 200 166
3 184 196 200
3 108 127 115
3 108 103 127
3 103 111 127
3 120 98 105
3 120 105 125
3 150 159 161
3 150 148 144
3 150 161 148
3 167 159 155
3 173 167 162
3 162 167 155
3 72 18 47
3 80 83 47
3 83 72 47
3 124 134 106
3 101 104 106
3 104 124 106
3 150 118 112
3 150 112 159
3 159 112 167
3 118 105 112
3 105 98 112
3 85 104 101
3 85 97 104
3 97 85 50
3 97 50 114
3 97 114 117
3 26 50 85
3 117 104 97
3 117 123 104
3 123 124 104
3 164 165 153
3 164 153 148
3 148 153 144
3 165 170 168
3 168 170 171
3 198 195 194
3 195 186 194
3 194 186 185
3 169 159 155
3 169 185 161
3 169 161 159
3 185 186 161
3 196 184 186
3 196 186 195
3 184 164 186
3 184 165 164
3 184 168 165
3 192 197 194
3 185 192 194
3 191 197 192
3 183 169 185
3 190 199 201
3 197 190 201
3 191 190 197
3 197 201 202
3 197 198 194
3 197 202 198
3 202 200 198
3 200 195 198
3 200 196 195
3 193 199 190
3 192 185 178
3 192 178 189
3 185 179 178
3 185 183 179
